<svg xmlns="http://www.w3.org/2000/svg" viewBox="0 0 868.53 1100"><defs><style>.a{fill:#04dbbf;}.b{fill:#00bfbf;}.c{fill:#f08e00;}.d{fill:#ffdb45;}.e{fill:#e4ffc9;}.f{fill:#8a00aa;}</style></defs><title>15</title><path class="a" d="M727.4,436.69c18.88-.92,37-6,55.32-10.45,15.91-3.82,61.52-19.47,74-30-28.62-13.72-27.22-1.68-62.39,3.21-19.8,2.76-41.06,11.79-61.89,15.33a188.5,188.5,0,0,1-47.06,2.36c8.84-12.33,9-14.4,9.2-14.64,20,7.55,52.56-11.49,74.81-15.8,32.26-6.26,100-7.39,99.14-8-25.81-17.15-55.71-29.19-86.27-24.71-25.81,3.78-51.16,18.32-74.23,31.46,6.38-9.93,43-42.09,57.13-56.73A184.28,184.28,0,0,0,797,282.91c8.18-16.58,11.69-35.72,20.66-51.6A129,129,0,0,0,820.32,215c-14.79,8.6-32.41,25.53-46.05,44.12-12.19,16.59-21,36.72-30.34,53.69-16.06,29-36.31,62.24-40.46,67.54,9.19-31.35,11.8-54.32,9.17-75.9-3.3-27-15-48.79-18.52-80.67-7.34,11-10.72,23.67-11.91,37.16-1.69,19.33,4.28,38.13,5,57.33.34,9.65,3.86,22.44,2.38,31.55-5,31-13.26,48.24-14.22,26.77-.9-20.35-3-54.23-6.66-69.07-5.4-22-21.55-67-30.84-72.28-1.46,18.69-2.48,39.91.37,63.08,2.61,21.34,6,43.51,11.11,63.61,5.6,22,15.68,43.18,23.48,57.88l-3.6,4.72c-10.69-15.89-19.69-35.63-26.41-56.23s-10.54-42.48-18.13-60.14c-3.81-8.87-10.43-17.71-19.89-17.36-1.43.3,1.43,54.15,13.93,77.06,12.08,22.16,23.22,48.56,42.42,64.76,0,0-3.1,4.25-6.69,9.2-10.87-13.38-34.93-33.25-41.3-48.83A177.85,177.85,0,0,0,600,367.13c-25.81-162-83.93-286-136.54-363.54-3.39-5-11-4.55-15-.07-21.07,23.42-75.34,115.62-109.95,263.57-8.11-4.36-16-6.75-22.91-6.57-12.68.32-22.91,7.26-22.56,24.66.24,12.33-3.11,33.25-15.35,52.09-4.79,7.38-14.73,14.62-21.43,8.91-5.18-4.42-3.33-12.61-2-19.29a70.73,70.73,0,0,0-21.08-64.68,66.37,66.37,0,0,0-7-5.61c-21.93-12.52-49.51-16.65-58-7.21s14.17,43-4,72.84c-3.57,5.87-9,12.07-15.81,11.37-9.66-1-11.35-12.22-12-22.9-.87-7.1-1.26-14.46-3.39-20.94A42.08,42.08,0,0,0,127,279.51c-5-5.74-11.53-9.69-18.67-12.48C94.7,263.81,73,277.22,73.67,283.82S100.54,294.33,99.24,328c-.11,2.8-.15,5.82-1.9,8-3.6,4.49-11.21,2.53-15-1.76-1-1.17-6.62-24.34-34-25.21C40.72,310.35,10,308.38.8,330.17c-3.56,8.44,5.56,16.29,10.78,23.83,9.14,13.22,7.14,30.77,6.87,46.84s3.45,35,18,41.81c11,5.17,24,1.27,35.24-3.23s23.36-9.7,35.18-6.84,20.82,18.36,12.81,27.5c-3,3.43-7.85,4.27-11.91,6.38-38.3,19.85-83.2-6.36-86.52,5.28s1,28,3.1,41.75S42.85,545.63,68.93,546s47.88-16.15,68.38-28.42c17.9-10.71,45.92-13,57.45,1.73a80.27,80.27,0,0,0-8.62,15.13,268.06,268.06,0,0,1-125.82,35.3C75.85,610.46,133,628.27,168.9,603.56c2.39-1.64,4.74-3.45,7.07-5.35.06,3.66.18,7.42.38,11.32a87.31,87.31,0,0,1-.43,16.4c-.24,1.62-.56,3.29-1,5-19.29,8.91-35.35,19.93-47.77,32.77s-21.68,26.57-27.41,40.64c-4.24-1.78-8.54-3.43-12.9-4.9a103.72,103.72,0,0,0-22.23-5.37c-8.69-1-17.37-2.12-26-3.71s-16.77-2.6-25.63-1.8c10.73,12.42,29.81,26,49.75,35.61,9.46,4.55,19.7,8,29.87,11.13a69.53,69.53,0,0,0,2.92,24.29,54.9,54.9,0,0,0,10,18.68c-19.81,8.24-36.93,20.1-61.92,27.72,11.69,5,24.22,5.92,37.15,4.65.47-.39,17.19.68,30.3-4.29,11.8-4.48,30.88-6.36,42.34-6.28s43.6-7.84,55.2-22.89c7.75,4-.2.42,7.53,4.39-11,3.76-15.74,13.85-35.82,18.55-19,4.45-39.9,9-53.24,15-19.82,9-59.33,32.16-62.69,41.86,17.88-1.92,38.06-4.72,59.41-11.5,19.65-6.24,40-13.36,58-21.73,19.77-9.17,37.94-22.42,50.42-32.38l5.09,2.56c-13.09,12.89-30.11,24.87-48.34,34.85s-38.19,17.45-53.5,27.73c-7.69,5.16-14.86,13-12.85,21.82.53,1.3,50.8-10.93,70.19-26.76,18.76-15.31,43.3-31.36,55.17-52.34q8.16,4,16.12,7.79c-16.09,8.64-33,36.59-46.61,45.35C181.34,875.8,159,910,161.91,926.48c22.47-5.69,45.2-26.15,64.37-51.34,14.66-19.27,35-40.86,47.61-64.11,4.94,2.31,11.54,4.36,14.42,5.64-10,12.55-23,21.74-30.91,34.3-8.8,14-14.37,30-20.41,45.33-5.23,13.29-10.1,26.62-8.8,40.84,30.53-15.77,21-23.17,39.37-55.81,10.26-18.18,23.83-38.11,30.16-58.38,6.44,2.88,4.53,2.2,10.67,5-13.8,20.7-18.82,30.74-22.62,53.64-1.09,6.6-7.43,50.91-8.68,57.2,21.28-7.5,32.21-27.88,36.9-49.91,4.9-23,4-46.73,3.46-57.62q6.63,3.06,13.05,6.1c26.53,166.67,67.9,236.24,80,256.07A10,10,0,0,0,422,1097.8c9.49-2.86,26.16-8.82,36.35-17.89a10,10,0,0,1,12.6-.61c12.13,8.92,43.6,22.6,52.07,20.48,7.42-1.85,40-79.13,64.11-227.12C601.65,887.24,639.2,904,657.53,909c18.07,7.7,53.29,14.06,73.72,12.37,29.58-2.45,58-18.19,63.82-34.31,3.12-8.71,1.1-17.49-10.83-21.85a70.79,70.79,0,0,1-31.37-24.17c-3.76-5.2-6.06-13.87-.42-16.92,4.38-2.36,9.46,1.06,13.65,3.73a51.6,51.6,0,0,0,49.54,2.71,47.06,47.06,0,0,0,5.67-3.3c14.3-11.61,24.38-29.28,20.19-37.52s-33-1.69-48.48-21.95c-3-4-5.84-9.28-3.56-13.75,3.22-6.31,11.31-4.49,18.74-2.12,5.06,1.28,10.17,2.95,15.13,3.21a30.52,30.52,0,0,0,8.52-1.28,34.1,34.1,0,0,0,13.41-9.4c5.79-8.45,2.4-26.75-2.27-28S828.76,732,806.2,722.19c-1.87-.81-3.92-1.63-5-3.4-2.1-3.63,1.24-8.28,5.17-9.76,1.07-.41,18.3,1.91,26.11-16.48,1.1-5.5,10.54-25.88-1.85-37.87-4.81-4.65-12.55-.52-19,1-9.88,2.37-19.77-1.81-29.3-5.84,1.79-1.58,3.56-3.2,5.3-5a200.4,200.4,0,0,0,23-27.48c6.7-9.72,11-17.11,13.18-22.67l.26-.71c4-11.94-1.36-21.29-7.73-26.06l-.06,0-.24-.16h0c-6.83-4.91-18.66-7.15-29.59,2.76-.25.23-.5.47-.78.75l-.3.3a51.1,51.1,0,0,1,3.5-5.35c3.55-4.73,7-7.46,9.91-7.89a20.15,20.15,0,0,0,17-22.27c-2.18-17.73-10.45-30.68-24.59-38.49-12.14-6.7-25.38-8.17-39.36-4.39-.71-.6-1.45-1.18-2.2-1.73a53.86,53.86,0,0,0-17.56-8.69c-11.37-3.4-23.32-3-35.68,1-21.55-6.9-35.52-10.31-48.72-8.6,2.47-3.47,5.15-12.56,7.52-15.89,18.27,9.85,40,11.7,59.32,16.74,22.12,5.76,44.17,7.16,66.81,6.82s43.62.17,65.76-5.61c-12.42-31-27.19-6-63.89-13.84-20.41-4.35-42.48-15-65-17.11-20.15-1.86-35.43-1.21-52.57-2.47,1.67-1.67,7.94-9.62,7.94-9.62C689,441.29,710.52,437.51,727.4,436.69Z"/><path class="b" d="M808.2,752c5.06,1.28,10.16,2.95,15.13,3.21a30.57,30.57,0,0,0,8.52-1.28,34,34,0,0,0,13.4-9.4c5.8-8.45,2.41-26.75-2.26-28S828.76,732,806.2,722.19c-1.88-.81-3.92-1.63-5-3.4-2.1-3.63,1.24-8.28,5.16-9.76,1.07-.41,18.3,1.91,26.11-16.48,1.11-5.5,10.55-25.88-1.84-37.87-4.81-4.65-12.55-.52-19,1-9.88,2.37-19.77-1.81-29.3-5.84,1.78-1.58,3.55-3.2,5.3-5a201.12,201.12,0,0,0,23-27.48c6.69-9.72,11-17.11,13.18-22.67l.26-.71c4-11.94-1.37-21.29-7.74-26.06l-.06,0-.23-.16h0c-6.82-4.91-18.65-7.15-29.58,2.76-.25.23-.5.47-.78.75l-.3.3a49.55,49.55,0,0,1,3.5-5.35c3.55-4.73,7-7.46,9.91-7.89a20.14,20.14,0,0,0,17-22.27c-2.17-17.73-10.44-30.68-24.58-38.49-12.14-6.7-25.38-8.17-39.36-4.39-.71-.6-1.45-1.18-2.2-1.73a54,54,0,0,0-17.56-8.69c-11.37-3.4-23.32-3-35.68,1-1.36-.44,14.14,4.63,25.51,8.38,27.24,9,57.34,21.44,76.29,39.59-28.66.89-58.12-7.13-85-17.13C688,505.25,677,507,692.06,518.79c29.47,23,38.55,10.43,58.16,40.3-14.84,1.16-28.36-3.91-42.14-9.55a278.27,278.27,0,0,1-45.74-24.07c-12.59-8.18-24-18.76-31.78-31.57l-6.39,9c9,7.61,17.75,15.39,23.39,25.76,2.78,5.11,3.28,11.22,5,16.77,4.41,14,8.4,27.45,10.76,42-12.81-10.3-22.05-23.07-29.39-37.78-6.72-13.47-14.73-21.9-13.61-41.32-44.92,63.18-92.63,130.63-98.58,139.62-10.77,16.27-14.12-13.82-14.12-13.82a1419.22,1419.22,0,0,0,107.93-134.7c-11.27-1.5-35.71-5.17-58.38-14.63-21.66-9-40.45-24.15-44-47.39,6.21,2.49,50.08,18.59,56.93,19.89,27.75,5.26,33.1,16.95,48.29,38.18,4.06-5.74,3-7.46,7.2-13.5-19.55-10.39-35.05-29.28-51.71-43.29-29.89-25.13-39.31-16.75-49.61-51.06,14.83,1.4,27.54,8.95,40.16,16.87,14.57,9.14,29.9,17.93,42.52,29.63,11.34,10.51,29.64,35.28,31.55,32.51,3.09-4.5,3.42-6.8,6.75-11.43-21.41-17.34-40.16-38.89-57.08-57.62-22.13-24.48-38.72-51.7-40.23-75.82,13.54.11,35.12,18,52.06,45.41-25.81-162-83.93-286-136.54-363.54-3.39-5-11-4.55-15-.07-21.08,23.42-75.35,115.62-110,263.57-8.11-4.36-16-6.75-22.91-6.57-12.68.33-22.9,7.26-22.56,24.67.24,12.32-3.11,33.24-15.35,52.08-4.79,7.38-14.73,14.62-21.43,8.91-5.18-4.42-3.33-12.61-2-19.29a70.73,70.73,0,0,0-21.08-64.68,66.37,66.37,0,0,0-7-5.61c-21.93-12.52-49.51-16.65-58-7.21s14.17,43-4,72.84c-3.58,5.88-9,12.07-15.81,11.37-9.67-1-11.36-12.22-12-22.9-.87-7.1-1.26-14.46-3.38-20.94A42.11,42.11,0,0,0,127,279.51c-5-5.74-11.53-9.69-18.67-12.48C94.7,263.81,73,277.22,73.67,283.82S100.54,294.33,99.24,328c-.11,2.8-.15,5.82-1.9,8-3.6,4.49-11.2,2.53-15-1.76-1-1.17-6.62-24.34-34-25.21-7.58,1.31-38.3-.66-47.49,21.13-3.57,8.44,5.55,16.29,10.77,23.83,9.15,13.22,7.14,30.77,6.87,46.84s3.45,35,18,41.81c11,5.17,24,1.28,35.25-3.23s23.36-9.7,35.17-6.84,20.83,18.37,12.81,27.5c-3,3.43-7.85,4.28-11.9,6.38-38.31,19.85-83.21-6.36-86.53,5.28s1,28,3.1,41.75S42.85,545.63,68.93,546s47.89-16.15,68.38-28.41c17.9-10.72,45.93-13,57.46,1.72a80.28,80.28,0,0,0-8.63,15.13,267.94,267.94,0,0,1-125.82,35.3C75.85,610.46,133,628.27,168.9,603.56c2.39-1.64,4.74-3.45,7.07-5.35.06,3.66.19,7.42.38,11.32a86.46,86.46,0,0,1-.43,16.4c-.24,1.62-.56,3.29-1,5-19.28,8.91-35.35,19.93-47.76,32.77s-21.69,26.57-27.42,40.64a188,188,0,0,1,30.31,16.11c16.3,10.7,29.55,17.72,43.82,38.48,3.28.05,9.27,1.08,19.77,5.35-16.47-19.43-23.73-22.39-31.86-46.06-9.63-28-8.67-37.87,2.93-65.24.38-.88,7.61,23.91,19.21,53.23,8,20.22,24.31,42.78,20.74,63l.74.35c4.73,2.31,7.28,3.35,20.46,9.51-5.07-12.47-2.2-24.78-8.92-43-7-19-19.75-37.32-25.4-55.65-7.18-23.27-5.72-31.77-6.34-44.59,12.17,9.89,27.26,36.47,33.68,50.79,7.41,16.54,15.43,32.66,19.64,50.31,3.76,15.77,4,30.83,4.59,50.27,7.27,3.39,7,3.48,15.68,7.53-6-15.17-7.75-31.59-9.57-50.92-2-21.57,4.15-44.27,4.64-64.28.89-36-25.3-45.49,1.75-62.69,9.37,19.85,12.61,39.83,16.92,61s6.91,42.32,5.39,64.2c-1.33,19.12-3.64,38-9.69,56.91L279.19,804c-.28-18.7,7.67-34.46,12.67-71.8,3.66-27.27,10.08-57.85,23.83-78.93,5.91,26.86,3.57,56.06-1.12,83.16-4.4,25.5-11.22,50.48-24.16,72.77,5,2.32,7.77,1.93,13,4.33,3.19-17.6,11.5-37.25,18.84-57.83,12.06-33.79,3-38.19,27.72-62,3.71,13.8,1.33,27.43-1.55,41.42a266.47,266.47,0,0,1-14.61,47.4c-5.48,13.31-3.17,20.51,5.61,13.37,4.33-3.53,10-5.08,14.93-7.71,12.45-6.63,24.39-12.77,37.66-17.57-7.45,13.9-17.85,24.88-30.42,34.4C350,813.77,349.48,825.59,331,828c67.52,31.17,133.58,61.45,143.11,65.47,17.24,7.27-10.53,15.76-10.53,15.76a1360.29,1360.29,0,0,0-146.1-77.93h0c4.43,2,8.76,4.07,13.05,6.1,26.53,166.68,67.91,236.25,80,256.07A10,10,0,0,0,422,1097.8c9.49-2.86,26.15-8.82,36.34-17.88a10,10,0,0,1,12.6-.62c12.14,8.92,43.6,22.6,52.07,20.48,7.42-1.85,40-79.12,64.12-227.12C601.65,887.24,639.2,904,657.53,909c18.07,7.7,53.3,14.05,73.72,12.36,29.58-2.45,58-18.19,63.82-34.3,3.12-8.72,1.1-17.5-10.83-21.85a71,71,0,0,1-31.37-24.17c-3.76-5.21-6.06-13.88-.41-16.93,4.37-2.36,9.45,1.06,13.64,3.73a51.62,51.62,0,0,0,49.55,2.72,50.13,50.13,0,0,0,5.67-3.3c14.29-11.62,24.37-29.28,20.18-37.53s-33-1.69-48.47-21.94c-3-4-5.85-9.29-3.57-13.75C792.68,747.76,800.76,749.58,808.2,752ZM101.88,393.63c-12.95,5.42-31.82,5.31-47.48,2-5.55-1.18-11.9-3.77-13.07-9.32-1.36-6.45,5.82-12,12.41-12s12.64,3.34,18.83,5.61A57.47,57.47,0,0,0,106,381.67S114.82,388.21,101.88,393.63Zm216.5,91.91a7.87,7.87,0,0,1-11.13,0c-32.33-32-79.73-58.71-140.88-79.33a7.87,7.87,0,0,1,5-14.91c63.44,21.39,112.87,49.33,146.93,83.06A7.88,7.88,0,0,1,318.38,485.54ZM695.61,890.33c-5.67-2.66-22.79-10.51-25.47-14.3-4.79-6.78-11.91-11.86-4.5-23.4s19.88-5.38,21.57-4.58c5.81,2.74,11.76,5.83,15.73,11.05,3.66,4.82,1.36,10,7,16.54s19.78,6.78,18.94,14.79S706.06,895.23,695.61,890.33Zm68.27-167.64c-25.43,50.81-116.8,74.44-172,77.92l-.5,0a7.87,7.87,0,0,1-.49-15.72c49.61-3.14,136.63-24.71,158.93-69.26a7.87,7.87,0,1,1,14.07,7Z"/><path class="c" d="M463.44,3.59c-3.39-5-11-4.55-15-.07-33.11,36.8-148.2,243.36-140.19,569.34,9,364.08,85.1,492.44,102.33,520.58A10,10,0,0,0,422,1097.8c9.49-2.86,26.16-8.82,36.34-17.89a10,10,0,0,1,12.6-.61c12.14,8.92,43.61,22.6,52.07,20.48,11.52-2.88,83.7-187.18,90.44-535.55C618.45,304.16,535.7,110,463.44,3.59Z"/><path class="d" d="M463.19,43.21c-3.08-4.63-10-4.22-13.64-.07-30,34.13-134.41,225.72-127.14,528.07,8.12,337.67,77.18,456.73,92.8,482.83a9,9,0,0,0,10.36,4c8.61-2.65,23.72-8.18,33-16.59a8.91,8.91,0,0,1,11.43-.57c11,8.27,39.54,21,47.22,19,10.44-2.67,75.91-173.61,82-496.72C603.77,322,528.72,141.94,463.19,43.21Zm42,992.85c-4.68,5.73-37.51-16.86-37.51-16.86-7.21-53.4-1.44-225.63-1.44-443.12,0-75.16-.48-140-1.24-195.81-6.18,4.63-13.81,7.58-22.43,6.78-17.23-1.59-23.68-21.64-39.95-5.92-6.75,6.53-17.42-3.66-10.73-10.13,8.92-8.62,20-13.66,33-8.28,5.6,2.31,9.5,7.16,14.93,9.36,11,4.44,18.95-4.89,23.4-12.25a7.2,7.2,0,0,1,1.42-1.65c-.08-5.37-.17-10.68-.26-15.88A28.19,28.19,0,0,1,444,345.46c-7.47-1.65-12.33-6.2-17.86-10.42-10.33-7.88-16.08-5.1-24.55,4.61-6.07,7-19.47-.48-13.36-7.49,8.41-9.64,20-19.94,35.38-15,5.7,1.82,9.82,5.44,14.24,8.82,3.48,2.66,6.95,6.4,12.07,6.66,5.77.29,10.52-4,14.19-8.33q-.23-12-.47-23.44a31,31,0,0,1-18.54,4.22c-17.23-1.58-23.68-21.64-40-5.92-6.75,6.53-17.42-3.66-10.73-10.13,8.92-8.62,19.95-13.66,33-8.28,5.6,2.31,9.51,7.16,14.94,9.36,9.12,3.68,16.14-2.11,20.82-8.4q-.25-10.32-.5-20.07A26.93,26.93,0,0,1,446,263.09c-7.22-1.6-11.9-6-17.26-10.06-9.73-7.42-15-4.79-23,4.38-6.07,7-19.47-.48-13.36-7.49,8.15-9.35,19.39-19.27,34.29-14.53,5.51,1.76,9.5,5.26,13.79,8.53,3.26,2.5,6.54,6.05,11.34,6.29,4,.21,7.49-2,10.43-4.78-2.52-89.83-5.59-141.43-7.11-170.08-.17-3.19,7.48-8.79,15.16,1.7,42,57.47,81.33,193.9,95.93,278.71C597.1,535,566.9,960.52,505.2,1036.06Z"/><path class="e" d="M155.41,536.61l2.33-18.93L163.5,452l2.88-43.3q17.31.19,27.19.19,8.18,0,25-.19,1.22,8.07,2,12.23t4.16,16.31q3.31,12.14,5.33,21t6,30.32q4.13-14.71,7.51-25.31t8.45-24.09q5.07-13.5,6.43-17.67t3.71-12.79q14.07.19,27.56.19,9.18,0,25.49-.19-1.77,31.59-2.34,54.27-1.22,44.43-1.22,61.11,0,3.47.19,12.56-12.37-.2-17.34-.19-7.22,0-17.72.19.76-8.45,1.91-40.16t1.14-40.54q0-3.84-.19-10.69l-12.29,38.15L249.8,536.61q-12.2-.2-16.78-.19-5.81,0-17.81.19l-11.55-51.55-6.77-27.46c-.25-1.07-.53-2.38-.84-3.94s-.82-4.31-1.51-8.25l-2.36,26-3.11,53.24-.29,12q-12.93-.2-16.5-.19Q167.41,536.42,155.41,536.61Z"/><path class="e" d="M321,537.82q1.31-11.34,1.94-18.67t1.25-18.75q.6-11.41,1.06-25.25T326,443q12.07.19,19.33.19,6.58,0,18.95-.19-1.61,17.55-2.3,30.83T361.07,502q-.37,26.37-.38,35.84-11-.2-19-.19T321,537.82Zm5.85-106.68q.57-11.06.56-17.46,0-1.85-.09-5,11.24.19,18.85.19,10.48,0,18.38-.19c-.19,1.92-.31,3.53-.37,4.83L363.61,425c-.12,1.73-.19,3.78-.19,6.13q-9.18-.19-17.64-.19Q337.07,431,326.84,431.14Z"/><path class="e" d="M378.92,533.5q-.37-4.08-.74-8.59T377,512.52l-.74-6.68a143.89,143.89,0,0,0,15.47,5.24,46.67,46.67,0,0,0,11.95,1.72A26.5,26.5,0,0,0,411,512a8.13,8.13,0,0,0,4.12-2.41,5.06,5.06,0,0,0,1.3-3.25,5.22,5.22,0,0,0-1-2.92,20,20,0,0,0-4.4-3.95q-7.59-5.56-13.38-10.12a57.48,57.48,0,0,1-8.7-8.08,26.36,26.36,0,0,1-4.45-7.61,23.88,23.88,0,0,1-1.52-8.45,25.57,25.57,0,0,1,4.41-14.39,24.77,24.77,0,0,1,13-9.7q8.59-3,20.94-3,12.9,0,33,3.34l1.48,26a58.59,58.59,0,0,0-21.63-4.46q-7.34,0-10.63,1.51c-2.2,1-3.29,2.55-3.29,4.62a5.16,5.16,0,0,0,.37,1.95,6.15,6.15,0,0,0,1.34,2,18.91,18.91,0,0,0,2.42,2.09c1,.71,3.29,2.37,7,5s6.62,4.73,8.72,6.4A47.33,47.33,0,0,1,448,494a26.78,26.78,0,0,1,4.18,7.43,24,24,0,0,1,1.44,8.31,23.76,23.76,0,0,1-3.2,12.11,25.64,25.64,0,0,1-9.66,9.24,44.51,44.51,0,0,1-14,5.15,82.4,82.4,0,0,1-15.51,1.44,122.79,122.79,0,0,1-13.51-.93Q389.69,535.82,378.92,533.5Z"/><path class="e" d="M546.46,546.64q1.29-15.39,3.26-49.75T552,447.73q-3.66,2.28-7.13,4.52t-15.07,10.58q.59-8.44,1.09-19.82t.49-16.73q5.05-2.88,11.45-6.85t7.82-5q1.44-1,4.31-3.33,8.85.21,20.39.2,10.93,0,22.38-.2l-2,22.15-4.28,73.49-1,27v12.91q-8.43-.2-20.55-.19Q555.79,546.45,546.46,546.64Z"/><path class="e" d="M632,540.3l-.65-9.35q-.27-4.53-.6-8.24c-.22-2.46-.64-6.48-1.25-12q19.21,5.48,31.84,5.48A35.26,35.26,0,0,0,673.82,514a19.47,19.47,0,0,0,8.77-6.06,13.53,13.53,0,0,0,3.07-8.56c0-4.54-2.09-8-6.27-10.29s-10.72-3.5-19.64-3.5q-5.94,0-11.65.42t-15.46,1.72l4.78-60q.27-4.45.56-12.35,23.29.19,44.82.19,27.29,0,45.47-.19c-.55,6.44-.9,11.55-1,15.32l-.46,12.63-12.35-.46-5.76-.1h-9q-5.76-.09-14.3-.09-2.88,0-9.47.19L674,464.17q6.22-.46,9.66-.47,14.49,0,25.54,4.6t16.16,12.86a34.73,34.73,0,0,1,5.11,18.66,40.86,40.86,0,0,1-19.45,34.3,65.13,65.13,0,0,1-21,8,120.9,120.9,0,0,1-24.47,2.46c-3.15,0-6.9-.2-11.23-.6s-8-.86-11-1.35S636.64,541.35,632,540.3Z"/><path class="e" d="M192.22,693.33l8-13.91,50-94.11,5.32-10.53q2.32-4.63,6.48-13.34,17,.21,24.82.2,13.62,0,25.22-.2l14.1,40.3,28.67,77.48,5.6,14.11q-16.73-.2-20.31-.19-8.12,0-23.89.19Q312,677.39,304,655.84H255.35q-8.4,17-17.38,37.49-18-.2-22.05-.19Q208.57,693.14,192.22,693.33ZM267,627.73h30q-11.19-34.05-12.25-37.52-6.37,14.17-10.81,23.24Z"/><path class="e" d="M356.45,698.48q2.79-22,4.28-48.67t1.78-50.42q11.67.2,20.12.2,9.81,0,18.85-.2l-1,13.2a75.23,75.23,0,0,1,5.54-5.68,34.49,34.49,0,0,1,5.77-4.07,38,38,0,0,1,7.33-3.25,54.58,54.58,0,0,1,8.49-2,63.33,63.33,0,0,1,23.29.77A36.45,36.45,0,0,1,462,602.64a26.21,26.21,0,0,1,7.47,6.89,22.52,22.52,0,0,1,4,8.88,48.79,48.79,0,0,1,1,9.81q0,3.69-.79,15.91L472,679.27q-.5,10.38-.49,19.21-9.79-.19-18.33-.19-11.54,0-21,.19.89-8.82,1.86-26.25t1-24.51q0-11-4.23-15.28a14.26,14.26,0,0,0-10.64-4.32,17.57,17.57,0,0,0-10.63,3.69,23.36,23.36,0,0,0-7.73,10.72q-2.72,7-3.84,23.15t-1.51,32.8q-9.69-.19-18.91-.19Q367.79,698.29,356.45,698.48Zm33.68-113.26q.39-11.64,3.94-17.71a11.64,11.64,0,0,1,10.74-6.07,16.72,16.72,0,0,1,4.33.59,20.26,20.26,0,0,1,3.6,1.26q1.41.68,5.69,3.15t5.55,3.11a10.66,10.66,0,0,0,2.28.87,8.74,8.74,0,0,0,2,.24,5.62,5.62,0,0,0,2.33-.48,4,4,0,0,0,1.8-1.84,14.43,14.43,0,0,0,1.12-4.66q5.49.29,8.1.29t8.2-.29q0,11.36-4,17.66a12.79,12.79,0,0,1-11.41,6.31,16.6,16.6,0,0,1-4.27-.54,18.53,18.53,0,0,1-4-1.55q-1.94-1-6.26-3.54a59.38,59.38,0,0,0-6-3.2,8.41,8.41,0,0,0-3.2-.68,4.5,4.5,0,0,0-2.77.92,4.17,4.17,0,0,0-1.55,2.09,26,26,0,0,0-.63,4.07q-5.34-.29-8.05-.29Q395.17,584.93,390.13,585.22Z"/><path class="e" d="M543.79,590.3A73.88,73.88,0,0,1,567.23,594a52.73,52.73,0,0,1,19,10.76A43.42,43.42,0,0,1,597.7,621.2a54.92,54.92,0,0,1,3.68,20.2,60.67,60.67,0,0,1-3.29,20,49.52,49.52,0,0,1-11.15,17.78,48.58,48.58,0,0,1-20,12.44,81.64,81.64,0,0,1-49.68.49,51.17,51.17,0,0,1-19.21-10.62,44.5,44.5,0,0,1-11.6-16.7,54.62,54.62,0,0,1-3.88-20.44,55.72,55.72,0,0,1,3.79-20.44,47.69,47.69,0,0,1,12-17.49,55.4,55.4,0,0,1,20.3-11.95A76.57,76.57,0,0,1,543.79,590.3Zm-.68,28.89a19.26,19.26,0,0,0-18.63,12.73,36.17,36.17,0,0,0-2.5,13.61q0,10.8,5.4,16.56a17.85,17.85,0,0,0,13.56,5.74,19.47,19.47,0,0,0,11.11-3.29,20,20,0,0,0,7.42-9.73A37.7,37.7,0,0,0,562,641a29.45,29.45,0,0,0-2-11,16.57,16.57,0,0,0-6.44-7.86A18.53,18.53,0,0,0,543.11,619.19Z"/><path class="e" d="M598.65,688c-.26-2.83-.51-5.8-.77-8.92s-.67-7.41-1.25-12.87l-.77-6.94a151.27,151.27,0,0,0,16.06,5.44,48.69,48.69,0,0,0,12.41,1.79,27.66,27.66,0,0,0,7.65-.87,8.48,8.48,0,0,0,4.28-2.51,5.25,5.25,0,0,0,1.34-3.37,5.34,5.34,0,0,0-1-3,20.51,20.51,0,0,0-4.56-4.1q-7.89-5.77-13.9-10.51a60.13,60.13,0,0,1-9-8.39,27.61,27.61,0,0,1-4.61-7.9,24.79,24.79,0,0,1-1.59-8.77,26.67,26.67,0,0,1,4.58-15A25.85,25.85,0,0,1,621,592q8.92-3.12,21.74-3.13,13.41,0,34.23,3.47l1.54,27A60.67,60.67,0,0,0,656,614.69q-7.62,0-11,1.57t-3.42,4.79a5.55,5.55,0,0,0,.38,2,6.66,6.66,0,0,0,1.4,2,18.87,18.87,0,0,0,2.51,2.17q1.49,1.11,7.28,5.16c3.85,2.7,6.88,4.92,9.06,6.65a49,49,0,0,1,8.24,7.86,27.55,27.55,0,0,1,4.34,7.72,25.49,25.49,0,0,1-1.83,21.21,26.53,26.53,0,0,1-10,9.59,46.09,46.09,0,0,1-14.51,5.35,85.1,85.1,0,0,1-16.1,1.5,128.63,128.63,0,0,1-14-1Q609.84,690.38,598.65,688Z"/><path class="f" d="M161.08,538.3l2.16-17.59,5.36-61.05,2.67-40.23q16.08.18,25.26.18,7.6,0,23.25-.18c.75,5,1.39,8.78,1.91,11.37s1.81,7.63,3.86,15.15,3.71,14,4.95,19.5,3.11,14.88,5.6,28.17q3.84-13.67,7-23.51t7.85-22.38q4.71-12.54,6-16.41t3.45-11.89q13,.18,25.6.18,8.54,0,23.68-.18-1.65,29.35-2.17,50.42-1.14,41.28-1.14,56.78,0,3.23.18,11.67-11.5-.18-16.11-.18-6.7,0-16.46.18.71-7.84,1.77-37.32t1.06-37.66q0-3.57-.17-9.93l-11.43,35.45-16.4,49.46q-11.31-.18-15.58-.18-5.4,0-16.55.18l-10.73-47.9-6.29-25.51q-.35-1.49-.78-3.66t-1.4-7.66l-2.19,24.12-2.9,49.46-.27,11.15q-12-.18-15.32-.18Q172.23,538.12,161.08,538.3Z"/><path class="f" d="M325.75,538.3q1.22-10.63,1.82-17.51t1.17-17.59q.57-10.71,1-23.68t.69-30.13q11.32.18,18.13.17,6.18,0,17.77-.17-1.5,16.46-2.15,28.91t-.84,26.38Q363,529.42,363,538.3q-10.35-.18-17.84-.18T325.75,538.3Zm5.49-100.06q.52-10.37.52-16.37c0-1.16,0-2.73-.09-4.7q10.54.18,17.68.17,9.84,0,17.24-.17c-.17,1.8-.29,3.31-.35,4.53l-.52,10.79c-.11,1.63-.17,3.55-.17,5.75q-8.62-.17-16.55-.17C343.55,438.07,337.62,438.13,331.24,438.24Z"/><path class="f" d="M381.22,536.64c-.23-2.55-.46-5.24-.69-8s-.61-6.69-1.14-11.63l-.69-6.27a134.23,134.23,0,0,0,14.51,4.92,43.71,43.71,0,0,0,11.2,1.61,25.14,25.14,0,0,0,6.91-.78,7.69,7.69,0,0,0,3.87-2.26,4.78,4.78,0,0,0,1.21-3,4.88,4.88,0,0,0-.91-2.75,19,19,0,0,0-4.12-3.7q-7.12-5.22-12.55-9.49a54.72,54.72,0,0,1-8.17-7.57,24.83,24.83,0,0,1-4.16-7.14,22.39,22.39,0,0,1-1.44-7.93,24,24,0,0,1,4.14-13.5,23.32,23.32,0,0,1,12.19-9.1q8.06-2.82,19.64-2.83,12.11,0,30.91,3.14l1.39,24.38A54.8,54.8,0,0,0,433,470.46q-6.89,0-10,1.42T420,476.21a4.92,4.92,0,0,0,.35,1.83,5.9,5.9,0,0,0,1.26,1.83,17.94,17.94,0,0,0,2.27,2c.9.66,3.09,2.22,6.57,4.65s6.21,4.45,8.19,6a44.42,44.42,0,0,1,7.44,7.1,25.29,25.29,0,0,1,3.92,7,22.51,22.51,0,0,1,1.35,7.79,22.26,22.26,0,0,1-3,11.36,23.92,23.92,0,0,1-9.06,8.67,41.84,41.84,0,0,1-13.1,4.83,77.28,77.28,0,0,1-14.55,1.35,115.5,115.5,0,0,1-12.67-.87Q391.32,538.82,381.22,536.64Z"/><path class="f" d="M548.59,538.3q1.13-13.5,2.85-43.63t2-43.11q-3.21,2-6.26,4T534,464.8q.52-7.4,1-17.37t.43-14.67q4.42-2.53,10-6t6.87-4.4q1.26-.92,3.78-2.92,7.76.18,17.87.18,9.6,0,19.62-.18l-1.74,19.42L588,503.29,587.15,527V538.3q-7.39-.18-18-.18Q556.77,538.12,548.59,538.3Z"/><path class="f" d="M635,536.56l-.61-8.77c-.17-2.84-.36-5.41-.56-7.73s-.6-6.07-1.18-11.28q18,5.13,29.87,5.13a33.06,33.06,0,0,0,11.71-2,18.33,18.33,0,0,0,8.23-5.68,12.75,12.75,0,0,0,2.88-8q0-6.37-5.88-9.65T661,485.27c-3.71,0-7.36.13-10.93.39s-8.4.8-14.5,1.61L640.06,431q.27-4.17.53-11.58,21.84.18,42,.18,25.59,0,42.65-.18-.79,9.06-1,14.37l-.44,11.84-11.58-.43-5.4-.09h-8.44Q693,445,685.05,445q-2.71,0-8.89.18l-1.76,19.94q5.83-.43,9.06-.44a62.12,62.12,0,0,1,24,4.31q10.37,4.32,15.15,12.07a32.54,32.54,0,0,1,4.8,17.5,38.33,38.33,0,0,1-18.25,32.17,60.86,60.86,0,0,1-19.68,7.49,113.2,113.2,0,0,1-22.94,2.31c-3,0-6.48-.19-10.54-.56s-7.49-.8-10.28-1.27S639.33,537.54,635,536.56Z"/><path class="f" d="M204.84,688.3l7.23-12.54,45.05-84.82,4.79-9.49q2.08-4.19,5.84-12,15.31.18,22.37.18,12.28,0,22.73-.18l12.7,36.31,25.85,69.84,5.05,12.72q-15.09-.18-18.31-.18-7.32,0-21.53.18-3.83-14.37-11-33.79H261.74q-7.58,15.33-15.67,33.79-16.22-.18-19.87-.18Q219.57,688.12,204.84,688.3Zm67.42-59.13h27.05q-10.08-30.69-11-33.82-5.75,12.78-9.74,20.95Z"/><path class="f" d="M363.68,688.3q2.51-19.77,3.84-43.67t1.6-45.24q10.45.18,18.05.17,8.81,0,16.91-.17l-.87,11.84a65,65,0,0,1,5-5.09,30.75,30.75,0,0,1,5.18-3.66,34.65,34.65,0,0,1,6.57-2.92,49.6,49.6,0,0,1,7.62-1.78,56.56,56.56,0,0,1,20.9.69,32.42,32.42,0,0,1,10,3.84,23.44,23.44,0,0,1,6.7,6.18,20.27,20.27,0,0,1,3.57,8,43.82,43.82,0,0,1,.88,8.79q0,3.32-.71,14.28l-1.5,31.52c-.29,6.22-.44,12-.44,17.25q-8.79-.18-16.44-.18-10.37,0-18.88.18.79-7.93,1.67-23.56t.87-22q0-9.84-3.79-13.71a12.81,12.81,0,0,0-9.54-3.88,15.86,15.86,0,0,0-9.55,3.31,21,21,0,0,0-6.93,9.62q-2.43,6.31-3.44,20.77t-1.36,29.44q-8.7-.18-17-.18Q373.86,688.12,363.68,688.3Zm30.21-101.63q.36-10.44,3.54-15.89a10.44,10.44,0,0,1,9.64-5.44,15,15,0,0,1,3.89.52,19.33,19.33,0,0,1,3.22,1.13q1.27.62,5.11,2.83t5,2.79a9.23,9.23,0,0,0,2.06.78,7.41,7.41,0,0,0,1.78.22,5,5,0,0,0,2.1-.43,3.51,3.51,0,0,0,1.61-1.66,12.76,12.76,0,0,0,1-4.18c3.29.18,5.71.26,7.27.26s4-.08,7.36-.26q0,10.18-3.62,15.85a11.46,11.46,0,0,1-10.23,5.66,15.05,15.05,0,0,1-3.83-.48A16.81,16.81,0,0,1,426.2,587q-1.74-.91-5.62-3.18a52.28,52.28,0,0,0-5.35-2.87,7.5,7.5,0,0,0-2.88-.61,4,4,0,0,0-2.48.82,3.71,3.71,0,0,0-1.39,1.88,22.73,22.73,0,0,0-.57,3.65q-4.79-.25-7.22-.26C399.17,586.41,396.91,586.5,393.89,586.67Z"/><path class="f" d="M537.57,597.12a65.64,65.64,0,0,1,20.77,3.31A46.61,46.61,0,0,1,575.19,610a38.33,38.33,0,0,1,10.15,14.54,48.68,48.68,0,0,1,3.26,17.89,53.82,53.82,0,0,1-2.91,17.73,43.93,43.93,0,0,1-9.89,15.76,42.86,42.86,0,0,1-17.72,11,72.21,72.21,0,0,1-44,.44,45.3,45.3,0,0,1-17-9.41,39.37,39.37,0,0,1-10.28-14.8A48.48,48.48,0,0,1,483.32,645a49.48,49.48,0,0,1,3.36-18.12,42.37,42.37,0,0,1,10.62-15.5,49.19,49.19,0,0,1,18-10.58A68,68,0,0,1,537.57,597.12Zm-.6,25.61A17.08,17.08,0,0,0,520.46,634a32.1,32.1,0,0,0-2.22,12.06q0,9.59,4.79,14.68a15.82,15.82,0,0,0,12,5.09,17.23,17.23,0,0,0,9.84-2.92,17.74,17.74,0,0,0,6.57-8.62,33.41,33.41,0,0,0,2.22-12.23,26.14,26.14,0,0,0-1.74-9.76,14.7,14.7,0,0,0-5.7-7A16.46,16.46,0,0,0,537,622.73Z"/><path class="f" d="M600.8,686.64c-.24-2.55-.47-5.24-.7-8S599.49,671.9,599,667l-.7-6.27a134.23,134.23,0,0,0,14.51,4.92A43.72,43.72,0,0,0,624,667.22a25.06,25.06,0,0,0,6.9-.78,7.69,7.69,0,0,0,3.87-2.26,4.78,4.78,0,0,0,1.21-3,4.85,4.85,0,0,0-.91-2.75,18.48,18.48,0,0,0-4.12-3.7q-7.12-5.22-12.55-9.49a54.08,54.08,0,0,1-8.16-7.57,24.64,24.64,0,0,1-4.17-7.14,22.38,22.38,0,0,1-1.43-7.93,24.11,24.11,0,0,1,4.13-13.5A23.32,23.32,0,0,1,621,600q8.06-2.82,19.64-2.83,12.1,0,30.91,3.14l1.4,24.38a54.89,54.89,0,0,0-20.29-4.18q-6.89,0-10,1.42t-3.09,4.33a4.92,4.92,0,0,0,.34,1.83,6.14,6.14,0,0,0,1.27,1.83,17,17,0,0,0,2.26,2c.9.67,3.09,2.23,6.58,4.66s6.21,4.45,8.18,6a44.93,44.93,0,0,1,7.45,7.1,25.55,25.55,0,0,1,3.92,7,22.74,22.74,0,0,1,1.34,7.79,22.26,22.26,0,0,1-3,11.36,23.84,23.84,0,0,1-9.06,8.67,41.84,41.84,0,0,1-13.1,4.83,77.18,77.18,0,0,1-14.54,1.35,115.19,115.19,0,0,1-12.67-.87Q610.89,688.82,600.8,686.64Z"/></svg>