<svg xmlns="http://www.w3.org/2000/svg" viewBox="0 0 798.68 621.66"><path d="M58.19,4.1c46.45-.17,92.78-2,139.21.5,49.33,1.6,98.51,1.92,147.89,3.18,25.79-1.22,51.77.82,77.33-2.07,31.1-3.59,62.15-1.23,93.36-3.08C568.2,4.43,620.59-.08,673,.48c31.28-1.33,62.66.4,93.86,1.75,5.42-.17,8.88,3.54,13.85,3.38a2.6,2.6,0,0,1,1.93,1.16c3.45,6.78,9.58,12.4,10.17,20.47,4.17,17.14,5.89,34.88,4,52.51-.28,16.34,1.28,32.66-1.31,48.93.43,37.95.26,75.54.85,113.44.08,16.77.24,34,.45,50.85-.64,10.46-1.7,20.9-.76,31.38-.48,33.86-.3,68.49.2,102.88,1.5,33.94,4.28,68,.65,101.95.55,19.48-.2,39.12,0,58.55.42,3.92-.06,6.62-2.54,9.77-11.68,11.27-47.4,6.66-63.8,8.08-25.5-1-51-.09-76.55.45-41.75.14-83.51,4.6-125.21,2.92-51.26,1.46-102.7-3.07-154-.3-74.82,2-149.59,1.66-224.33,3.09-19.52.54-39,.26-58.51-.49-24.51-.64-51.89,2.8-74.52-7.81C.22,589.57,5.88,563.84,5,544.28c-.28-9.79-1.47-19.6-1.42-29.4C5.38,447.19,6.25,379.66,3,312c.71-24.19-1.65-48.33-1.12-72.53,1-16.5.89-33,.55-49.52,1.78-14.6-1.25-29-1.91-43.58.3-11.24.32-22.48-.5-33.68C2.86,91.57,2.58,70.46,2.6,49.2,1.35,14.79,26.19.6,58.19,4.1ZM776.55,329.85h-.38c.6-43.11,1.81-86.22-.78-129.29-.42-42.46,2.74-84.83,1.8-127.25,2.07-16.57-.16-32.6-5.11-48.47-.85-4.16-3.83-5.5-7.71-5.74-27.33-1.84-54.75-1.44-82-2.23C615.79,21,549.16,19.67,482.59,21.39c-48.42-.22-96.75,4.12-145.23,3.33C274.8,23.64,212.1,23,149.58,21.24c-35.05.27-70.1-1.38-105.21,0-25.15.37-21.93,23.46-22,41.84.78,29.08-5.67,58.18-1.4,87.13,4,47-.54,93.84,1.85,140.9-.5,26,3.15,51.72.7,77.7,1.84,36.28,3.17,72.68,0,109,.34,22.24-.26,44.33,1.1,66.58.48,12-3.68,38,6,45.58,37.85,7.21,77.43,2.86,115.89,4.67,95-3.56,190.21-1.67,285.26-4.18,85.41,3.41,170.8-.52,256.2-2.9,28.6.62,57.17.87,85.78-.24,2.36-.07,4.31-.83,4.12-3.65-2.27-32.1.49-64.31,1.23-96.42C776.75,434.78,774.76,382.31,776.55,329.85Z"/><path d="M469.87,461.9c-7.82.39-10.36-.44-13.81,7.48,4.75,4.27,5.58,9.61,2.74,15.22-2.25,7-19.9,9.17-17.19-.48,4.25,0,10.63,2.27,12.24-3.06,1.24-6.5-2-8.61-8.18-10.71,3.09-2.67,5.78-5,8.48-7.32l-.3-1.13H438.64c-3.91,7.67-7.86,15.39-12,23.43,3.86-.5,7.39-.65,10.58,1.95-3.91,4-9.64,3.18-14.75,3.71-13.58.07,9.36-19.86,8.86-26.63.37-1.22-.59-4-1.37-4.18-2.33-.51-5.47-1.86-6.7,1.93-.6,1.86-1,3.78-1.58,5.91-5.91-1.35-2.92-5.47-3.26-8.88-18.52-6-38.84-7.09-56-16.83,4.88-2.39,14.13,3.85,20,4.3,14.42,2.23,29,9.34,43.58,6.83l0-1.51a360.3,360.3,0,0,1-78.08-20.26c5.06,3.54,10.36,6.3,14.71,10.76-6.13-2.68-12.7-4.69-18.25-8.27-5.81-4.6-12.11-2.37-18.74-2.36-.1-.46-.21-.92-.31-1.38l9.17-2.31c-6.24-6.63-11.8-12.87-17.72-18.75-44.27-43.68,4.95-89.15,48.71-105,20.33-8.42,41.47-14.08,62.89-18.83,8.14-2.62,11.25-14.49,16.18-21.05,5.41-7.07-5.64-11.08-7.52-2.64,0,2-1.47,2.82-2.94,3.87-.63-.84-2-2-1.77-2.47,1.42-3.2,2.56-6.9,5-9.2,6.2-6,14,1.29,13.11,8.52-1.39,8.08-6,13.29-10.49,20.95,13.27-1.35,24.41-2.34,37.29-2.75,1.3,0,2.64.93,4,1.43-.06.59-.12,1.18-.19,1.77A225.75,225.75,0,0,1,456,286c-3.32.69-6.41,3.33-10,3.24-14.29.46-28.58,1.47-42.2,6-36.51,12.43-80.2,22.81-97.55,61.5-5.77,13.68-4.58,28.62,5.4,40.38-3.36-37.61,11.41-46.45,33.39-71.08.67-7.14,5.09-10.38,12-9.14,25.81-6.53,50-21.52,77.56-23.55,27.73-3.09,55.27-7.91,83.28-6.93.52-1.83,1-3.48,1.6-5.59,4.17,3.39,10.55,3.15,12.8-2.12,2.51-5.58-3.42-7.25-6.86-10.44,2.89-3.71,8.83-5.72,5.8-11.26a39.28,39.28,0,0,0-4.47,1.06c-1,1.83-3,2.4-4.92,3.06-3.1-14.74,24.67-12.63,13,7,6.43,7.06,3.83,13.76-2.86,20.31,46.91,1.41,129.62,16.65,154.23,60.27,8.61,20.41,3,9.25,30.23,13.71-48.36,1.13-6.66,5.32-42.43,40.06-9,9-21.82,14-30,23.92l.8,1c-15.2.8-28.2,9.56-42.58,13.5-15.86,4.75-32,8.49-48.06,12.6-3.16.81-5.05,2-5.16,5.92-1.34,10.13.92,22.73-4.38,31.56-4.39-4.9-2.4-10.59-2.73-17H530c1.58-5.67,3-10.64,4.38-15.72-5-.68-6.08,1.41-7.27,5.21-2.77,7.72-6.61,14.44-11.21,21.49,4.63.19,8.35-1.28,11.41,2.44-3.59,4.34-9.87,2.77-14.89,3.51-11.67-1,3.11-13.48,5-18.07,2.24-3.71,3.7-7.88,5.8-12.5-12.76-1.77-6.66,1.68-13.14,6.4l-2.86-5c-12.06,0-24.77,0-37.5,0,12.49-7.51,28.4-.93,41.65-5.86l-.34-1.11H458.45c-.15.56-.31,1.11-.46,1.67,1.65.7,3.3,1.41,5,2.1C465.3,459.61,468.93,457.91,469.87,461.9ZM632.11,318.13l.11.12c-61.93-35.1-138.6-30.77-206.6-19.29a229.12,229.12,0,0,0-60.24,20.86c-4.74,2.79-4.9,8.85-7.67,13.74,18.39,20.44-28.07,36.76-9.81-1l-1.51-.59c-32.09,20.38-49.2,70.47-6.46,90,12.72,8.85,28.49,3.72,43,5.06l0,.51-24.6,2.09c-.1.7-.21,1.39-.31,2.09,20.41,7.39,41.59,12,62.86,16.1,9.42,1.91,19.7.92,28.31,5.4,53.06-.38,105.3-7,156.44-21.58-.35-.48-.69-1-1-1.43L588,431.34l-.14-1.77c12.78-3.78,29.45,2.44,39-9.3,25.27-11.95,57.06-41.93,42.26-72.18,23.36,30.15-17.8,63.28-41.87,77.58,7.35,3.78,43.82-22,48.6-29.63,4.64-3.63,20.38-33.88,6.41-31.42-1.19.25-2.56-.42-3.86-.66,3.55-3.81,10.54.15,7.18-8.28-7.55-20.74-27.89-33.57-47.81-40.83l13.16,12.72ZM358,343.62c-2.21-2.46-3.6-4-5-5.53-2.49,4.54-7.22,7.31-1.66,11.86ZM544.42,456.86c-4.7.16-5.24,1.24-6.5,11.73C545.3,471.51,542.86,461.42,544.42,456.86Zm-112.2-4.13c4.63,4.81,8.9,5.3,13.55,1.77ZM532.75,454l-.18-1.2c-2.58-1.25-9-4.23-8.27,1.09C526.26,456.44,530.12,454.26,532.75,454Z"/><path d="M635.6,563.89c5.72-1.5,7.7.17,7,6.89,6.64,1.3,7.38,2.58,5.06,8.8,3.78,4.68,3.68,7-1.5,9.7-8.1,6.24-10.2,17.57-21.65,20.19l5.32,4.41-8.19,1.1c.69-2.4,1.07-3.71,1.54-5.36H615c.81,1.72,1.4,2.94,2.32,4.89h-7.84l-.3-1.16,4.42-3.21c-3.83-2.47-8.42-3.76-11.51-6.8-3.51-4.24-6.82-7.69-12.91-8.51-4.29-.59-4.63-4.41-1.56-8.29-4.81-6.47-4.35-8.34,2.6-10.6-1.6-6.18-.52-7.6,6.19-8.18,0-7.35,1-8.5,7.54-7.9,1.51-9.5,16.33-10.07,17.56-.45C630.12,554.6,631,555.08,635.6,563.89Z"/><path d="M34.88,124.4c-5.47-5.79-5.51-6.56.39-9.69-1.13-4.23-6.93-8.51-1.56-12.78,4.11-3.26,7.23.74,10.16,4.28,5-4.17,5.55,1.31,7.49,3.93,7.82-9.52,9.62,1.2,13.52,7.75,13.18-12.87,12,5.87,9.14,14.23-1.25,3.27-5.8,5.28-9.08,8l9.26,3.64-.68,1.64-11.37-4.95C59.61,154.82,24,158,39.14,138c-2.42-2.68-5.28-5.4-7.42-8.6C31.3,128.74,33.64,126.26,34.88,124.4Z"/><path d="M579.8,248.71c3.45-10.06,3.87-5.87,11.4-3.29l4.79-5.85c2.71,4.18,6,7.34,6.48,12.63l4.21-2.07c4.32,6.24,1.52,12-1.07,17.84l14.82,7-.52,1.14-13.26-6.05c-5.65,7.35-7.17,15-16.33,16.37l-1.84-5.89c-3.53,2.67-8,2.52-12.28,2.79l-.47-6.61L564.88,276c-.25-.66-.49-1.32-.73-2l7.78-7.18-8.44-6.1,5.29-3.88C551.56,241.46,568,235.3,579.8,248.71Zm27.09,4.81-1.74,0-.53,9,1.69.07Q606.6,258.07,606.89,253.52Z"/><path d="M77.56,258.93l5.28,1.41c-1.16,3.22-2.33,6.44-3.45,9.54,6.36-5.83,9.26-3.59,16.5-4,.33-.07,1.69,2.13,1.45,2.94C92.46,278,98.61,278.84,91,283.65A7.42,7.42,0,0,0,87.44,288c-1.33,3.53-8.74,4.05-11.92.73-4.5-4.38-11.64.34-18.54-.44-.33,4-.72,8.61-1.17,13.85-2.73-6.23-.31-11.6,1.11-17-3.68-2.38-16.61-8-10.2-12.7,1.34-9.7-2.28-13.33,9.7-11.67.61-4.46,2.78-13.59,8.42-7,1.75-3.88,2.91-7.82,5.18-11,3.74-4.37,9.79-2.41,10,3.46C79.78,250.67,78.38,255,77.56,258.93Z"/><path d="M47.05,608.52c-5.17-2.22-6.41-2.73-3.59-8.07-2.82-1.41-4.41-5.25-6.53-7.59,5.27-3.45,10.28-4.19,16.64-3.54-3.15-10.39,14.05-5.39,12.42,7.6l1.73-.1c-.46-4.74-.72-11.77,5.72-8,3.83,4.27,5.34,10.61,6.73,15.88l13,2.53-.17.84-11.81-1.61c-2,5.42-2.55,16.86-10.71,12.6-5.29,1.2-15.32,7.15-12.35-4.4C53.4,615.66,41.6,616.24,47.05,608.52Z"/><path d="M355.81,606.26l11-4.17-4.94-7.49,5.82-.5c-1.31-4.24-2.58-8.36-4.18-13.51l16.11,7.54,4.66-9.92c1.91,4.38,3.65,8.37,5.56,12.77l5.52-3.83c2.63,3.69-3.58,9.84,5.06,11.86l-11.87,10.84c.43,1.34,1.17,3.61,1.91,5.88l-.7.27c-.79-2-1.59-4-2.5-6.21-5,7.38-8.78,9.24-18.59,9.11l2.18-6A65,65,0,0,1,355.81,606.26Z"/><path d="M353.21,70c4.59-11.09,5.5-11.71,9.85-6.66,8.93-8.48,13.85-5.72,8.59,5.58,9.94,4.53,2.06,10.39-3.17,12.5,7.63,4.83,8.77,10-4,10.42-1.76,1.9-3.48,4.86-4.47,4.63-3.6-.83-7-2.73-10.41-4.22l.37-1.49-3.49,2.58c-.44-7.09-9.34-11.34-2.24-18.57.79-.84-.06-3,.5-4.32a42.56,42.56,0,0,1,3.46-5.67C349.88,66.52,351.8,68,353.21,70Z"/><path d="M157.66,180.19c-1.62,6.87,1.11,16-4.54,21-.81-1.31-2.42-2.71-2.3-3.92,2-9.27.55-26,6.26-32.83,6.27,4.84,4.74,12.28,7.44,20.42,3.89-8.2,4.2-15.44,11-20.44,4.58,10.11.1,21.88.11,32.66-.13,1.36-1.6,2.6-2.44,3.89-5-6-.85-14-2.06-21.33-2.07,5.14-2.87,11-7.71,14.36-3.91-3.77-3.85-9.14-5-14.1Z"/><path d="M375,185.74c1.89-5.2,2.25-11.2,7.27-14.51,3.87,4.11,2.67,9,4.43,14.18,2.81-6.37,2.67-19.6,8.68-22.86,4.48,3.11-6,28.1-6.91,34.78-6.27,7-6.32-11.06-8.22-14.66-1.68,6-2.11,12.48-7.06,16.87-6.44-9.12-3.52-21.65-5.13-32.3-.07-1.53,1.43-3.13,2.2-4.7,6.26,5.89,2.46,15.26,3.38,22.94Z"/><path d="M464.67,111.6c-17.25-15.85-44-9.43-63.66-1.8-11.24,4-22.94,11.51-35.07,6.65-11.05-3.78-1.65-19.2,5.68-9.79l-.93,1.21c-1.63-1.34-3.82-1.65-5.74-2.45-3.43,5.49-1.08,8.06,4,10.28,17.51,3.72,33.12-10.1,49.81-13.39,13.34-3.37,28.94-3.26,41.31,3.61,12.5,9.19,27.84,9.12,41.93,13,5.18,1.42,10.58-.21,14.62-4.84-15.17-12.83,10-19.2,2.79-.39,7,4.25,13.91,3.24,21.34-.27-8.74,10.7-18.06-1.1-26.81,4.7-14.41,9-29.7-4.71-44.74-4.6.71,10.15-1.52,14.35-8.28,16.49-3.53,1.12-7.36.86-8.63-2.6C450,118.9,458.25,115.6,464.67,111.6Zm-6.41,16.91c5.68.19,10.9-6.1,9.29-11.52-.31-1.07-2.72-2.62-3.26-2.32C458.66,116.86,445.91,126,458.26,128.51Zm59-16.83c2.22-2.82,2.39-5.45-.16-7.81C511.76,103,513.19,110.33,517.24,111.68Z"/><path d="M624.52,185.25l8.39,15.51c-6.61,8.54-9.18-9.12-13.68-12.59-1.1,3.18.66,14.25-4.16,13.14-3.94-.41-2.58-3.52-2.34-5.84.83-8.11,1.58-16.23,2.68-24.3.35-2.59-2-6.45,3.42-7.27C638.1,160.56,638.09,177.7,624.52,185.25Zm-4.5-5.51,1.44,1c5.62-3.82,12.4-12.24.86-12.77C619.77,170.3,620.41,176.33,620,179.74Z"/><path d="M212.37,178.54c-1.46,7.44,1,16.52-4.21,22.56-.93-1.41-2.76-2.89-2.66-4.23,1.75-10.38-.19-22.47,4.81-31.76,7,4.11,6.74,13.51,10.83,21.61,1.73-8.42-.61-15.82,4.51-21.63.8,1.32,2.38,2.7,2.29,3.95-1.68,9.26,0,23.65-4.74,31.24-6.75-4.72-6.53-14.63-9.94-21.72Z"/><path d="M285.17,535.23c18,25.49-30.09,32.36-9.58.79C260.73,514.07,304.61,514.28,285.17,535.23Zm-5.09,3.4c-1.56,4.61-6.85,9.56-3.44,13.58C284,553,286.28,544.31,280.08,538.63Zm-1-6.65,1.53.36,4.4-7.27-1.24-1.43C278.38,524.9,278.61,527.16,279.1,532Z"/><path d="M517.28,179.65c.93-6.1-.65-11.42,4.09-15.45.74,1.37,2.19,2.8,2.09,4.11-1.75,9.4.49,25.54-5.58,32.51-4-5-1.78-10-1.52-16.29l-6.9.8c-1.21,5.61.41,11.95-4.31,15.85-.81-1.36-2.4-2.8-2.28-4.09,1.8-8.53.27-27.73,6.18-33,3.12,4.9,1,10,.79,15.6Z"/><path d="M418.38,202.16c1.21-12.09,2.7-21.64,3.55-32.13-2-5.4,1.34-5.92,5.24-6.08C448.87,164,442.38,201.6,418.38,202.16Zm5.95-6.38c12.65-3.41,14.09-33.38,3-25.31C426.15,178.82,425.29,187.21,424.33,195.78Z"/><path d="M203.37,175.2c-1,7.36-2.55,15.2-6.09,21.62a8.73,8.73,0,0,1-15.49-2.09C175.2,180.09,191.9,149.55,203.37,175.2Zm-16.63,1.52c.8,6.14-3.54,15.64,2.91,19.63,6,.4,6.87-10.88,9.37-14.47Zm12.88-1.95-5.57-5.54c-3.38,3.75-1.49,5.54,2,7.84C196.35,177.3,197.74,176,199.62,174.77Z"/><path d="M175.08,474.21c3-9.69,9.89-31,21.78-16.25,12.25,20.72-16.43,52.68-21,16.8Zm5.9,1.23.67.33c2.81,28.72,23.07-11.54,9.22-17.83C183.22,459.2,183.72,469.7,181,475.44Z"/><path d="M356.09,555.77c6.44-3,10.84-6.76,12.12-13.64-16.26,5.28-17.61-16.94-5.72-22.32C384.84,514.68,375.05,566.75,356.09,555.77Zm14.2-24.31c-1.62-2.53-3.13-7.09-4.87-7.18-4.12-.21-5,4-5.32,7.59C357.91,540.77,369,540.4,370.29,531.46Z"/><path d="M549.52,170.48c-1.15,7-1.93,14.16-3.56,21.09-3.13,14.82-19.69,12.46-18.45-2.65,1.34-7.2-.91-21,5.83-24.85,4.38,9.28-3,20,.37,29.63,9.44,12.14,8.07-26.34,13.08-29.36.68,2,2.54,3.92,2.32,6.08Z"/><path d="M280.79,186.36c2-7.29-.56-17.14,5.92-22.17,6.07,9.9-5.92,22.91,3.55,31.87,9.14-8,2.86-22.46,10.19-31.57,5,7.49.27,18.74-.75,27.2-4.83,16.56-20.45,9.87-18.54-5.27Z"/><path d="M439.33,541.05c2.16-10.78,9.88-30.64,21.83-15.22C471.84,545.74,445.19,576.8,439.33,541.05Zm20.57-5.62-.67-.37c-4.41-27.25-22,11.31-8.75,17.32C457.21,551,457.07,540.66,459.9,535.43Z"/><path d="M707.74,418.44c6.68-2.88,11.14-6.51,12.08-12-3.69-.86-7.42-.94-10.28-2.57-7.69-4.13-1.53-24.65,9.14-20.82C734.69,388.23,726,427.17,707.74,418.44Zm13.35-24.07c.27-2.78-2.53-5-3.87-7.25-2.09,2.42-5.91,4.07-5.45,7.78C710.08,403.3,721.86,403.45,721.09,394.37Z"/><path d="M729,454.31c-6.53,2.82-10.36,7.07-11.7,13.29,7.21.72,11.28-.46,12.59,5.55,1.55,6.2-1.74,13.93-6.91,16.23C700,496.38,711.54,442,729,454.31Zm-2.12,22.14c-2.81-2.08-4.43-4.25-6-4.23-8.2.27-4.6,8.8-1.21,12.94Z"/><path d="M707.48,268.36c13.69-4.21,15.74,11.61,7.63,19.07-4.62,4.35-11.06,2.94-13.5-2.76-4.45-9,2.59-36.85,15.94-31.21C713,259.58,708.7,260,707.48,268.36Zm8.8,8.28c-2.15-2-3.4-4.13-4.65-4.12-8.43,0-5.77,7.91-2,12.42C711.65,282.42,713.66,279.9,716.28,276.64Z"/><path d="M694.86,484.8c5.11-.13,8.78-1.9,12,2.37-3.82,3.75-9.62,2.59-14.53,3.37-16.39.46,16.05-23.85,7.05-33-8.1,2.16-4.63,4.9-9.71,9-.69-.83-2.12-2-1.93-2.44,1.37-3.23,2.4-7,4.83-9.26,6.45-6.18,15.58,1.71,13.73,9.2C703.61,471.55,699.73,478.07,694.86,484.8Z"/><path d="M181.36,319.1c-6.76,2.59-10.39,7.22-11.75,13.62,7.2,0,12.32-.06,12.6,7.12.69,7.42-3.84,14-9.89,14.44C153.07,355.4,165.18,307.74,181.36,319.1Zm-14,25,4.9,5.64c1.62-2.83,3.63-5.53,4.63-8.57C175.27,334.41,167.63,337,167.34,344.11Z"/><path d="M256.42,484.92c4.92.1,8.68-1.3,11.74,2.84-2.75,3.22-15.73,4.56-18.83,2.07-2.65-9.05,18.12-20.89,11.6-31.77-7.56,1.69-5.29,3.88-9.71,8.75C241.56,448.12,288.39,444,256.42,484.92Z"/><path d="M362.42,484.86c4.66-.24,7.69-.48,11.15,2.45-3.92,4.05-9.66,3.05-14.79,3.52-15.58-.08,16.33-23.22,7.64-33-2.3,1.41-6.06,1.46-6.89,4.39-.7,1.88.3,5.7-3.5,4-1-.44-1.34-4.44-.68-6.35,3.89-10.95,22.2-7.79,17.61,5.52C370.44,472.55,366.76,478.48,362.42,484.86Z"/><path d="M115.47,186.33c1.64-6.89-.89-14.94,3.7-20.73,2.77,5.2-.45,27.53-2.5,33.79-6.25-6.16-5.6-15.58-11.18-23.47l-2.84,23.86-2.06.27c-.38-1.72-1.22-3.49-1.06-5.16,1.58-9.59.72-20.13,4.32-29.14,6.14,4.56,6.42,14,9.79,20.63Z"/><path d="M255.41,551.78c5.23-.26,8.16-1.5,11.67,2.09-4,4-10.12,2.9-15.34,3.73-14.52-.06,16.09-23.39,8.43-33-8.74,3.3-4.65,4.2-10,9.13-.66-1.19-2.18-2.81-1.84-3.49,1.57-3.08,3.12-6.59,5.7-8.64,6.7-5.78,14.34,3.12,12.52,9.92C263.79,538.94,260.12,545,255.41,551.78Z"/><path d="M339.57,484.91c5,.19,8.74-1.41,11.76,2.79-3.68,4-9.59,2.6-14.49,3.29-12.13.07,3.15-14.7,5.08-19.21,3-4,7.66-17.58-2.08-12.6-2.07,1.88-4.71,12.12-7.64,5.54,1.61-13.92,17.85-16.34,18.57-1.45A66.19,66.19,0,0,1,339.57,484.91Z"/><path d="M162.26,484.44c3.87,2,9.7-2.65,12,4.73-44.3,7.95-.95-13.41-7-31.37-7.4.34-5.65,4.48-9.71,8.68-.86-.83-2.61-2-2.44-2.45,1.07-3,2-6.41,4.06-8.58,5.2-6.18,15.06-.4,14.28,6.62A68,68,0,0,1,162.26,484.44Z"/><path d="M600.28,466.57c-11.65-17.17,37.89-25.58,5.28,17.73,3.86,2.22,10.06-3.38,12,4.52-45.55,8.78,1.09-14.29-7.42-31.61-4.23,1.76-7.8,3.4-8.12,8.54Z"/><path d="M340,551.85c4.93-.25,8.34-1.74,11.55,2.21-5.28,3.83-12.79,3.86-18.93,2.26.48-11.75,17.62-19.21,12.15-31.62-8.05,1.33-5.37,4.45-10.17,9.15C324.26,516.55,372.05,508.76,340,551.85Z"/><path d="M162.54,551.42c4.74.19,8.43-1.28,11.64,2.34-1,.81-1.88,2.15-3,2.32-32.22,6.57-8.59-9.9-2.91-24.72,3.74-7.79-3.31-8.32-7.77-2.48-1.34,1.28.13,5.69-3.68,3.94-1-.47-1.22-4.52-.53-6.47,3.81-10.74,22.31-6.84,17.12,5.86A90.47,90.47,0,0,1,162.54,551.42Z"/><path d="M627.57,466.58c20.51-.37,12.47,27.12-2.9,23.45-2.58-.59-5.59-1.35-3.18-5.19,12.77,3.8,18.59-14.7,6.34-13.53-6.9,1.08-6.9,1.08-6.06-5.87.91-10.81,2.49-15.75,14.72-13.26.93.15,1.74,1.15,2.61,1.75C634.46,461.75,625.51,452.13,627.57,466.58Z"/><path d="M722.46,334.11c16.17,22.66-22.71,26.1-14.8,13.22,11.13,7.61,19.07-7.5,8.38-10.33-1.18-.18-2.17-1.59-3.25-2.44,4.47-5.32,6.32-2.65,6.6-10.92-1.92.38-3.87.67-5.74,1.2-.82,1.81-2.7,2.28-4.6,2.74C705.9,312.74,734.67,314.9,722.46,334.11Z"/><path d="M190,399.21c17.07,17.8-19,30-13.93,13.92,8.77,6.49,19.29-7.08,7.88-11.05-1.23-.33-2.21-1.58-3.3-2.41,4-4.14,8.5-4.18,6.71-11.1-7.55-.4-6.81,7.07-10.47,3.25C179.26,375,202.27,385.42,190,399.21Z"/><path d="M433.31,536.42c16.39,19.42-20.46,28.5-13.84,13.58,8.25,6.61,18-5.72,7.72-10.51a18.3,18.3,0,0,1-3.32-2.33c3.88-4.11,8-4.86,6.66-11.45-8-.32-7.12,7.13-10.81,3.24C422.19,512.59,444.86,521.72,433.31,536.42Z"/><path d="M184.13,533.55c17.35-.09,14.81,20.17,2.4,23.07-3.4.3-8,.63-9.19-3.57,1-.4,2.09-1.22,3.08-1.13,10.23,2.62,16.27-15.43,3.9-13.57-6.17,1.52-6.61,1.13-5.76-5.18,1.44-14.4,1-13.43,15.09-13.72,3.84.87,1.55,5.1-1.67,4.65C184.51,525,184.51,525,184.13,533.55Z"/><path d="M401.11,195c5.35-.46,9.36-3.26,13.11,1-3.19,4.88-10,3.47-15.09,4.19-1.19,0-3.5-2.24-3.41-3.3.84-10.1,2.1-20.16,3.24-30.29,6.17.21,12.83-3.76,17.44.83-5.89,7.37-14.53-2.33-13.22,11.5l7.06,3.07-8.12,4.7C401.91,188.4,401.56,191.31,401.11,195Z"/><path d="M312.63,179.9c2.09.68,6.72,1.28,6.9,2.15.27,4.08-3.69,1.63-5.44,2.85-3.79,2.24-2.84,6.07-3.41,10.16,4.62-.15,9.19-2.72,12.66,1.15-3.14,4.59-9.29,3.11-14.07,4.48-2.87.51-4.22-.76-4-3.48,1-9.72,2-19.54,3.09-29.2,4.7-4,11.32-1.4,17-1.94-.35,3.54-1.58,4.39-5.05,4.15C312.26,170.89,312.26,170.89,312.63,179.9Z"/><path d="M274.68,398.47h5.24c1.19-5.13-.66-11.43,4.11-14.74.69,1.07,2,2.17,2,3.2-1.45,8.66.54,28.22-4.17,34.18-5.43-4-1.87-10.57-2.36-16.75H266.63c2.55-7.27,4.78-13.75,7.19-20.16C281.09,380.26,275.63,395.28,274.68,398.47Z"/><path d="M75,184.56c1.34-3.71.15-14.94,5-19.72,4.32,8.74-6.68,25.57,3,31.46,8.4-.57,6.1-25.79,11.15-31.36,4.07,5.42-.77,18.25-1.26,25.1C88.67,206,73.35,204.3,75,184.56Z"/><path d="M87.48,488.89C93.36,485,99.14,482.1,99,474.5c-4.17-.24-10.07,2.16-11.5-2.86C86,465.21,86,450.83,96.24,453.21,113,456.32,103.91,495.29,87.48,488.89Zm12.74-23.65c1.19-9.73-7.51-12.95-10-2.57C86.68,472.14,99.56,475.58,100.22,465.24Z"/><path d="M718.51,201.52c-1.88-3.82-2.8-8-6-9.75-6.7-1.84-7.81,4.11-9.74,9.25l-2.1-.49c.91-11.85,6.59-22.58,10.23-33.76.92-2.5,3.94-2.41,4.66.06C715.76,174.14,722,197.41,718.51,201.52Zm-10.79-14.15,1.14,1.39c1.75-.49,5-.87,5-1.48a110,110,0,0,0-.26-12.17l-1.93-.12Z"/><path d="M504.46,137.22c6,4.55,12.71,3.6,20.3,1.12-10.77,8.48-17.12-.3-27.17.14-25.08,6.4-49.69-4.2-74.15-8.63-27.37-7.51-34,13.18-16.3,11.56-10,6.84-18.44-9.87-1.36-14,23.42-.59,46.05,8.11,69.13,11,6.7,1,13.84-.62,20.77-1.28,3.12-.29,4.54-1.91,4.83-5.56.24-3,2.2-6.18,4.31-8.42,1-1.09,4.13-.21,6.3-.22C512.72,129.47,508.56,132.6,504.46,137.22ZM501,132.55l2.24,1.94c2.39-3,9.11-6,6.43-10.48C504.42,121.67,503.33,129.45,501,132.55Z"/><path d="M597.61,180.17c3.53-.58,6-.88,8.46,1.84-.8.83-1.46,2.12-2.43,2.42-13.39,2.59-4.24,9.94-10.9,17.17-5.6-2.75.27-26.1,0-33.1,2.65-4.53,10.28-2.41,14.85-3.26,1.12,0,2.26,1.26,3.39,1.94C604.51,174.71,595.72,164.73,597.61,180.17Z"/><path d="M487,170.54c-7.32-.49-7.32-.49-7.49-5.21,7.52.52,15.14-3.53,22.53,0,.05.67.11,1.33.17,2-5.07,2.52-10.17.1-10,7.67-1.55,8.06.88,21.67-5.46,27.13C481.39,194.53,487.84,179.92,487,170.54Z"/><path d="M265.43,171.92c-3.32-1.86-7.37-3.17-7.31-4.27.22-4.21,4.26-2.21,6.67-2.68,5.08-.61,10.7-2.56,15,1.13-2.53,2.46-4.68,3.18-8.43,3.4q-1.57,14-3.14,28c-.23,2.11.05,5-3.12,4.23C259.75,197.63,265.82,177.92,265.43,171.92Z"/><path d="M683.93,174.5c3.35,5.84,7.33,8.93,11.22,13.83,5,7.38-2.56,14.14-10.1,12.18-4.3-.65-7.42-7.22-5.21-10.85,5.11.49.38,4.57,10.12,7.28,8.29-12.4-16.16-14.85-7.52-27.68,4.29-6.87,11.92-4.23,14.25,2.67.31.54-1,2-1.59,3-2.05-2.1-4.2-4.11-6.33-6.13Z"/><path d="M179.37,133.35c-2.12,3.51-3.88,5.71-4.78,8.22a3.79,3.79,0,0,0,5.63,4.21c9.72-4.59,8.43-24-5.38-21.2-17.3,3.62-33,15.72-51.33,10.51C103.9,130.56,89.79,108.93,97,90.36c-4.3,18.12,9.14,44,35.9,44.16,14.59.3,26.53-8.8,40.42-11.53,14.08-3.15,19.71,13.73,10.48,22.37C173.35,154.82,167.92,139.06,179.37,133.35Z"/><path d="M67.35,531.34c-8.31-13.87,20.2-16.87,15.28-1.85a111.08,111.08,0,0,1-11.45,20.73l11.25,1.08-.06,2c-43,9,5.53-14.89-6-30.77C71.87,524.28,68,525.93,67.35,531.34Z"/><path d="M270.43,323.1c-5.21,0-8.65,1-12.08-2.89,4.22-3.31,9.85-2.1,14.87-2.84,3.8-.28,4.74,1.46,3.54,4.9-4,8.28-7,28.44-13.76,32.79-.74-1.4-2.4-3.08-2.08-4.16C263.9,341.39,266.77,332.47,270.43,323.1Z"/><path d="M281.3,465.55c-2.49,2.23-4,3.79-6.58,2.08-2-2.06,8.1-15.73,10.68-14,4.58,8.39-4.08,24.3,1.66,32.26,5.92,6-9.59,6.11-11.9,3.09C281.68,482.61,279.82,474.56,281.3,465.55Z"/><path d="M356.35,264.87c-2.72,2.85-8.23,3.16-6-1.5,3-3.39,5.21-10.65,10.08-11,5.52,4-4.56,31.78,2.38,32.5.62.17,1.17,1.95,1.07,2.91-1.52,2.6-18.28,3.09-11.66-2.71C357.55,279.94,354.89,272.41,356.35,264.87Z"/><path d="M84.76,331.72c23.25,4.12,6.36,30.57-6.31,19C82,349,87.12,348.76,90,346.3c3.72-4.71,1.67-10.5-5.17-10.06-9,1.51-4.37-5.85-3.93-11.22.64-9.51,7.86-6.63,14.63-7.52.15.7.31,1.39.46,2.08C88.28,323.43,83.35,320.6,84.76,331.72Z"/><path d="M87.64,551.64c10.31-1.74,14.22-4.56,13.51-9.84-1.07-8-7.31-5.17-12.78-5.16,2.4-17.44-3.49-17.84,16.08-18.08l.23,2c-8.51,3.42-13.48.06-11.12,12.11C116.09,531.21,101.64,565.42,87.64,551.64Z"/><path d="M54.14,188.24c1.85,4.5,3.53,11.65,9.12,8.79,1.46-.89,2.68-4.73,1.94-6.14-3.87-6.73-16.54-14.81-8.46-22.76,5.84-4,10.64-3.7,13,4.14.23.46-1.05,1.66-1.63,2.53-3.51-1.8-1-8.26-6.69-6-6.61,3.67-2.72,9.5,1.57,13.16,4.11,5.44,9.15,13.13,1.41,17.84-7.37,3-11.22-2.52-12.62-9.34C51.69,190.17,52.85,189.43,54.14,188.24Z"/><path d="M256.33,99.84c10.52,16-16.56,17-3.82.5-9.76-4.2-17.13,3.32-17.84,19-4.34-11.42,5-23.81,16.68-21.83,1.67.32,3.86.68,5.11-.1,25.3-17.14,61.21,28.47,34.14,48.52C312.29,124,283,82.69,256.33,99.84Zm-1.85,1.71c-3.06,2.52-5.09,5.22-2.77,9C257,112.54,259,104.49,254.48,101.55Z"/><path d="M211.84,64.92c-18.2-2.66-60.81,4-70.13-12.79,19.75,16.69,46.58,8.41,70.11,11.57a9.86,9.86,0,0,0,5.24-2c10.21-7,28.9-10.39,36,2.22-9-9.17-26.26-7.44-35.32-.75.87,3.91,1.65,6.91,2,10-5,3.77-6.34-2.71-8.74-6.07C211.31,66.33,211.58,65.62,211.84,64.92Zm8.36,5.64-4.55-3.88c-3.18,2.48-1.56,4.17.92,6C217,72.93,218.39,71.65,220.2,70.56Z"/><path d="M697.75,396.25c-2.5,3.28-8.1,4.71-6.62-.46,2.43-3,9.27-18.58,12.12-8.91,0,4-.49,8-.68,11.95-1,7.12,1.61,15.4-3.33,21.31C693.7,413.25,698,405.24,697.75,396.25Z"/><path d="M698.43,330.64c-2.39,3.29-8.44,5.31-6.78-.24,2-3,10.17-19,12.3-8.89-1.42,8.08.95,28.71-4.28,33.45C694.16,350.94,698.84,337.58,698.43,330.64Z"/><path d="M166.14,397.85l-7.8,1.37c3.63-4.56,10.44-23.3,13.69-12.06-1.4,9.37,1.11,25.87-3.81,33.16C162.28,416.05,167.3,404.45,166.14,397.85Z"/><path d="M259.25,396.32c-1.94,1.64-2.82,2.73-4,3.22a2.32,2.32,0,0,1-2.95-3.12c3-3.4,5.66-11.91,10.28-12.4,4.05,3.52-.24,27,.32,34-.05.87-1.49,1.65-2.29,2.48C255.6,416.1,259.49,403.28,259.25,396.32Z"/><path d="M731.38,170.44c-2.11-1.67-4.45-1.83-6.82-2.91,6.47-2.66,13.74-4.1,20.57-1.74-.61,1.15-.7,1.63-.91,1.69-8,2.21-8,2.2-9,10.9-.86,7.56-1.6,15.13-2.41,22.89-3.66.28-4.2-1.36-3.86-4.13C729.79,188.36,731.44,179.2,731.38,170.44Z"/><path d="M700.23,122.8c18.72-3.2,7.91-4.75,17.54-14.13.34-.28,2.74.86,2.74,1.36,1.22,10.44-10.64,11.8-17.94,13.83a18.18,18.18,0,0,0-6.37,3.1c-8.68,7.51-21.67,10.6-31.51,3.86,11.75,4.08,22.16,2.78,31.2-6.39C676.28,111,709,96.11,700.23,122.8Zm1.92-8.31c-2.69-2.23-4.35-4.73-6-4.74-7.69,1.06-4.68,8.62.06,11.81Z"/><path d="M97.86,419l-10.13.54c7.12-7.9,3.4-16.82,6.25-25.47l-5.71,2.42c.45-3.92,6.44-17.81,9.41-9.09C97.76,398.46,94.16,407.9,97.86,419Z"/><path d="M194,89.39c7.46-1,9.37-5,8.47-11.7,3.36,4.43,6.91,7,12.67,3.55-4,5.26-4.8,9.83.79,14.78-7.5-4.15-11-.47-13.83,5.69C201.25,96.2,203.17,89.72,194,89.39Z"/><path d="M677.26,207.69h74.33c0,.43,0,.86,0,1.28H677.21C677.23,208.55,677.24,208.12,677.26,207.69Z"/><path d="M77.23,396.26l-5.79,2.84-.82-1.41c2.57-2.63,10.11-20.24,12.12-9.6-1.47,10.3,1.17,22.36-3.79,31.6C75.31,412.66,78,403.94,77.23,396.26Z"/><path d="M46.53,207.34h69.83l0,1.31H46.67Z"/><path d="M76.3,465.33l-5.78,1.77c2-5.21,4.75-10.49,9.54-13.58.43,1.09,1.27,2.2,1.23,3.28-1.26,10.49,1,22.19-2.87,32C73.89,482.25,77.28,472.85,76.3,465.33Z"/><path d="M637.42,198.75c2.06-10.23-.07-29.53,6.23-34.76,4.59,8.27-.64,23.62-.72,33.37-.17,1.4-2.07,2.59-3.17,3.88C638.73,200.13,637.69,199,637.42,198.75Z"/><path d="M552.38,128.77c30.89,2.18,60.62,8.61,90.55-2.17-27.67,13.47-59.73,5.25-89.21,4.08C553.53,130.67,553.37,130.22,552.38,128.77Z"/><path d="M204,427l-58.51,2.38C150.29,425.54,185.1,424.1,204,427Z"/><path d="M145.19,498.4c20.37-2.6,40.86-2.66,61.36-2.61l.06,1.3-61.28,2.85Z"/><path d="M381.72,499.54H325.14c18.75-3.23,37.67-1.52,56.53-2.18C381.68,498.09,381.7,498.81,381.72,499.54Z"/><path d="M75.74,66.61,80,70.35,85.48,68c-2.08,4.24-2.37,7.66,1.38,10.79l-5.2-.43-2.47,4-6.75-6.25C76.11,74.57,76.24,71.24,75.74,66.61Z"/><path d="M723.85,428l-46.91,2.79c0-.57-.08-1.14-.13-1.71,15.65-1,31.21-3.14,47-2.38Z"/><path d="M706,76.3l8.42,1.57-1.27,3.57L717,86H711.3c-1.07,1.69-2.1,3.32-3.66,5.81-.71-2.55-1.18-4.2-1.74-6.21l-3.5-.81Z"/><path d="M108.34,498H71.8v-1.6a156.93,156.93,0,0,1,36.63.14Z"/><path d="M99.3,565.27l-42,2.07C61.41,563.77,94.32,562.29,99.3,565.27Z"/><path d="M449.63,499.75l-38.14,2.62C414.85,499.24,441.76,497,449.63,499.75Z"/><path d="M680.11,498.22h40.55l0,.45-40.53,1.55Z"/><path d="M274.11,496.73l-37.5,2.65C240.34,496.1,261.4,494.34,274.11,496.73Z"/><path d="M626.5,2.75l7.94,2.11-1.76,3.59c.73,1.38,1.47,2.76,1.83,3.43l-7.61,2.79-4.12-6C624.84,7.48,628.84,6.87,626.5,2.75Z"/><path d="M625.45,498.45l-34.85,3.41-.18-2.41,35-2.44Z"/><path d="M83.2,427.16l-24.7,1.62-.16-2,24.51-1.9Z"/><path d="M237.63,140.7c9.7-5.28,19.73-8.43,30.85-4.54C257.69,134.41,247.49,136.44,237.63,140.7Z"/><path d="M561.58,500.1H540.73v-1.28h20.91Z"/><path d="M522.19,500.46,502,502.26c-.06-.65-.13-1.31-.2-2l20.29-1.92C522.1,499.08,522.14,499.77,522.19,500.46Z"/><path d="M237.33,427.55l19.2-1.6c.06.58.11,1.15.17,1.73l-19.14,2.05Z"/><path d="M629.71,497.56h19.74l0,.78H629.83Z"/><path d="M570.14,139.64l-23.37-1.55A35,35,0,0,1,570.14,139.64Z"/><path d="M295,426.31l-18.08.81,0-1.37h18.25Z"/><path d="M721.26,361.36l14.43-1.15c0,.5.09,1,.14,1.51l-14.24,1.1Z"/><path d="M112.49,427h-11.2l0-.9h11.31Z"/><path d="M669.11,348.09c14.71,29.87-15.92,58-39.89,71.43,7.76-5.59,8.41-12,2.42-21.39C650,374.7,607.74,379,621.69,398c-4.07,8.5-10.19,25,5.16,22.27-9.57,11.75-26.23,5.52-39,9.3l.14,1.77,16.62-1.13c.35.47.69,1,1,1.43-51.14,14.62-103.38,21.2-156.44,21.58-8.61-4.48-18.89-3.49-28.31-5.4-21.27-4.11-42.45-8.71-62.86-16.1.1-.7.21-1.39.31-2.09l24.6-2.09,0-.51c-14.48-1.34-30.25,3.79-43-5.06-42.74-19.5-25.63-69.62,6.46-90l1.51.59c-18.26,37.74,28.2,21.42,9.81,1,2.75-4.89,3-10.95,7.67-13.75A229.07,229.07,0,0,1,425.62,299c68-11.49,144.68-15.82,206.6,19.28-6.07.73-8.59,6.52-11,11.42l5,2.12c-1.19,5.91,1.17,13.89-3.91,18.44-.61.8-1.72,1.87-1.53,2.48,2.09,3.47,7.49,1.37,10.82,1.28.55-.1.76-2.1,1.13-3.23-4.28-1.34-2.51-4.75-2.36-7.42.47-8.41,1.13-16.81,1.72-25.21,19.64,8.44,24.46,13.21,37.14,30.13Zm-214.25,36c-14.16-4.24-19.87,20.23-15.66,30.57,2.49,7.65,10.21,3,9.5,12.56l-31.89,2,.1,1.35c10.21.44,20.34-1.11,30.51-1.42,17.89,2.84,36.16-1.29,54.22-1.58,5.85-.32,7.38-1.34,7.48-6.66.11-6-2.22-9-7.46-9-10.79.21-20.18,1.14-31.27,2.14,10.54-15.86,21.49-30.93,32.44-46.45,5.14-4.87,13.77-2.83,20.32-4l-.08-1.29h-17.6c19.44-52-36.24-62.76-52.51-23.89,1.08-23.52-15.43-27.87-24.26-6.95a148.54,148.54,0,0,0,2.17,15.11c3.3,13.08,16.25,8.82,20.26-1.43,1.07,2.87,1.31,6.62,3.24,8,6.09,3.15,11.92,4.55,12.52-4.91,1.06-9.94,7.73-17.94,16.6-19.32,5.81-.91,9.84,1.36,10.45,7.15,1.36,27.58-21.28,47.62-36,69.41-2.14-8.18-7.58-7.61-13.37-6.25l-.93-1.36ZM498.54,429c.07.57.14,1.13.22,1.7a581.82,581.82,0,0,0,81.37-3.74c1.56-.14,4.18-1.47,4.27-2.44.94-6.33.12-13.21-8-12.58-9.69.33-19.37,1.22-30,2,15.23-20,32.23-39.5,38.35-64.35,6.7-25.56-16-40.71-37.69-31.71-7.63.95-13.57-2-17.11,6.82-4.72,9.69-6.7,32.11,9,30.91,11-2.18-1.15-22.35,21-26.64,11-2.42,10.83,11.3,9.46,18.5-4.29,17.9-16.45,31.36-26.58,46,.15-4.15,5.56-11.82-2.12-10.94-4.53.69-9.69-.72-13.46,2.4,2.82,4.2,6.87,2.37,11.59,2.65-3.72,8.57-6.39,16.54-10.55,23.64-3.06,5.22-5.83,9.87-2.89,16.08ZM360,388.37c4.31-.84,8.86.68,11.07-3.64-3.56-3.85-9.2-1.28-13.8-1.31-4.72,1.63-2.76,14.54-4.12,19.45a21.11,21.11,0,0,0,4.17,0c15.08-3.34,8.71,17.08-4.7,12.48-1.47,11.06,17.24,4.26,18.08-3.5,2.29-7.77-.18-11-11.74-15.17C359.33,394,359.67,391.23,360,388.37Zm69.22,7.77c1.13,8.07-4.15,18.41,2,24.22,5.05-8.92,2.38-22.72,3.88-33C432.2,376.08,424.79,395,422,398,424.88,401.74,426.73,398.9,429.25,396.14Zm-86.84.18,1.18,1c.55,7.1-3.93,18.13,1.28,23.41.91-1.1,2.52-2.14,2.61-3.3-.36-9,4.29-26.79-.3-33.66-4.87,2.3-9.73,9.86-10.25,15.17C339.49,399.08,341.66,399.37,342.41,396.32Zm175.88.79c1.05,7.9-4.11,16.73,2,23,5-9.7,2.4-22,3.85-32.7-2.59-11.05-9.37,5.14-12,8.56C510.21,400.58,515.94,399.84,518.29,397.11Zm94.55-66.62c.46,8.22-3.89,18.28,1.16,24,1-1,2.67-2,2.75-3.14.73-10.1,1.22-20.22,1.64-30.34,0-.93-.77-2.65-1.31-2.7-2.77-1.63-12.53,13-10.4,14.8C609.24,334.42,610.56,332.74,612.84,330.49Zm-94.66,1c1.34,8-3.85,16.82,2,23,2.85-2.78,2.57-6.32,2.62-10-.77-4,5.24-32.15-3.34-25.74-2.24,4.36-8.11,9.26-7.73,14.17C514.22,334.84,515.66,333.52,518.18,331.52Zm90.32,64.62c0,3.87-4.24,31.34,3.46,22q1.26-15.93,2.11-31.88a2.59,2.59,0,0,0-4.6-1.6c-2.31,4.32-8.19,9.13-7.63,14.13C605,399.87,605.8,399.07,608.5,396.14Zm37.46-34c-.05-.59-.1-1.18-.14-1.77-17.47,1.41-35.08.55-52.5,2.74l.12,2Zm-223.23.41,0,.8h14.57l-.08-.8Z" style="fill:#fff"/><path d="M653.14,328.6c-6-3.19-9.61-8.83-15.38-13.75,19.91,7.26,40.26,20.09,47.81,40.83,3.36,8.42-3.63,4.47-7.18,8.28,1.3.24,2.67.91,3.86.66,14-2.46-1.78,27.81-6.41,31.42-4.74,7.63-41.24,33.41-48.6,29.63,24-14.27,65.24-47.45,41.87-77.58C670.56,342.59,660.34,329.93,653.14,328.6Z" style="fill:#fff"/><path d="M626.85,420.27c-15.35,2.76-9.23-13.76-5.16-22.27-14-19,28.28-23.28,9.95.13C638.18,407.83,636.62,416.67,626.85,420.27Zm-.66-18.39c-1.4,4.86-6.68,9.6-2.67,13.74C630.36,415.73,632.42,407.93,626.19,401.88ZM631.55,388l-1.26-1.64c-4.71,1.65-6.26,2.66-4.85,7.92l1.55.29Z"/><path d="M362.55,442.43c-4.35-4.46-9.65-7.22-14.71-10.76a360.3,360.3,0,0,0,78.08,20.26l0,1.51c-14.59,2.51-29.16-4.6-43.58-6.82-5.89-.47-15-6.68-20-4.31Z" style="fill:#fff"/><path d="M469.87,461.9c-.94-4-4.57-2.29-6.92-3.28-1.66-.69-3.31-1.4-5-2.1.15-.56.31-1.11.46-1.67H511.1l.34,1.11c-13.25,4.93-29.16-1.65-41.65,5.86Z" style="fill:#fff"/><path d="M358,343.62,351.38,350c-5.56-4.55-.82-7.33,1.66-11.86C354.44,339.62,355.83,341.16,358,343.62Z" style="fill:#fff"/><path d="M544.42,456.86c-1.56,4.55.88,14.65-6.5,11.73C539.18,458.1,539.72,457,544.42,456.86Z" style="fill:#fff"/><path d="M432.22,452.73l13.55,1.77C441.12,458,436.85,457.54,432.22,452.73Z" style="fill:#fff"/><path d="M532.75,454c-2.62.22-6.49,2.4-8.45-.11-.72-5.32,5.68-2.34,8.27-1.09Z" style="fill:#fff"/><path d="M106.84,51.92c-6.36-6.91-9.68-24.61,1.88-26.22C121.05,29.08,113,45.4,106.84,51.92Z" style="fill:#fff"/><path d="M343.59,128.06c-1.36-6.48,1.64-12.16,7.66-11.14C352.57,122.66,347.48,123.8,343.59,128.06Z" style="fill:#fff"/><path d="M606.89,253.52q-.3,4.54-.58,9.08l-1.69-.07.53-9Z" style="fill:#fff"/><path d="M533.84,23.28c-4.05-1.35-5.48-8.68-.16-7.81C536.23,17.83,536.06,20.46,533.84,23.28Z" style="fill:#fff"/><path d="M620,179.74c.38-3.4-.25-9.45,2.3-11.71,11.55.52,4.75,8.95-.86,12.76Z" style="fill:#fff"/><path d="M280.08,538.63c6.2,5.67,3.92,14.41-3.44,13.58C273.23,548.18,278.51,543.25,280.08,538.63Z" style="fill:#fff"/><path d="M279.1,532c-.49-4.83-.71-7.08,4.69-8.34l1.24,1.43-4.4,7.27Z" style="fill:#fff"/><path d="M424.33,195.78c1-8.57,1.82-17,3-25.3C438.4,162.39,437,192.35,424.33,195.78Z" style="fill:#fff"/><path d="M186.74,176.72,199,181.88c-2.49,3.59-3.4,14.87-9.37,14.47C183.19,192.36,187.54,182.87,186.74,176.72Z" style="fill:#fff"/><path d="M199.62,174.77c-1.88,1.23-3.27,2.53-3.61,2.3-3.51-2.43-5.36-3.94-2-7.84Z" style="fill:#fff"/><path d="M181,475.44c2.74-5.74,2.24-16.24,9.89-17.5,13.85,6.31-6.41,46.54-9.22,17.83Z" style="fill:#fff"/><path d="M370.29,531.46c-1.25,8.94-12.38,9.31-10.19.4.33-3.55,1.2-7.79,5.32-7.58C367.16,524.37,368.67,528.93,370.29,531.46Z" style="fill:#fff"/><path d="M459.9,535.43c-2.82,5.22-2.7,15.57-9.42,17-13.24-6,4.35-44.57,8.75-17.32Z" style="fill:#fff"/><path d="M721.09,394.37c.76,9.08-11,8.93-9.32.53-.46-3.71,3.36-5.36,5.45-7.78C718.56,389.38,721.36,391.59,721.09,394.37Z" style="fill:#fff"/><path d="M726.91,476.45l-7.23,8.71c-3.4-4.14-7-12.67,1.21-12.94C722.48,472.2,724.1,474.37,726.91,476.45Z" style="fill:#fff"/><path d="M716.28,276.64c-2.62,3.26-4.63,5.78-6.65,8.3-3.77-4.51-6.43-12.39,2-12.42C712.88,272.51,714.13,274.65,716.28,276.64Z" style="fill:#fff"/><path d="M167.34,344.11c.29-7.09,7.93-9.7,9.53-2.93-1,3-3,5.74-4.63,8.57Z" style="fill:#fff"/><path d="M100.22,465.24c-.66,10.34-13.54,6.9-10-2.57C92.72,452.28,101.41,455.51,100.22,465.24Z" style="fill:#fff"/><path d="M707.72,187.37l4-12.38,1.93.12a110,110,0,0,1,.26,12.17c0,.61-3.26,1-5,1.48Z" style="fill:#fff"/><path d="M501,132.55c2.33-3.1,3.43-10.88,8.66-8.54,2.69,4.44-4,7.5-6.42,10.48Z" style="fill:#fff"/><path d="M665.91,11.55c4.54,2.94,2.49,11-2.77,9C660.82,16.77,662.85,14.07,665.91,11.55Z" style="fill:#fff"/><path d="M702.15,114.49l-6,7.07c-4.74-3.2-7.74-10.76-.06-11.81C697.8,109.76,699.46,112.26,702.15,114.49Z" style="fill:#fff"/><path d="M454.86,384.05l-11.23,13.83.93,1.36c5.79-1.36,11.23-1.93,13.37,6.25,14.73-21.78,37.38-41.84,36-69.41-.61-5.79-4.64-8.06-10.45-7.15-8.87,1.38-15.54,9.38-16.6,19.32-.59,9.46-6.46,8.05-12.52,4.91-1.93-1.36-2.17-5.11-3.24-8-4,10.24-17,14.51-20.26,1.43a148.54,148.54,0,0,1-2.17-15.11c8.83-20.92,25.34-16.57,24.26,6.95,16.28-38.89,71.95-28.06,52.51,23.89h17.6l.08,1.29c-6.54,1.13-15.18-.89-20.32,4-11,15.52-21.9,30.59-32.44,46.45,11.09-1,20.49-1.93,31.27-2.14,5.24,0,7.57,3,7.46,9-.1,5.32-1.63,6.34-7.48,6.66-18.06.29-36.33,4.42-54.22,1.58-10.17.31-20.3,1.86-30.51,1.42l-.1-1.35,31.89-2c.78-9.46-7.06-5-9.5-12.56C435,404.28,440.7,379.8,454.86,384.05Zm-20.68-46.11c5.58,27.74,19.16-1.87,12.22-13.31-4.68-6.88-9,3.69-9.7,7.82-.23,1.75,4.27,3,4.46,5.49Zm8.21,71.13,5.12,7c1.78-2.8,4.06-5.43,5.09-8.48C451.75,401.15,443.46,401.69,442.39,409.07Z"/><path d="M498.54,429l26.85-1.76c-2.94-6.21-.17-10.86,2.89-16.08,4.16-7.1,6.83-15.07,10.55-23.64-4.72-.28-8.77,1.55-11.59-2.65,3.77-3.12,8.94-1.71,13.46-2.4,7.68-.87,2.27,6.79,2.12,10.94,10.13-14.61,22.29-28.07,26.58-46,1.37-7.2,1.54-20.92-9.46-18.5-22.21,4.35-10,24.4-21,26.64-19.38,3.15-14.73-43.3,3.79-37.35,24.42-7.37,48,.44,42,31.34-6.12,24.84-23.12,44.32-38.35,64.34,10.62-.75,20.3-1.64,30-2,8.14-.62,9,6.24,8,12.58-.09,1-2.71,2.3-4.27,2.44a581.82,581.82,0,0,1-81.37,3.74C498.68,430.1,498.61,429.54,498.54,429Z"/><path d="M360,388.37c-.36,2.86-.7,5.6-1,8.27,11.56,4.14,14,7.4,11.74,15.17-.84,7.76-19.54,14.56-18.08,3.5,13.42,4.6,19.77-15.82,4.7-12.49a20.21,20.21,0,0,1-4.17.05c1.36-4.9-.59-17.82,4.12-19.45,4.61,0,10.24-2.54,13.8,1.31C368.89,389.05,364.34,387.53,360,388.37Z"/><path d="M632.11,318.13c-.59,8.4-1.25,16.8-1.72,25.21-.15,2.67-1.92,6.08,2.36,7.42-.37,1.13-.58,3.13-1.13,3.22-3.33.1-8.73,2.2-10.82-1.26-.19-.62.92-1.69,1.53-2.49,5.08-4.55,2.72-12.53,3.91-18.44l-5-2.12c2.41-4.9,4.93-10.69,11-11.42Z"/><path d="M429.25,396.14c-2.52,2.76-4.37,5.6-7.24,1.9,2.77-3.06,10.2-22,13.12-10.72-1.5,10.33,1.18,24.1-3.88,33C425.08,414.45,430.4,404.26,429.25,396.14Z"/><path d="M342.41,396.32c-.75,3.05-2.92,2.76-5.48,2.66.52-5.31,5.37-12.87,10.25-15.17,4.59,6.8-.05,24.69.3,33.66-.09,1.16-1.7,2.2-2.61,3.3-5.2-5.26-.73-16.32-1.28-23.41Z"/><path d="M518.29,397.11c-2.35,2.73-8.08,3.47-6.1-1.16,2.59-3.43,9.39-19.61,12-8.56-1.43,10.7,1.14,23-3.84,32.7C514.18,413.84,519.34,405,518.29,397.11Z"/><path d="M612.84,330.49c-2.28,2.25-3.6,3.94-6.16,2.61-1.19-4.68,5-9.55,7.09-13.62,1.63-1.77,4.68-1.69,4.62,1.52-1.35,7.64,1.24,29.89-4.39,33.48C609,348.79,613.29,338.7,612.84,330.49Z"/><path d="M518.18,331.52c-2.52,2-4,3.32-6.45,1.45-.38-4.91,5.49-9.8,7.73-14.17,8.58-6.42,2.57,21.75,3.35,25.74-.06,3.65.22,7.19-2.63,10C514.33,348.34,519.52,339.48,518.18,331.52Z"/><path d="M608.5,396.14c-2.69,2.93-3.52,3.73-6.66,2.61-.56-5,5.32-9.8,7.63-14.13a2.59,2.59,0,0,1,4.6,1.6q-.86,15.94-2.11,31.88C604.26,427.48,608.51,400,608.5,396.14Z"/><path d="M646,362.13l-52.52,3-.12-2c17.42-2.19,35-1.33,52.5-2.74C645.86,361,645.91,361.54,646,362.13Z"/><path d="M653.14,328.6c7.35,1.56,16.92,13.25,16.11,19.66Z"/><path d="M422.73,362.54h14.52l.08.8H422.76Z"/><path d="M626.19,401.88c6.23,6.05,4.17,13.85-2.67,13.74C619.51,411.48,624.79,406.74,626.19,401.88Z" style="fill:#fff"/><path d="M631.55,388,627,394.53l-1.55-.29c-1.41-5.26.14-6.27,4.85-7.92Z" style="fill:#fff"/><path d="M434.18,337.94h7c-.19-2.51-4.69-3.74-4.46-5.49.65-4.13,5-14.7,9.7-7.82C453.34,336.09,439.76,365.67,434.18,337.94Z" style="fill:#fff"/><path d="M442.39,409.07c1.07-7.38,9.36-7.91,10.21-1.49-1,3.05-3.31,5.68-5.09,8.48Z" style="fill:#fff"/></svg>