<svg width="787" height="697" viewBox="0 0 787 697" fill="none" xmlns="http://www.w3.org/2000/svg">
<path d="M734.91 696.89H52.0534C23.3245 696.89 0 673.565 0 644.836V172.848C0 144.119 23.3245 120.794 52.0534 120.794H734.909C763.638 120.794 786.962 144.119 786.962 172.848V644.836C786.962 673.66 763.638 696.889 734.909 696.889L734.91 696.89Z" fill="#FFE5CF"/>
<path d="M786.965 303.598V172.848C786.965 144.119 763.641 120.794 734.912 120.794H52.0534C23.3245 120.794 0 144.119 0 172.848V303.597H786.961L786.965 303.598Z" fill="#F75E5E" fill-opacity="0.79"/>
<path d="M185.174 233.53H177.778C163.177 233.53 151.135 221.583 151.135 206.887V26.6429C151.135 12.0414 163.082 0 177.778 0H185.174C199.775 0 211.817 11.9466 211.817 26.6429V206.981C211.817 221.583 199.775 233.53 185.174 233.53ZM609.28 233.53H601.884C587.283 233.53 575.241 221.583 575.241 206.887V26.6429C575.241 12.0414 587.188 0 601.884 0H609.28C623.881 0 635.923 11.9466 635.923 26.6429V206.981C635.828 221.583 623.881 233.53 609.28 233.53Z" fill="#FF8882"/>
<path d="M577.423 439.087C577.423 381.44 530.679 334.697 473.032 334.697C441.175 334.697 412.635 348.919 393.483 371.39C374.33 348.919 345.791 334.697 313.934 334.697C256.286 334.697 209.543 381.441 209.543 439.087C209.543 469.333 223.481 494.649 243.013 515.698L393.864 660.67L542.154 517.215C560.928 497.683 577.425 470.187 577.425 439.088L577.423 439.087Z" fill="#F75E5E" fill-opacity="0.79"/>
<path d="M319.915 517.307V501.125L353.869 471.398C356.415 469.095 358.581 466.989 360.369 465.08C362.157 463.14 363.521 461.201 364.46 459.261C365.4 457.292 365.869 455.155 365.869 452.852C365.869 450.277 365.309 448.08 364.187 446.261C363.066 444.413 361.521 442.989 359.551 441.989C357.581 440.989 355.324 440.489 352.778 440.489C350.203 440.489 347.945 441.019 346.006 442.08C344.066 443.11 342.551 444.61 341.46 446.58C340.4 448.549 339.869 450.943 339.869 453.761H318.551C318.551 447.428 319.975 441.958 322.824 437.352C325.672 432.746 329.672 429.201 334.824 426.716C340.006 424.201 346.021 422.943 352.869 422.943C359.93 422.943 366.066 424.125 371.278 426.489C376.49 428.852 380.521 432.155 383.369 436.398C386.248 440.61 387.687 445.504 387.687 451.08C387.687 454.625 386.975 458.14 385.551 461.625C384.127 465.11 381.566 468.958 377.869 473.171C374.203 477.383 368.99 482.428 362.233 488.307L351.096 498.58V499.171H388.824V517.307H319.915Z" fill="white"/>
<path d="M401.54 517.307V501.125L435.494 471.398C438.04 469.095 440.206 466.989 441.994 465.08C443.782 463.14 445.146 461.201 446.085 459.261C447.025 457.292 447.494 455.155 447.494 452.852C447.494 450.277 446.934 448.08 445.812 446.261C444.691 444.413 443.146 442.989 441.176 441.989C439.206 440.989 436.949 440.489 434.403 440.489C431.828 440.489 429.57 441.019 427.631 442.08C425.691 443.11 424.176 444.61 423.085 446.58C422.025 448.549 421.494 450.943 421.494 453.761H400.176C400.176 447.428 401.6 441.958 404.449 437.352C407.297 432.746 411.297 429.201 416.449 426.716C421.631 424.201 427.646 422.943 434.494 422.943C441.555 422.943 447.691 424.125 452.903 426.489C458.115 428.852 462.146 432.155 464.994 436.398C467.873 440.61 469.312 445.504 469.312 451.08C469.312 454.625 468.6 458.14 467.176 461.625C465.752 465.11 463.191 468.958 459.494 473.171C455.828 477.383 450.615 482.428 443.858 488.307L432.721 498.58V499.171H470.449V517.307H401.54Z" fill="white"/>
</svg>
