<svg width="3042" height="1425" viewBox="0 0 3042 1425" fill="none" xmlns="http://www.w3.org/2000/svg">
<path d="M3041.14 0H41.1399V1414H3041.14V0Z" fill="url(#paint0_linear_351_7)"/>
<mask id="mask0_351_7" style="mask-type:luminance" maskUnits="userSpaceOnUse" x="0" y="10" width="3000" height="1415">
<path d="M3000 10.29H0V1424.29H3000V10.29Z" fill="white"/>
</mask>
<g mask="url(#mask0_351_7)">
<path d="M3193.44 1424.28C3086.24 1424.37 2980.07 1403.32 2881.02 1362.34C2781.96 1321.36 2691.96 1261.25 2616.15 1185.45C2540.35 1109.64 2480.24 1019.64 2439.26 920.583C2398.28 821.526 2377.23 715.36 2377.32 608.16C2377.43 460.707 2417.51 316.042 2493.28 189.547C2569.05 63.0524 2677.69 -40.5427 2807.64 -110.222C2937.59 -179.902 3084 -213.061 3231.29 -206.173C3378.58 -199.286 3521.25 -152.609 3644.13 -71.1068C3767.01 10.3955 3865.51 123.676 3929.15 256.69C3992.78 389.704 4019.18 537.478 4005.54 684.298C3991.89 831.118 3938.71 971.495 3851.65 1090.5C3764.59 1209.51 3646.91 1302.7 3511.11 1360.16C3410.61 1402.69 3302.57 1424.5 3193.44 1424.28ZM3193.44 -199.72C2747.98 -199.72 2385.57 162.69 2385.57 608.15C2385.57 1053.61 2747.98 1416 3193.44 1416C3638.9 1416 4001.31 1053.59 4001.31 608.13C4001.31 162.67 3638.9 -199.71 3193.44 -199.71V-199.72Z" fill="url(#paint1_linear_351_7)"/>
<path d="M1530.22 852.21C1440.04 852.386 1350.74 834.359 1267.69 799.21C1145.49 747.655 1041.21 661.185 967.937 550.633C894.659 440.081 855.633 310.363 855.75 177.73C855.815 45.1393 894.914 -84.4982 968.17 -195.015C1041.43 -305.531 1145.6 -392.036 1267.69 -443.74C1350.8 -478.721 1440.06 -496.74 1530.22 -496.74C1620.39 -496.74 1709.65 -478.721 1792.76 -443.74C1914.96 -392.18 2019.22 -305.711 2092.5 -195.162C2165.78 -84.6126 2204.81 45.1004 2204.7 177.73C2204.64 310.322 2165.54 439.962 2092.29 550.479C2019.03 660.997 1914.86 747.5 1792.76 799.2C1709.7 834.352 1620.41 852.381 1530.22 852.21ZM1530.22 -489.92C1162.07 -489.92 862.57 -190.41 862.57 177.73C862.57 545.87 1162.07 845.39 1530.22 845.39C1898.37 845.39 2197.88 545.88 2197.88 177.73C2197.88 -190.42 1898.37 -489.92 1530.22 -489.92Z" fill="url(#paint2_linear_351_7)"/>
<path d="M1500 2205.33C1298.34 2205.06 1103.96 2129.9 954.574 1994.43C805.189 1858.96 711.444 1672.84 691.524 1472.16C671.605 1271.48 726.93 1070.56 846.768 908.363C966.607 746.168 1142.42 634.264 1340.09 594.358C1537.77 554.452 1743.22 589.388 1916.59 692.39C2089.97 795.392 2218.91 959.117 2278.4 1151.81C2337.89 1344.5 2323.7 1552.41 2238.56 1735.23C2153.43 1918.04 2003.44 2062.72 1817.67 2141.2C1717.17 2183.73 1609.13 2205.54 1500 2205.33ZM1500 581.33C1054.54 581.34 692.14 943.75 692.14 1389.21C692.14 1834.67 1054.56 2197.08 1500.02 2197.08C1945.48 2197.08 2307.89 1834.68 2307.89 1389.21C2307.89 943.74 1945.46 581.34 1500 581.34V581.33Z" fill="url(#paint3_linear_351_7)"/>
<path d="M2276.83 771C2167.7 771.215 2059.65 749.406 1959.14 706.88C1862.18 665.917 1774.09 606.526 1699.75 532C1625.21 457.662 1565.81 369.558 1524.85 272.58C1482.32 172.084 1460.5 64.0369 1460.71 -45.09C1460.5 -154.217 1482.32 -262.264 1524.85 -362.76C1565.81 -459.738 1625.21 -547.842 1699.75 -622.18C1774.08 -696.72 1862.17 -756.125 1959.14 -797.1C2059.64 -839.627 2167.68 -861.439 2276.81 -861.23C2385.94 -861.441 2493.98 -839.629 2594.48 -797.1C2691.46 -756.136 2779.56 -696.737 2853.9 -622.2C2928.44 -547.859 2987.84 -459.756 3028.8 -362.78C3071.33 -262.283 3093.15 -154.236 3092.93 -45.1099C3093.14 64.0162 3071.33 172.063 3028.8 272.56C2987.84 369.542 2928.45 457.651 2853.92 532C2779.58 606.537 2691.48 665.936 2594.5 706.9C2494 749.419 2385.95 771.221 2276.83 771ZM2276.83 -853C1831.37 -853 1468.96 -490.59 1468.96 -45.1299C1468.96 400.33 1831.37 762.74 2276.83 762.74C2722.29 762.74 3084.7 400.33 3084.7 -45.1299C3084.7 -490.59 2722.3 -853 2276.83 -853Z" fill="url(#paint4_linear_351_7)"/>
<path d="M2736.08 1716.67C2547.8 1716.55 2365.35 1651.35 2219.64 1532.11C2073.93 1412.88 1973.91 1246.94 1936.52 1062.41C1899.14 877.883 1926.69 686.103 2014.51 519.56C2102.33 353.017 2245.02 221.949 2418.41 148.56C2617.85 64.3074 2842.6 62.7338 3043.2 144.186C3243.8 225.637 3403.83 383.442 3488.09 582.885C3572.34 782.328 3573.91 1007.07 3492.46 1207.67C3411.01 1408.28 3253.2 1568.31 3053.76 1652.56C2953.26 1695.09 2845.21 1716.89 2736.08 1716.67ZM2736.08 92.67C2290.62 92.67 1928.21 455.08 1928.21 900.54C1928.21 1346 2290.62 1708.42 2736.08 1708.42C3181.54 1708.42 3543.96 1346 3543.96 900.54C3543.96 455.08 3181.54 92.67 2736.08 92.67Z" fill="url(#paint5_linear_351_7)"/>
<path d="M3040.57 2085.89C2838.88 2085.63 2644.47 2010.48 2495.05 1874.99C2345.64 1739.51 2251.87 1553.36 2231.94 1352.65C2212.01 1151.95 2267.34 950.994 2387.19 788.771C2507.04 626.549 2682.87 514.623 2880.57 474.705C3078.27 434.787 3283.76 469.723 3457.16 572.736C3630.56 675.748 3759.52 839.495 3819.03 1032.21C3878.53 1224.93 3864.33 1432.87 3779.19 1615.72C3694.05 1798.56 3544.03 1943.26 3358.24 2021.75C3257.74 2064.28 3149.7 2086.1 3040.57 2085.89ZM3040.57 461.89C2595.11 461.89 2232.7 824.3 2232.7 1269.76C2232.7 1715.22 2595.11 2077.64 3040.57 2077.64C3486.03 2077.64 3848.44 1715.22 3848.44 1269.76C3848.44 824.3 3486.03 461.89 3040.57 461.89Z" fill="url(#paint6_linear_351_7)"/>
<g style="mix-blend-mode:multiply" opacity="0.1">
<path d="M3271.84 1588.31C3502.89 1357.26 3502.89 982.646 3271.84 751.592C3040.78 520.538 2666.17 520.538 2435.12 751.592C2204.06 982.646 2204.06 1357.26 2435.12 1588.31C2666.17 1819.37 3040.78 1819.37 3271.84 1588.31Z" fill="black"/>
<path d="M3269.91 1586.39C3499.91 1356.4 3499.91 983.507 3269.91 753.515C3039.92 523.524 2667.03 523.524 2437.04 753.515C2207.05 983.507 2207.05 1356.4 2437.04 1586.39C2667.03 1816.38 3039.92 1816.38 3269.91 1586.39Z" fill="#080808"/>
<path d="M3267.98 1584.46C3496.91 1355.53 3496.91 984.371 3267.98 755.446C3039.06 526.52 2667.9 526.52 2438.97 755.446C2210.05 984.371 2210.05 1355.53 2438.97 1584.46C2667.9 1813.38 3039.06 1813.38 3267.98 1584.46Z" fill="#101010"/>
<path d="M3266.05 1582.53C3493.91 1354.67 3493.91 985.235 3266.05 757.376C3038.19 529.517 2668.76 529.517 2440.9 757.376C2213.04 985.235 2213.04 1354.67 2440.9 1582.53C2668.76 1810.39 3038.19 1810.39 3266.05 1582.53Z" fill="#191919"/>
<path d="M3264.13 1580.6C3490.93 1353.81 3490.93 986.096 3264.13 759.299C3037.33 532.502 2669.62 532.502 2442.83 759.299C2216.03 986.096 2216.03 1353.81 2442.83 1580.6C2669.62 1807.4 3037.33 1807.4 3264.13 1580.6Z" fill="#212121"/>
<path d="M3262.2 1578.67C3487.93 1352.94 3487.93 986.961 3262.2 761.23C3036.47 535.499 2670.49 535.499 2444.76 761.23C2219.02 986.961 2219.02 1352.94 2444.76 1578.67C2670.49 1804.4 3036.47 1804.4 3262.2 1578.67Z" fill="#292929"/>
<path d="M3260.27 1576.74C3484.93 1352.08 3484.93 987.825 3260.27 763.16C3035.6 538.495 2671.35 538.495 2446.69 763.16C2222.02 987.825 2222.02 1352.08 2446.69 1576.74C2671.35 1801.41 3035.6 1801.41 3260.27 1576.74Z" fill="#313131"/>
<path d="M3258.35 1574.82C3481.95 1351.22 3481.95 988.686 3258.35 765.084C3034.74 541.481 2672.21 541.481 2448.61 765.084C2225.01 988.686 2225.01 1351.22 2448.61 1574.82C2672.21 1798.42 3034.74 1798.42 3258.35 1574.82Z" fill="#3A3A3A"/>
<path d="M3256.41 1572.89C3478.95 1350.35 3478.95 989.551 3256.41 767.014C3033.88 544.478 2673.08 544.478 2450.54 767.014C2228 989.55 2228 1350.35 2450.54 1572.89C2673.08 1795.43 3033.88 1795.43 3256.41 1572.89Z" fill="#424242"/>
<path d="M3254.48 1570.96C3475.96 1349.49 3475.96 990.415 3254.48 768.945C3033.01 547.474 2673.94 547.474 2452.47 768.945C2231 990.415 2231 1349.49 2452.47 1570.96C2673.94 1792.43 3033.01 1792.43 3254.48 1570.96Z" fill="#4A4A4A"/>
<path d="M3252.56 1569.04C3472.97 1348.63 3472.97 991.276 3252.56 770.868C3032.15 550.46 2674.8 550.46 2454.39 770.868C2233.99 991.276 2233.99 1348.63 2454.39 1569.04C2674.8 1789.44 3032.15 1789.44 3252.56 1569.04Z" fill="#525252"/>
<path d="M3250.63 1567.11C3469.97 1347.76 3469.97 992.14 3250.63 772.798C3031.29 553.456 2675.67 553.456 2456.32 772.798C2236.98 992.14 2236.98 1347.76 2456.32 1567.11C2675.67 1786.45 3031.29 1786.45 3250.63 1567.11Z" fill="#5A5A5A"/>
<path d="M3248.7 1565.17C3466.98 1346.9 3466.98 993.004 3248.7 774.729C3030.42 556.453 2676.53 556.453 2458.25 774.729C2239.98 993.004 2239.98 1346.9 2458.25 1565.18C2676.53 1783.45 3030.42 1783.45 3248.7 1565.17Z" fill="#636363"/>
<path d="M3246.78 1563.25C3463.99 1346.04 3463.99 993.865 3246.78 776.652C3029.56 559.438 2677.39 559.438 2460.18 776.652C2242.96 993.865 2242.96 1346.04 2460.18 1563.25C2677.39 1780.46 3029.56 1780.47 3246.78 1563.25Z" fill="#6B6B6B"/>
<path d="M3244.85 1561.32C3460.99 1345.17 3460.99 994.73 3244.85 778.582C3028.7 562.435 2678.26 562.435 2462.11 778.582C2245.96 994.73 2245.96 1345.17 2462.11 1561.32C2678.26 1777.47 3028.7 1777.47 3244.85 1561.32Z" fill="#737373"/>
<path d="M3242.92 1559.39C3458 1344.31 3458 995.594 3242.92 780.513C3027.83 565.431 2679.12 565.431 2464.04 780.513C2248.96 995.594 2248.96 1344.31 2464.04 1559.39C2679.12 1774.47 3027.84 1774.47 3242.92 1559.39Z" fill="#7B7B7B"/>
<path d="M3240.99 1557.47C3455.01 1343.45 3455.01 996.455 3240.99 782.436C3026.97 568.417 2679.98 568.417 2465.96 782.436C2251.94 996.455 2251.94 1343.45 2465.96 1557.47C2679.98 1771.49 3026.97 1771.49 3240.99 1557.47Z" fill="#848484"/>
<path d="M3239.06 1555.54C3452.02 1342.58 3452.02 997.32 3239.06 784.367C3026.11 571.414 2680.84 571.414 2467.89 784.367C2254.94 997.319 2254.94 1342.58 2467.89 1555.54C2680.84 1768.49 3026.11 1768.49 3239.06 1555.54Z" fill="#8C8C8C"/>
<path d="M3237.14 1553.61C3449.03 1341.72 3449.03 998.181 3237.14 786.29C3025.25 574.399 2681.71 574.399 2469.82 786.29C2257.92 998.181 2257.92 1341.72 2469.82 1553.61C2681.71 1765.5 3025.25 1765.5 3237.14 1553.61Z" fill="#949494"/>
<path d="M3235.21 1551.68C3446.03 1340.86 3446.03 999.045 3235.21 788.22C3024.38 577.396 2682.57 577.396 2471.75 788.22C2260.92 999.045 2260.92 1340.86 2471.75 1551.68C2682.57 1762.51 3024.38 1762.51 3235.21 1551.68Z" fill="#9C9C9C"/>
<path d="M3233.28 1549.75C3443.04 1339.99 3443.04 999.909 3233.28 790.151C3023.52 580.392 2683.43 580.392 2473.68 790.151C2263.92 999.909 2263.92 1339.99 2473.68 1549.75C2683.43 1759.51 3023.52 1759.51 3233.28 1549.75Z" fill="#A5A5A5"/>
<path d="M3231.36 1547.83C3440.05 1339.13 3440.05 1000.77 3231.36 792.074C3022.66 583.378 2684.3 583.378 2475.6 792.074C2266.9 1000.77 2266.9 1339.13 2475.6 1547.83C2684.3 1756.53 3022.66 1756.53 3231.36 1547.83Z" fill="#ADADAD"/>
<path d="M3229.42 1545.9C3437.06 1338.27 3437.05 1001.63 3229.42 794.004C3021.79 586.374 2685.16 586.374 2477.53 794.004C2269.9 1001.63 2269.9 1338.27 2477.53 1545.9C2685.16 1753.53 3021.79 1753.53 3229.42 1545.9Z" fill="#B5B5B5"/>
<path d="M3227.49 1543.97C3434.06 1337.4 3434.06 1002.5 3227.49 795.935C3020.93 589.371 2686.02 589.371 2479.46 795.935C2272.9 1002.5 2272.9 1337.41 2479.46 1543.97C2686.02 1750.53 3020.93 1750.53 3227.49 1543.97Z" fill="#BDBDBD"/>
<path d="M3225.57 1542.05C3431.07 1336.54 3431.07 1003.36 3225.57 797.858C3020.07 592.356 2686.89 592.356 2481.38 797.858C2275.88 1003.36 2275.88 1336.54 2481.38 1542.05C2686.89 1747.55 3020.07 1747.55 3225.57 1542.05Z" fill="#C5C5C5"/>
<path d="M3223.64 1540.11C3428.08 1335.68 3428.08 1004.22 3223.64 799.788C3019.21 595.353 2687.75 595.353 2483.31 799.788C2278.88 1004.22 2278.88 1335.68 2483.31 1540.11C2687.75 1744.55 3019.21 1744.55 3223.64 1540.11Z" fill="#CECECE"/>
<path d="M3221.71 1538.18C3425.08 1334.82 3425.08 1005.09 3221.71 801.719C3018.34 598.349 2688.61 598.349 2485.24 801.719C2281.88 1005.09 2281.88 1334.82 2485.24 1538.18C2688.61 1741.55 3018.34 1741.55 3221.71 1538.18Z" fill="#D6D6D6"/>
<path d="M3219.79 1536.26C3422.09 1333.95 3422.09 1005.95 3219.79 803.642C3017.48 601.335 2689.47 601.335 2487.17 803.642C2284.86 1005.95 2284.86 1333.95 2487.17 1536.26C2689.47 1738.57 3017.48 1738.57 3219.79 1536.26Z" fill="#DEDEDE"/>
<path d="M3217.86 1534.33C3419.1 1333.09 3419.1 1006.81 3217.86 805.573C3016.62 604.332 2690.34 604.332 2489.1 805.573C2287.86 1006.81 2287.86 1333.09 2489.1 1534.33C2690.34 1735.57 3016.62 1735.57 3217.86 1534.33Z" fill="#E6E6E6"/>
<path d="M3215.93 1532.4C3416.1 1332.23 3416.1 1007.68 3215.93 807.503C3015.75 607.328 2691.2 607.328 2491.03 807.503C2290.85 1007.68 2290.85 1332.23 2491.03 1532.4C2691.2 1732.58 3015.75 1732.58 3215.93 1532.4Z" fill="#EFEFEF"/>
<path d="M3214 1530.48C3413.12 1331.36 3413.12 1008.54 3214 809.426C3014.89 610.314 2692.06 610.314 2492.95 809.426C2293.84 1008.54 2293.84 1331.36 2492.95 1530.48C2692.06 1729.59 3014.89 1729.59 3214 1530.48Z" fill="#F7F7F7"/>
<path d="M3212.07 1528.55C3410.12 1330.5 3410.12 1009.4 3212.07 811.357C3014.03 613.31 2692.93 613.31 2494.88 811.357C2296.84 1009.4 2296.84 1330.5 2494.88 1528.55C2692.93 1726.59 3014.03 1726.59 3212.07 1528.55Z" fill="white"/>
</g>
<g style="mix-blend-mode:multiply" opacity="0.1">
<path d="M1980.09 900.55C2352.59 900.55 2654.57 598.575 2654.57 226.07C2654.57 -146.435 2352.59 -448.41 1980.09 -448.41C1607.58 -448.41 1305.61 -146.435 1305.61 226.07C1305.61 598.575 1607.58 900.55 1980.09 900.55Z" fill="black"/>
<path d="M1980.09 897.44C2350.88 897.44 2651.46 596.858 2651.46 226.07C2651.46 -144.717 2350.88 -445.3 1980.09 -445.3C1609.3 -445.3 1308.72 -144.717 1308.72 226.07C1308.72 596.858 1609.3 897.44 1980.09 897.44Z" fill="#080808"/>
<path d="M1980.09 894.33C2349.16 894.33 2648.35 595.14 2648.35 226.07C2648.35 -143 2349.16 -442.19 1980.09 -442.19C1611.02 -442.19 1311.83 -143 1311.83 226.07C1311.83 595.14 1611.02 894.33 1980.09 894.33Z" fill="#101010"/>
<path d="M1980.09 891.22C2347.44 891.22 2645.24 593.422 2645.24 226.07C2645.24 -141.282 2347.44 -439.08 1980.09 -439.08C1612.74 -439.08 1314.94 -141.282 1314.94 226.07C1314.94 593.422 1612.74 891.22 1980.09 891.22Z" fill="#191919"/>
<path d="M1980.09 888.11C2345.72 888.11 2642.13 591.705 2642.13 226.07C2642.13 -139.565 2345.72 -435.97 1980.09 -435.97C1614.46 -435.97 1318.05 -139.565 1318.05 226.07C1318.05 591.705 1614.46 888.11 1980.09 888.11Z" fill="#212121"/>
<path d="M1980.09 885C2344.01 885 2639.02 589.987 2639.02 226.07C2639.02 -137.847 2344.01 -432.86 1980.09 -432.86C1616.17 -432.86 1321.16 -137.847 1321.16 226.07C1321.16 589.987 1616.17 885 1980.09 885Z" fill="#292929"/>
<path d="M1980.09 881.9C2342.29 881.9 2635.92 588.275 2635.92 226.07C2635.92 -136.135 2342.29 -429.76 1980.09 -429.76C1617.88 -429.76 1324.26 -136.135 1324.26 226.07C1324.26 588.275 1617.88 881.9 1980.09 881.9Z" fill="#313131"/>
<path d="M1980.09 878.79C2340.58 878.79 2632.81 586.557 2632.81 226.07C2632.81 -134.417 2340.58 -426.65 1980.09 -426.65C1619.6 -426.65 1327.37 -134.417 1327.37 226.07C1327.37 586.557 1619.6 878.79 1980.09 878.79Z" fill="#3A3A3A"/>
<path d="M1980.09 875.68C2338.86 875.68 2629.7 584.84 2629.7 226.07C2629.7 -132.7 2338.86 -423.54 1980.09 -423.54C1621.32 -423.54 1330.48 -132.7 1330.48 226.07C1330.48 584.84 1621.32 875.68 1980.09 875.68Z" fill="#424242"/>
<path d="M1980.09 872.57C2337.14 872.57 2626.59 583.122 2626.59 226.07C2626.59 -130.982 2337.14 -420.43 1980.09 -420.43C1623.04 -420.43 1333.59 -130.982 1333.59 226.07C1333.59 583.122 1623.04 872.57 1980.09 872.57Z" fill="#4A4A4A"/>
<path d="M1980.09 869.46C2335.42 869.46 2623.48 581.405 2623.48 226.07C2623.48 -129.264 2335.42 -417.32 1980.09 -417.32C1624.76 -417.32 1336.7 -129.264 1336.7 226.07C1336.7 581.405 1624.76 869.46 1980.09 869.46Z" fill="#525252"/>
<path d="M1980.09 866.35C2333.71 866.35 2620.37 579.687 2620.37 226.07C2620.37 -127.547 2333.71 -414.21 1980.09 -414.21C1626.47 -414.21 1339.81 -127.547 1339.81 226.07C1339.81 579.687 1626.47 866.35 1980.09 866.35Z" fill="#5A5A5A"/>
<path d="M1980.09 863.25C2331.99 863.25 2617.27 577.975 2617.27 226.07C2617.27 -125.835 2331.99 -411.11 1980.09 -411.11C1628.19 -411.11 1342.91 -125.835 1342.91 226.07C1342.91 577.975 1628.19 863.25 1980.09 863.25Z" fill="#636363"/>
<path d="M1980.09 860.14C2330.28 860.14 2614.16 576.257 2614.16 226.07C2614.16 -124.117 2330.28 -408 1980.09 -408C1629.9 -408 1346.02 -124.117 1346.02 226.07C1346.02 576.257 1629.9 860.14 1980.09 860.14Z" fill="#6B6B6B"/>
<path d="M1980.09 857.03C2328.56 857.03 2611.05 574.54 2611.05 226.07C2611.05 -122.399 2328.56 -404.89 1980.09 -404.89C1631.62 -404.89 1349.13 -122.399 1349.13 226.07C1349.13 574.54 1631.62 857.03 1980.09 857.03Z" fill="#737373"/>
<path d="M1980.09 853.92C2326.84 853.92 2607.94 572.822 2607.94 226.07C2607.94 -120.682 2326.84 -401.78 1980.09 -401.78C1633.34 -401.78 1352.24 -120.682 1352.24 226.07C1352.24 572.822 1633.34 853.92 1980.09 853.92Z" fill="#7B7B7B"/>
<path d="M1980.09 850.81C2325.12 850.81 2604.83 571.104 2604.83 226.07C2604.83 -118.964 2325.12 -398.67 1980.09 -398.67C1635.06 -398.67 1355.35 -118.964 1355.35 226.07C1355.35 571.104 1635.06 850.81 1980.09 850.81Z" fill="#848484"/>
<path d="M1980.09 847.71C2323.41 847.71 2601.73 569.392 2601.73 226.07C2601.73 -117.252 2323.41 -395.57 1980.09 -395.57C1636.77 -395.57 1358.45 -117.252 1358.45 226.07C1358.45 569.392 1636.77 847.71 1980.09 847.71Z" fill="#8C8C8C"/>
<path d="M1980.09 844.6C2321.69 844.6 2598.62 567.675 2598.62 226.07C2598.62 -115.535 2321.69 -392.46 1980.09 -392.46C1638.49 -392.46 1361.56 -115.535 1361.56 226.07C1361.56 567.675 1638.49 844.6 1980.09 844.6Z" fill="#949494"/>
<path d="M1980.09 841.49C2319.98 841.49 2595.51 565.957 2595.51 226.07C2595.51 -113.817 2319.98 -389.35 1980.09 -389.35C1640.2 -389.35 1364.67 -113.817 1364.67 226.07C1364.67 565.957 1640.2 841.49 1980.09 841.49Z" fill="#9C9C9C"/>
<path d="M1980.09 838.38C2318.26 838.38 2592.4 564.24 2592.4 226.07C2592.4 -112.099 2318.26 -386.24 1980.09 -386.24C1641.92 -386.24 1367.78 -112.099 1367.78 226.07C1367.78 564.24 1641.92 838.38 1980.09 838.38Z" fill="#A5A5A5"/>
<path d="M1980.09 835.27C2316.54 835.27 2589.29 562.522 2589.29 226.07C2589.29 -110.382 2316.54 -383.13 1980.09 -383.13C1643.64 -383.13 1370.89 -110.382 1370.89 226.07C1370.89 562.522 1643.64 835.27 1980.09 835.27Z" fill="#ADADAD"/>
<path d="M1980.09 832.16C2314.82 832.16 2586.18 560.804 2586.18 226.07C2586.18 -108.664 2314.82 -380.02 1980.09 -380.02C1645.36 -380.02 1374 -108.664 1374 226.07C1374 560.804 1645.36 832.16 1980.09 832.16Z" fill="#B5B5B5"/>
<path d="M1980.09 829.06C2313.11 829.06 2583.08 559.092 2583.08 226.07C2583.08 -106.952 2313.11 -376.92 1980.09 -376.92C1647.07 -376.92 1377.1 -106.952 1377.1 226.07C1377.1 559.092 1647.07 829.06 1980.09 829.06Z" fill="#BDBDBD"/>
<path d="M1980.09 825.95C2311.39 825.95 2579.97 557.375 2579.97 226.07C2579.97 -105.234 2311.39 -373.81 1980.09 -373.81C1648.79 -373.81 1380.21 -105.234 1380.21 226.07C1380.21 557.375 1648.79 825.95 1980.09 825.95Z" fill="#C5C5C5"/>
<path d="M1980.09 822.84C2309.68 822.84 2576.86 555.657 2576.86 226.07C2576.86 -103.517 2309.68 -370.7 1980.09 -370.7C1650.5 -370.7 1383.32 -103.517 1383.32 226.07C1383.32 555.657 1650.5 822.84 1980.09 822.84Z" fill="#CECECE"/>
<path d="M1980.09 819.73C2307.96 819.73 2573.75 553.94 2573.75 226.07C2573.75 -101.799 2307.96 -367.59 1980.09 -367.59C1652.22 -367.59 1386.43 -101.799 1386.43 226.07C1386.43 553.94 1652.22 819.73 1980.09 819.73Z" fill="#D6D6D6"/>
<path d="M1980.09 816.62C2306.24 816.62 2570.64 552.222 2570.64 226.07C2570.64 -100.082 2306.24 -364.48 1980.09 -364.48C1653.94 -364.48 1389.54 -100.082 1389.54 226.07C1389.54 552.222 1653.94 816.62 1980.09 816.62Z" fill="#DEDEDE"/>
<path d="M1980.09 813.52C2304.53 813.52 2567.54 550.51 2567.54 226.07C2567.54 -98.3695 2304.53 -361.38 1980.09 -361.38C1655.65 -361.38 1392.64 -98.3695 1392.64 226.07C1392.64 550.51 1655.65 813.52 1980.09 813.52Z" fill="#E6E6E6"/>
<path d="M1980.09 810.41C2302.81 810.41 2564.43 548.792 2564.43 226.07C2564.43 -96.652 2302.81 -358.27 1980.09 -358.27C1657.37 -358.27 1395.75 -96.652 1395.75 226.07C1395.75 548.792 1657.37 810.41 1980.09 810.41Z" fill="#EFEFEF"/>
<path d="M1980.09 807.3C2301.09 807.3 2561.32 547.075 2561.32 226.07C2561.32 -94.9343 2301.09 -355.16 1980.09 -355.16C1659.09 -355.16 1398.86 -94.9343 1398.86 226.07C1398.86 547.075 1659.09 807.3 1980.09 807.3Z" fill="#F7F7F7"/>
<path d="M1980.09 804.19C2299.38 804.19 2558.21 545.357 2558.21 226.07C2558.21 -93.2166 2299.38 -352.05 1980.09 -352.05C1660.8 -352.05 1401.97 -93.2166 1401.97 226.07C1401.97 545.357 1660.8 804.19 1980.09 804.19Z" fill="white"/>
</g>
<g style="mix-blend-mode:multiply" opacity="0.1">
<path d="M1305.61 1677.07C1678.11 1677.07 1980.08 1375.1 1980.08 1002.6C1980.08 630.1 1678.11 328.13 1305.61 328.13C933.111 328.13 631.14 630.1 631.14 1002.6C631.14 1375.1 933.111 1677.07 1305.61 1677.07Z" fill="black"/>
<path d="M1305.61 1673.97C1676.4 1673.97 1976.98 1373.39 1976.98 1002.6C1976.98 631.813 1676.4 331.23 1305.61 331.23C934.823 331.23 634.24 631.813 634.24 1002.6C634.24 1373.39 934.823 1673.97 1305.61 1673.97Z" fill="#080808"/>
<path d="M1305.61 1670.86C1674.68 1670.86 1973.87 1371.67 1973.87 1002.6C1973.87 633.53 1674.68 334.34 1305.61 334.34C936.54 334.34 637.35 633.53 637.35 1002.6C637.35 1371.67 936.54 1670.86 1305.61 1670.86Z" fill="#101010"/>
<path d="M1305.61 1667.75C1672.96 1667.75 1970.76 1369.95 1970.76 1002.6C1970.76 635.248 1672.96 337.45 1305.61 337.45C938.258 337.45 640.46 635.248 640.46 1002.6C640.46 1369.95 938.258 1667.75 1305.61 1667.75Z" fill="#191919"/>
<path d="M1305.61 1664.64C1671.24 1664.64 1967.65 1368.23 1967.65 1002.6C1967.65 636.965 1671.24 340.56 1305.61 340.56C939.975 340.56 643.57 636.965 643.57 1002.6C643.57 1368.23 939.975 1664.64 1305.61 1664.64Z" fill="#212121"/>
<path d="M1305.61 1661.53C1669.53 1661.53 1964.54 1366.52 1964.54 1002.6C1964.54 638.683 1669.53 343.67 1305.61 343.67C941.693 343.67 646.68 638.683 646.68 1002.6C646.68 1366.52 941.693 1661.53 1305.61 1661.53Z" fill="#292929"/>
<path d="M1305.61 1658.43C1667.82 1658.43 1961.44 1364.8 1961.44 1002.6C1961.44 640.395 1667.82 346.77 1305.61 346.77C943.405 346.77 649.78 640.395 649.78 1002.6C649.78 1364.8 943.405 1658.43 1305.61 1658.43Z" fill="#313131"/>
<path d="M1305.61 1655.32C1666.1 1655.32 1958.33 1363.09 1958.33 1002.6C1958.33 642.113 1666.1 349.88 1305.61 349.88C945.123 349.88 652.89 642.113 652.89 1002.6C652.89 1363.09 945.123 1655.32 1305.61 1655.32Z" fill="#3A3A3A"/>
<path d="M1305.61 1652.21C1664.38 1652.21 1955.22 1361.37 1955.22 1002.6C1955.22 643.83 1664.38 352.99 1305.61 352.99C946.84 352.99 656 643.83 656 1002.6C656 1361.37 946.84 1652.21 1305.61 1652.21Z" fill="#424242"/>
<path d="M1305.61 1649.1C1662.66 1649.1 1952.11 1359.65 1952.11 1002.6C1952.11 645.548 1662.66 356.1 1305.61 356.1C948.558 356.1 659.11 645.548 659.11 1002.6C659.11 1359.65 948.558 1649.1 1305.61 1649.1Z" fill="#4A4A4A"/>
<path d="M1305.61 1645.99C1660.94 1645.99 1949 1357.93 1949 1002.6C1949 647.266 1660.94 359.21 1305.61 359.21C950.276 359.21 662.22 647.266 662.22 1002.6C662.22 1357.93 950.276 1645.99 1305.61 1645.99Z" fill="#525252"/>
<path d="M1305.61 1642.88C1659.23 1642.88 1945.89 1356.22 1945.89 1002.6C1945.89 648.983 1659.23 362.32 1305.61 362.32C951.993 362.32 665.33 648.983 665.33 1002.6C665.33 1356.22 951.993 1642.88 1305.61 1642.88Z" fill="#5A5A5A"/>
<path d="M1305.61 1639.78C1657.51 1639.78 1942.79 1354.5 1942.79 1002.6C1942.79 650.695 1657.51 365.42 1305.61 365.42C953.705 365.42 668.43 650.695 668.43 1002.6C668.43 1354.5 953.705 1639.78 1305.61 1639.78Z" fill="#636363"/>
<path d="M1305.61 1636.67C1655.8 1636.67 1939.68 1352.79 1939.68 1002.6C1939.68 652.413 1655.8 368.53 1305.61 368.53C955.423 368.53 671.54 652.413 671.54 1002.6C671.54 1352.79 955.423 1636.67 1305.61 1636.67Z" fill="#6B6B6B"/>
<path d="M1305.61 1633.56C1654.08 1633.56 1936.57 1351.07 1936.57 1002.6C1936.57 654.13 1654.08 371.64 1305.61 371.64C957.141 371.64 674.65 654.13 674.65 1002.6C674.65 1351.07 957.141 1633.56 1305.61 1633.56Z" fill="#737373"/>
<path d="M1305.61 1630.45C1652.36 1630.45 1933.46 1349.35 1933.46 1002.6C1933.46 655.848 1652.36 374.75 1305.61 374.75C958.858 374.75 677.76 655.848 677.76 1002.6C677.76 1349.35 958.858 1630.45 1305.61 1630.45Z" fill="#7B7B7B"/>
<path d="M1305.61 1627.34C1650.64 1627.34 1930.35 1347.63 1930.35 1002.6C1930.35 657.565 1650.64 377.86 1305.61 377.86C960.576 377.86 680.87 657.565 680.87 1002.6C680.87 1347.63 960.576 1627.34 1305.61 1627.34Z" fill="#848484"/>
<path d="M1305.61 1624.24C1648.93 1624.24 1927.25 1345.92 1927.25 1002.6C1927.25 659.278 1648.93 380.96 1305.61 380.96C962.288 380.96 683.97 659.278 683.97 1002.6C683.97 1345.92 962.288 1624.24 1305.61 1624.24Z" fill="#8C8C8C"/>
<path d="M1305.61 1621.13C1647.21 1621.13 1924.14 1344.2 1924.14 1002.6C1924.14 660.995 1647.21 384.07 1305.61 384.07C964.005 384.07 687.08 660.995 687.08 1002.6C687.08 1344.2 964.005 1621.13 1305.61 1621.13Z" fill="#949494"/>
<path d="M1305.61 1618.02C1645.5 1618.02 1921.03 1342.49 1921.03 1002.6C1921.03 662.713 1645.5 387.18 1305.61 387.18C965.723 387.18 690.19 662.713 690.19 1002.6C690.19 1342.49 965.723 1618.02 1305.61 1618.02Z" fill="#9C9C9C"/>
<path d="M1305.61 1614.91C1643.78 1614.91 1917.92 1340.77 1917.92 1002.6C1917.92 664.431 1643.78 390.29 1305.61 390.29C967.441 390.29 693.3 664.431 693.3 1002.6C693.3 1340.77 967.441 1614.91 1305.61 1614.91Z" fill="#A5A5A5"/>
<path d="M1305.61 1611.8C1642.06 1611.8 1914.81 1339.05 1914.81 1002.6C1914.81 666.148 1642.06 393.4 1305.61 393.4C969.158 393.4 696.41 666.148 696.41 1002.6C696.41 1339.05 969.158 1611.8 1305.61 1611.8Z" fill="#ADADAD"/>
<path d="M1305.61 1608.69C1640.34 1608.69 1911.7 1337.33 1911.7 1002.6C1911.7 667.865 1640.34 396.51 1305.61 396.51C970.876 396.51 699.52 667.865 699.52 1002.6C699.52 1337.33 970.876 1608.69 1305.61 1608.69Z" fill="#B5B5B5"/>
<path d="M1305.61 1605.59C1638.63 1605.59 1908.6 1335.62 1908.6 1002.6C1908.6 669.578 1638.63 399.61 1305.61 399.61C972.588 399.61 702.62 669.578 702.62 1002.6C702.62 1335.62 972.588 1605.59 1305.61 1605.59Z" fill="#BDBDBD"/>
<path d="M1305.61 1602.48C1636.91 1602.48 1905.49 1333.9 1905.49 1002.6C1905.49 671.295 1636.91 402.72 1305.61 402.72C974.305 402.72 705.73 671.295 705.73 1002.6C705.73 1333.9 974.305 1602.48 1305.61 1602.48Z" fill="#C5C5C5"/>
<path d="M1305.61 1599.37C1635.2 1599.37 1902.38 1332.19 1902.38 1002.6C1902.38 673.013 1635.2 405.83 1305.61 405.83C976.023 405.83 708.84 673.013 708.84 1002.6C708.84 1332.19 976.023 1599.37 1305.61 1599.37Z" fill="#CECECE"/>
<path d="M1305.61 1596.26C1633.48 1596.26 1899.27 1330.47 1899.27 1002.6C1899.27 674.73 1633.48 408.94 1305.61 408.94C977.741 408.94 711.95 674.73 711.95 1002.6C711.95 1330.47 977.741 1596.26 1305.61 1596.26Z" fill="#D6D6D6"/>
<path d="M1305.61 1593.15C1631.76 1593.15 1896.16 1328.75 1896.16 1002.6C1896.16 676.448 1631.76 412.05 1305.61 412.05C979.458 412.05 715.06 676.448 715.06 1002.6C715.06 1328.75 979.458 1593.15 1305.61 1593.15Z" fill="#DEDEDE"/>
<path d="M1305.61 1590.05C1630.05 1590.05 1893.06 1327.04 1893.06 1002.6C1893.06 678.16 1630.05 415.15 1305.61 415.15C981.171 415.15 718.16 678.16 718.16 1002.6C718.16 1327.04 981.171 1590.05 1305.61 1590.05Z" fill="#E6E6E6"/>
<path d="M1305.61 1586.94C1628.33 1586.94 1889.95 1325.32 1889.95 1002.6C1889.95 679.878 1628.33 418.26 1305.61 418.26C982.888 418.26 721.27 679.878 721.27 1002.6C721.27 1325.32 982.888 1586.94 1305.61 1586.94Z" fill="#EFEFEF"/>
<path d="M1305.61 1583.83C1626.61 1583.83 1886.84 1323.6 1886.84 1002.6C1886.84 681.595 1626.61 421.37 1305.61 421.37C984.606 421.37 724.38 681.595 724.38 1002.6C724.38 1323.6 984.606 1583.83 1305.61 1583.83Z" fill="#F7F7F7"/>
<path d="M1305.61 1580.72C1624.9 1580.72 1883.73 1321.89 1883.73 1002.6C1883.73 683.313 1624.9 424.48 1305.61 424.48C986.323 424.48 727.49 683.313 727.49 1002.6C727.49 1321.89 986.323 1580.72 1305.61 1580.72Z" fill="white"/>
</g>
<g style="mix-blend-mode:multiply" opacity="0.1">
<path d="M2523.44 1337.29C2895.94 1337.29 3197.91 1035.32 3197.91 662.82C3197.91 290.321 2895.94 -11.6499 2523.44 -11.6499C2150.94 -11.6499 1848.97 290.321 1848.97 662.82C1848.97 1035.32 2150.94 1337.29 2523.44 1337.29Z" fill="black"/>
<path d="M2523.44 1334.19C2894.23 1334.19 3194.81 1033.61 3194.81 662.82C3194.81 292.033 2894.23 -8.5498 2523.44 -8.5498C2152.65 -8.5498 1852.07 292.033 1852.07 662.82C1852.07 1033.61 2152.65 1334.19 2523.44 1334.19Z" fill="#080808"/>
<path d="M2523.44 1331.08C2892.51 1331.08 3191.7 1031.89 3191.7 662.82C3191.7 293.75 2892.51 -5.43994 2523.44 -5.43994C2154.37 -5.43994 1855.18 293.75 1855.18 662.82C1855.18 1031.89 2154.37 1331.08 2523.44 1331.08Z" fill="#101010"/>
<path d="M2523.44 1327.97C2890.79 1327.97 3188.59 1030.17 3188.59 662.82C3188.59 295.468 2890.79 -2.32983 2523.44 -2.32983C2156.09 -2.32983 1858.29 295.468 1858.29 662.82C1858.29 1030.17 2156.09 1327.97 2523.44 1327.97Z" fill="#191919"/>
<path d="M2523.44 1324.86C2889.07 1324.86 3185.48 1028.45 3185.48 662.82C3185.48 297.185 2889.07 0.780029 2523.44 0.780029C2157.81 0.780029 1861.4 297.185 1861.4 662.82C1861.4 1028.45 2157.81 1324.86 2523.44 1324.86Z" fill="#212121"/>
<path d="M2523.44 1321.75C2887.36 1321.75 3182.37 1026.74 3182.37 662.82C3182.37 298.903 2887.36 3.89014 2523.44 3.89014C2159.52 3.89014 1864.51 298.903 1864.51 662.82C1864.51 1026.74 2159.52 1321.75 2523.44 1321.75Z" fill="#292929"/>
<path d="M2523.44 1318.65C2885.64 1318.65 3179.27 1025.02 3179.27 662.82C3179.27 300.615 2885.64 6.98999 2523.44 6.98999C2161.23 6.98999 1867.61 300.615 1867.61 662.82C1867.61 1025.02 2161.23 1318.65 2523.44 1318.65Z" fill="#313131"/>
<path d="M2523.44 1315.54C2883.93 1315.54 3176.16 1023.31 3176.16 662.82C3176.16 302.333 2883.93 10.1001 2523.44 10.1001C2162.95 10.1001 1870.72 302.333 1870.72 662.82C1870.72 1023.31 2162.95 1315.54 2523.44 1315.54Z" fill="#3A3A3A"/>
<path d="M2523.44 1312.43C2882.21 1312.43 3173.05 1021.59 3173.05 662.82C3173.05 304.05 2882.21 13.21 2523.44 13.21C2164.67 13.21 1873.83 304.05 1873.83 662.82C1873.83 1021.59 2164.67 1312.43 2523.44 1312.43Z" fill="#424242"/>
<path d="M2523.44 1309.32C2880.49 1309.32 3169.94 1019.87 3169.94 662.82C3169.94 305.768 2880.49 16.3201 2523.44 16.3201C2166.39 16.3201 1876.94 305.768 1876.94 662.82C1876.94 1019.87 2166.39 1309.32 2523.44 1309.32Z" fill="#4A4A4A"/>
<path d="M2523.44 1306.21C2878.77 1306.21 3166.83 1018.15 3166.83 662.82C3166.83 307.486 2878.77 19.4302 2523.44 19.4302C2168.11 19.4302 1880.05 307.486 1880.05 662.82C1880.05 1018.15 2168.11 1306.21 2523.44 1306.21Z" fill="#525252"/>
<path d="M2523.44 1303.1C2877.06 1303.1 3163.72 1016.44 3163.72 662.82C3163.72 309.203 2877.06 22.54 2523.44 22.54C2169.82 22.54 1883.16 309.203 1883.16 662.82C1883.16 1016.44 2169.82 1303.1 2523.44 1303.1Z" fill="#5A5A5A"/>
<path d="M2523.44 1300C2875.34 1300 3160.62 1014.72 3160.62 662.82C3160.62 310.915 2875.34 25.6401 2523.44 25.6401C2171.53 25.6401 1886.26 310.915 1886.26 662.82C1886.26 1014.72 2171.53 1300 2523.44 1300Z" fill="#636363"/>
<path d="M2523.44 1296.89C2873.63 1296.89 3157.51 1013.01 3157.51 662.82C3157.51 312.633 2873.63 28.75 2523.44 28.75C2173.25 28.75 1889.37 312.633 1889.37 662.82C1889.37 1013.01 2173.25 1296.89 2523.44 1296.89Z" fill="#6B6B6B"/>
<path d="M2523.44 1293.78C2871.91 1293.78 3154.4 1011.29 3154.4 662.82C3154.4 314.351 2871.91 31.8601 2523.44 31.8601C2174.97 31.8601 1892.48 314.351 1892.48 662.82C1892.48 1011.29 2174.97 1293.78 2523.44 1293.78Z" fill="#737373"/>
<path d="M2523.44 1290.67C2870.19 1290.67 3151.29 1009.57 3151.29 662.82C3151.29 316.068 2870.19 34.9702 2523.44 34.9702C2176.69 34.9702 1895.59 316.068 1895.59 662.82C1895.59 1009.57 2176.69 1290.67 2523.44 1290.67Z" fill="#7B7B7B"/>
<path d="M2523.44 1287.56C2868.47 1287.56 3148.18 1007.85 3148.18 662.82C3148.18 317.786 2868.47 38.0801 2523.44 38.0801C2178.41 38.0801 1898.7 317.786 1898.7 662.82C1898.7 1007.85 2178.41 1287.56 2523.44 1287.56Z" fill="#848484"/>
<path d="M2523.44 1284.46C2866.76 1284.46 3145.08 1006.14 3145.08 662.82C3145.08 319.498 2866.76 41.1802 2523.44 41.1802C2180.12 41.1802 1901.8 319.498 1901.8 662.82C1901.8 1006.14 2180.12 1284.46 2523.44 1284.46Z" fill="#8C8C8C"/>
<path d="M2523.44 1281.35C2865.04 1281.35 3141.97 1004.42 3141.97 662.82C3141.97 321.215 2865.04 44.29 2523.44 44.29C2181.83 44.29 1904.91 321.215 1904.91 662.82C1904.91 1004.42 2181.83 1281.35 2523.44 1281.35Z" fill="#949494"/>
<path d="M2523.44 1278.24C2863.33 1278.24 3138.86 1002.71 3138.86 662.82C3138.86 322.933 2863.33 47.4001 2523.44 47.4001C2183.55 47.4001 1908.02 322.933 1908.02 662.82C1908.02 1002.71 2183.55 1278.24 2523.44 1278.24Z" fill="#9C9C9C"/>
<path d="M2523.44 1275.13C2861.61 1275.13 3135.75 1000.99 3135.75 662.82C3135.75 324.651 2861.61 50.51 2523.44 50.51C2185.27 50.51 1911.13 324.651 1911.13 662.82C1911.13 1000.99 2185.27 1275.13 2523.44 1275.13Z" fill="#A5A5A5"/>
<path d="M2523.44 1272.02C2859.89 1272.02 3132.64 999.272 3132.64 662.82C3132.64 326.368 2859.89 53.6201 2523.44 53.6201C2186.99 53.6201 1914.24 326.368 1914.24 662.82C1914.24 999.272 2186.99 1272.02 2523.44 1272.02Z" fill="#ADADAD"/>
<path d="M2523.44 1268.91C2858.17 1268.91 3129.53 997.554 3129.53 662.82C3129.53 328.086 2858.17 56.73 2523.44 56.73C2188.71 56.73 1917.35 328.086 1917.35 662.82C1917.35 997.554 2188.71 1268.91 2523.44 1268.91Z" fill="#B5B5B5"/>
<path d="M2523.44 1265.81C2856.46 1265.81 3126.43 995.842 3126.43 662.82C3126.43 329.798 2856.46 59.8301 2523.44 59.8301C2190.42 59.8301 1920.45 329.798 1920.45 662.82C1920.45 995.842 2190.42 1265.81 2523.44 1265.81Z" fill="#BDBDBD"/>
<path d="M2523.44 1262.7C2854.74 1262.7 3123.32 994.125 3123.32 662.82C3123.32 331.515 2854.74 62.9399 2523.44 62.9399C2192.13 62.9399 1923.56 331.515 1923.56 662.82C1923.56 994.125 2192.13 1262.7 2523.44 1262.7Z" fill="#C5C5C5"/>
<path d="M2523.44 1259.59C2853.03 1259.59 3120.21 992.407 3120.21 662.82C3120.21 333.233 2853.03 66.05 2523.44 66.05C2193.85 66.05 1926.67 333.233 1926.67 662.82C1926.67 992.407 2193.85 1259.59 2523.44 1259.59Z" fill="#CECECE"/>
<path d="M2523.44 1256.48C2851.31 1256.48 3117.1 990.69 3117.1 662.82C3117.1 334.951 2851.31 69.1602 2523.44 69.1602C2195.57 69.1602 1929.78 334.951 1929.78 662.82C1929.78 990.69 2195.57 1256.48 2523.44 1256.48Z" fill="#D6D6D6"/>
<path d="M2523.44 1253.37C2849.59 1253.37 3113.99 988.972 3113.99 662.82C3113.99 336.668 2849.59 72.27 2523.44 72.27C2197.29 72.27 1932.89 336.668 1932.89 662.82C1932.89 988.972 2197.29 1253.37 2523.44 1253.37Z" fill="#DEDEDE"/>
<path d="M2523.44 1250.27C2847.88 1250.27 3110.89 987.26 3110.89 662.82C3110.89 338.381 2847.88 75.3701 2523.44 75.3701C2199 75.3701 1935.99 338.381 1935.99 662.82C1935.99 987.26 2199 1250.27 2523.44 1250.27Z" fill="#E6E6E6"/>
<path d="M2523.44 1247.16C2846.16 1247.16 3107.78 985.542 3107.78 662.82C3107.78 340.098 2846.16 78.48 2523.44 78.48C2200.72 78.48 1939.1 340.098 1939.1 662.82C1939.1 985.542 2200.72 1247.16 2523.44 1247.16Z" fill="#EFEFEF"/>
<path d="M2523.44 1244.05C2844.44 1244.05 3104.67 983.825 3104.67 662.82C3104.67 341.816 2844.44 81.5901 2523.44 81.5901C2202.44 81.5901 1942.21 341.816 1942.21 662.82C1942.21 983.825 2202.44 1244.05 2523.44 1244.05Z" fill="#F7F7F7"/>
<path d="M2523.44 1240.94C2842.73 1240.94 3101.56 982.107 3101.56 662.82C3101.56 343.533 2842.73 84.7002 2523.44 84.7002C2204.15 84.7002 1945.32 343.533 1945.32 662.82C1945.32 982.107 2204.15 1240.94 2523.44 1240.94Z" fill="white"/>
</g>
<g style="mix-blend-mode:multiply" opacity="0.1">
<path d="M3073.2 527.146C3239.48 360.868 3239.48 91.2795 3073.2 -74.998C2906.92 -241.275 2637.33 -241.275 2471.06 -74.998C2304.78 91.2795 2304.78 360.868 2471.06 527.146C2637.33 693.423 2906.92 693.423 3073.2 527.146Z" fill="black"/>
<path d="M3071.81 525.76C3237.32 360.248 3237.32 91.8999 3071.81 -73.6121C2906.3 -239.124 2637.95 -239.124 2472.44 -73.6121C2306.93 91.8999 2306.93 360.248 2472.44 525.76C2637.95 691.272 2906.3 691.272 3071.81 525.76Z" fill="#080808"/>
<path d="M3070.43 524.374C3235.17 359.628 3235.17 92.5205 3070.43 -72.226C2905.68 -236.973 2638.57 -236.972 2473.83 -72.2259C2309.08 92.5207 2309.08 359.628 2473.83 524.374C2638.57 689.121 2905.68 689.121 3070.43 524.374Z" fill="#101010"/>
<path d="M3069.04 522.988C3233.02 359.007 3233.02 93.1411 3069.04 -70.84C2905.06 -234.821 2639.19 -234.821 2475.21 -70.8401C2311.23 93.1411 2311.23 359.007 2475.21 522.988C2639.19 686.969 2905.06 686.969 3069.04 522.988Z" fill="#191919"/>
<path d="M3067.65 521.595C3230.86 358.383 3230.86 93.7647 3067.65 -69.4471C2904.44 -232.659 2639.82 -232.659 2476.61 -69.4471C2313.39 93.7647 2313.39 358.383 2476.61 521.595C2639.82 684.807 2904.44 684.807 3067.65 521.595Z" fill="#212121"/>
<path d="M3066.26 520.209C3228.71 357.763 3228.71 94.3852 3066.26 -68.0612C2903.82 -230.508 2640.44 -230.508 2477.99 -68.0612C2315.55 94.3852 2315.55 357.763 2477.99 520.209C2640.44 682.656 2903.82 682.656 3066.26 520.209Z" fill="#292929"/>
<path d="M3064.88 518.823C3226.56 357.142 3226.56 95.0057 3064.88 -66.6753C2903.2 -228.356 2641.06 -228.356 2479.38 -66.6753C2317.7 95.0057 2317.7 357.142 2479.38 518.823C2641.06 680.504 2903.2 680.504 3064.88 518.823Z" fill="#313131"/>
<path d="M3063.49 517.437C3224.41 356.522 3224.41 95.6261 3063.49 -65.2894C2902.57 -226.205 2641.68 -226.205 2480.76 -65.2894C2319.85 95.6261 2319.85 356.522 2480.76 517.437C2641.68 678.353 2902.57 678.353 3063.49 517.437Z" fill="#3A3A3A"/>
<path d="M3062.1 516.052C3222.25 355.901 3222.25 96.2468 3062.1 -63.9033C2901.95 -224.053 2642.3 -224.053 2482.15 -63.9033C2322 96.2468 2322 355.902 2482.15 516.052C2642.3 676.202 2901.95 676.202 3062.1 516.052Z" fill="#424242"/>
<path d="M3060.71 514.658C3220.09 355.278 3220.09 96.8703 3060.71 -62.5104C2901.33 -221.891 2642.92 -221.891 2483.54 -62.5104C2324.16 96.8704 2324.16 355.278 2483.54 514.658C2642.92 674.039 2901.33 674.039 3060.71 514.658Z" fill="#4A4A4A"/>
<path d="M3059.33 513.272C3217.94 354.657 3217.94 97.4909 3059.33 -61.1244C2900.71 -219.74 2643.54 -219.74 2484.93 -61.1244C2326.31 97.4909 2326.31 354.657 2484.93 513.272C2643.54 671.888 2900.71 671.888 3059.33 513.272Z" fill="#525252"/>
<path d="M3057.94 511.887C3215.79 354.037 3215.79 98.1114 3057.94 -59.7385C2900.09 -217.588 2644.16 -217.588 2486.31 -59.7385C2328.46 98.1114 2328.46 354.037 2486.31 511.887C2644.16 669.736 2900.09 669.736 3057.94 511.887Z" fill="#5A5A5A"/>
<path d="M3056.55 510.501C3213.64 353.416 3213.64 98.7318 3056.55 -58.3526C2899.47 -215.437 2644.79 -215.437 2487.7 -58.3526C2330.62 98.7318 2330.62 353.416 2487.7 510.501C2644.79 667.585 2899.47 667.585 3056.55 510.501Z" fill="#636363"/>
<path d="M3055.16 509.108C3211.48 352.792 3211.48 99.3555 3055.16 -56.9597C2898.85 -213.275 2645.41 -213.275 2489.09 -56.9597C2332.78 99.3555 2332.78 352.792 2489.09 509.108C2645.41 665.423 2898.85 665.423 3055.16 509.108Z" fill="#6B6B6B"/>
<path d="M3053.78 507.722C3209.32 352.172 3209.32 99.9759 3053.78 -55.5738C2898.23 -211.124 2646.03 -211.123 2490.48 -55.5738C2334.93 99.976 2334.93 352.172 2490.48 507.722C2646.03 663.271 2898.23 663.271 3053.78 507.722Z" fill="#737373"/>
<path d="M3052.39 506.336C3207.17 351.552 3207.17 100.597 3052.39 -54.1877C2897.6 -208.972 2646.65 -208.972 2491.87 -54.1876C2337.08 100.597 2337.08 351.552 2491.87 506.336C2646.65 661.12 2897.6 661.12 3052.39 506.336Z" fill="#7B7B7B"/>
<path d="M3051 504.95C3205.02 350.931 3205.02 101.217 3051 -52.8017C2896.98 -206.821 2647.27 -206.821 2493.25 -52.8018C2339.23 101.217 2339.23 350.931 2493.25 504.95C2647.27 658.969 2896.98 658.969 3051 504.95Z" fill="#848484"/>
<path d="M3049.62 503.564C3202.87 350.31 3202.87 101.838 3049.62 -51.4158C2896.36 -204.669 2647.89 -204.669 2494.64 -51.4159C2341.38 101.838 2341.38 350.31 2494.64 503.564C2647.89 656.817 2896.36 656.817 3049.62 503.564Z" fill="#8C8C8C"/>
<path d="M3048.22 502.171C3200.71 349.687 3200.71 102.461 3048.22 -50.0229C2895.74 -202.507 2648.51 -202.507 2496.03 -50.0229C2343.55 102.461 2343.55 349.687 2496.03 502.171C2648.51 654.655 2895.74 654.655 3048.22 502.171Z" fill="#949494"/>
<path d="M3046.84 500.785C3198.56 349.066 3198.56 103.082 3046.84 -48.637C2895.12 -200.356 2649.13 -200.356 2497.42 -48.637C2345.7 103.082 2345.7 349.066 2497.42 500.785C2649.13 652.504 2895.12 652.504 3046.84 500.785Z" fill="#9C9C9C"/>
<path d="M3045.45 499.399C3196.41 348.446 3196.41 103.702 3045.45 -47.2511C2894.5 -198.204 2649.76 -198.204 2498.8 -47.2511C2347.85 103.702 2347.85 348.446 2498.8 499.399C2649.76 650.352 2894.5 650.352 3045.45 499.399Z" fill="#A5A5A5"/>
<path d="M3044.07 498.013C3194.25 347.825 3194.25 104.323 3044.07 -45.865C2893.88 -196.053 2650.38 -196.053 2500.19 -45.865C2350 104.323 2350 347.826 2500.19 498.013C2650.38 648.201 2893.88 648.201 3044.07 498.013Z" fill="#ADADAD"/>
<path d="M3042.68 496.627C3192.1 347.205 3192.1 104.943 3042.68 -44.4792C2893.26 -193.902 2651 -193.902 2501.57 -44.4791C2352.15 104.943 2352.15 347.205 2501.57 496.627C2651 646.05 2893.26 646.05 3042.68 496.627Z" fill="#B5B5B5"/>
<path d="M3041.29 495.234C3189.94 346.581 3189.94 105.567 3041.29 -43.0861C2892.63 -191.739 2651.62 -191.739 2502.97 -43.0861C2354.31 105.567 2354.31 346.581 2502.97 495.234C2651.62 643.887 2892.63 643.887 3041.29 495.234Z" fill="#BDBDBD"/>
<path d="M3039.9 493.848C3187.79 345.961 3187.79 106.187 3039.9 -41.7002C2892.01 -189.588 2652.24 -189.588 2504.35 -41.7002C2356.47 106.187 2356.47 345.961 2504.35 493.848C2652.24 641.736 2892.01 641.736 3039.9 493.848Z" fill="#C5C5C5"/>
<path d="M3038.52 492.462C3185.64 345.34 3185.64 106.808 3038.52 -40.3143C2891.39 -187.437 2652.86 -187.437 2505.74 -40.3143C2358.62 106.808 2358.62 345.34 2505.74 492.462C2652.86 639.585 2891.39 639.585 3038.52 492.462Z" fill="#CECECE"/>
<path d="M3037.13 491.076C3183.49 344.72 3183.49 107.428 3037.13 -38.9284C2890.77 -185.285 2653.48 -185.285 2507.12 -38.9284C2360.77 107.428 2360.77 344.72 2507.12 491.076C2653.48 637.433 2890.77 637.433 3037.13 491.076Z" fill="#D6D6D6"/>
<path d="M3035.74 489.673C3181.32 344.086 3181.32 108.042 3035.74 -37.5455C2890.15 -183.133 2654.11 -183.133 2508.52 -37.5455C2362.93 108.042 2362.93 344.086 2508.52 489.673C2654.11 635.261 2890.15 635.261 3035.74 489.673Z" fill="#DEDEDE"/>
<path d="M3034.35 488.288C3179.17 343.466 3179.17 108.663 3034.35 -36.1594C2889.53 -180.981 2654.73 -180.981 2509.9 -36.1593C2365.08 108.663 2365.08 343.466 2509.9 488.288C2654.73 633.11 2889.53 633.11 3034.35 488.288Z" fill="#E6E6E6"/>
<path d="M3032.96 486.902C3177.02 342.845 3177.02 109.283 3032.96 -34.7736C2888.91 -178.83 2655.35 -178.83 2511.29 -34.7735C2367.23 109.283 2367.23 342.845 2511.29 486.902C2655.35 630.958 2888.91 630.958 3032.96 486.902Z" fill="#EFEFEF"/>
<path d="M2772.13 592.99C2974.77 592.99 3139.05 428.714 3139.05 226.07C3139.05 23.4256 2974.77 -140.85 2772.13 -140.85C2569.49 -140.85 2405.21 23.4256 2405.21 226.07C2405.21 428.714 2569.49 592.99 2772.13 592.99Z" fill="#F7F7F7"/>
<path d="M2772.13 591.03C2973.69 591.03 3137.09 427.632 3137.09 226.07C3137.09 24.5083 2973.69 -138.89 2772.13 -138.89C2570.57 -138.89 2407.17 24.5083 2407.17 226.07C2407.17 427.632 2570.57 591.03 2772.13 591.03Z" fill="white"/>
</g>
</g>
<defs>
<linearGradient id="paint0_linear_351_7" x1="41.1399" y1="707" x2="3041.14" y2="707" gradientUnits="userSpaceOnUse">
<stop stop-color="white"/>
<stop offset="0.19" stop-color="#F8F9FA"/>
<stop offset="1" stop-color="#DAE2E5"/>
</linearGradient>
<linearGradient id="paint1_linear_351_7" x1="2910.21" y1="-296.01" x2="3764.82" y2="2432.17" gradientUnits="userSpaceOnUse">
<stop stop-color="#DBE3E6"/>
<stop offset="0.08" stop-color="#DAE2E4"/>
<stop offset="0.13" stop-color="#D8DDDB"/>
<stop offset="0.17" stop-color="#D4D5CD"/>
<stop offset="0.21" stop-color="#CFCAB9"/>
<stop offset="0.24" stop-color="#C8BB9F"/>
<stop offset="0.27" stop-color="#BFA980"/>
<stop offset="0.29" stop-color="#B4935A"/>
<stop offset="0.32" stop-color="#A97B2F"/>
<stop offset="0.33" stop-color="#A4711E"/>
<stop offset="0.37" stop-color="#C29944"/>
<stop offset="0.41" stop-color="#DBBA64"/>
<stop offset="0.45" stop-color="#ECD27A"/>
<stop offset="0.49" stop-color="#F7E188"/>
<stop offset="0.52" stop-color="#FBE68D"/>
<stop offset="0.56" stop-color="#F8E289"/>
<stop offset="0.59" stop-color="#F0D77F"/>
<stop offset="0.63" stop-color="#E2C46C"/>
<stop offset="0.66" stop-color="#CEA953"/>
<stop offset="0.7" stop-color="#B48632"/>
<stop offset="0.71" stop-color="#AA7825"/>
<stop offset="0.74" stop-color="#B48D4B"/>
<stop offset="0.79" stop-color="#C0A77A"/>
<stop offset="0.83" stop-color="#C9BCA0"/>
<stop offset="0.88" stop-color="#D1CDBE"/>
<stop offset="0.92" stop-color="#D7D8D4"/>
<stop offset="0.96" stop-color="#DAE0E1"/>
<stop offset="1" stop-color="#DBE2E5"/>
</linearGradient>
<linearGradient id="paint2_linear_351_7" x1="2569.69" y1="1217.2" x2="1348.82" y2="-3.67002" gradientUnits="userSpaceOnUse">
<stop stop-color="#DBE3E6"/>
<stop offset="0.08" stop-color="#DAE2E4"/>
<stop offset="0.13" stop-color="#D8DDDB"/>
<stop offset="0.17" stop-color="#D4D5CD"/>
<stop offset="0.21" stop-color="#CFCAB9"/>
<stop offset="0.24" stop-color="#C8BB9F"/>
<stop offset="0.27" stop-color="#BFA980"/>
<stop offset="0.29" stop-color="#B4935A"/>
<stop offset="0.32" stop-color="#A97B2F"/>
<stop offset="0.33" stop-color="#A4711E"/>
<stop offset="0.37" stop-color="#C29944"/>
<stop offset="0.41" stop-color="#DBBA64"/>
<stop offset="0.45" stop-color="#ECD27A"/>
<stop offset="0.49" stop-color="#F7E188"/>
<stop offset="0.52" stop-color="#FBE68D"/>
<stop offset="0.56" stop-color="#F8E289"/>
<stop offset="0.59" stop-color="#F0D77F"/>
<stop offset="0.63" stop-color="#E2C46C"/>
<stop offset="0.66" stop-color="#CEA953"/>
<stop offset="0.7" stop-color="#B48632"/>
<stop offset="0.71" stop-color="#AA7825"/>
<stop offset="0.74" stop-color="#B48D4B"/>
<stop offset="0.79" stop-color="#C0A77A"/>
<stop offset="0.83" stop-color="#C9BCA0"/>
<stop offset="0.88" stop-color="#D1CDBE"/>
<stop offset="0.92" stop-color="#D7D8D4"/>
<stop offset="0.96" stop-color="#DAE0E1"/>
<stop offset="1" stop-color="#DBE2E5"/>
</linearGradient>
<linearGradient id="paint3_linear_351_7" x1="623.93" y1="1323.07" x2="3671.41" y2="1553.16" gradientUnits="userSpaceOnUse">
<stop stop-color="#DBE3E6"/>
<stop offset="0.08" stop-color="#DAE2E4"/>
<stop offset="0.13" stop-color="#D8DDDB"/>
<stop offset="0.17" stop-color="#D4D5CD"/>
<stop offset="0.21" stop-color="#CFCAB9"/>
<stop offset="0.24" stop-color="#C8BB9F"/>
<stop offset="0.27" stop-color="#BFA980"/>
<stop offset="0.29" stop-color="#B4935A"/>
<stop offset="0.32" stop-color="#A97B2F"/>
<stop offset="0.33" stop-color="#A4711E"/>
<stop offset="0.37" stop-color="#C29944"/>
<stop offset="0.41" stop-color="#DBBA64"/>
<stop offset="0.45" stop-color="#ECD27A"/>
<stop offset="0.49" stop-color="#F7E188"/>
<stop offset="0.52" stop-color="#FBE68D"/>
<stop offset="0.56" stop-color="#F8E289"/>
<stop offset="0.59" stop-color="#F0D77F"/>
<stop offset="0.63" stop-color="#E2C46C"/>
<stop offset="0.66" stop-color="#CEA953"/>
<stop offset="0.7" stop-color="#B48632"/>
<stop offset="0.71" stop-color="#AA7825"/>
<stop offset="0.74" stop-color="#B48D4B"/>
<stop offset="0.79" stop-color="#C0A77A"/>
<stop offset="0.83" stop-color="#C9BCA0"/>
<stop offset="0.88" stop-color="#D1CDBE"/>
<stop offset="0.92" stop-color="#D7D8D4"/>
<stop offset="0.96" stop-color="#DAE0E1"/>
<stop offset="1" stop-color="#DBE2E5"/>
</linearGradient>
<linearGradient id="paint4_linear_351_7" x1="1546.13" y1="-673.8" x2="2992.38" y2="570.54" gradientUnits="userSpaceOnUse">
<stop stop-color="#DBE3E6"/>
<stop offset="0.08" stop-color="#DAE2E4"/>
<stop offset="0.13" stop-color="#D8DDDB"/>
<stop offset="0.17" stop-color="#D4D5CD"/>
<stop offset="0.21" stop-color="#CFCAB9"/>
<stop offset="0.24" stop-color="#C8BB9F"/>
<stop offset="0.27" stop-color="#BFA980"/>
<stop offset="0.29" stop-color="#B4935A"/>
<stop offset="0.32" stop-color="#A97B2F"/>
<stop offset="0.33" stop-color="#A4711E"/>
<stop offset="0.37" stop-color="#C29944"/>
<stop offset="0.41" stop-color="#DBBA64"/>
<stop offset="0.45" stop-color="#ECD27A"/>
<stop offset="0.49" stop-color="#F7E188"/>
<stop offset="0.52" stop-color="#FBE68D"/>
<stop offset="0.56" stop-color="#F8E289"/>
<stop offset="0.59" stop-color="#F0D77F"/>
<stop offset="0.63" stop-color="#E2C46C"/>
<stop offset="0.66" stop-color="#CEA953"/>
<stop offset="0.7" stop-color="#B48632"/>
<stop offset="0.71" stop-color="#AA7825"/>
<stop offset="0.74" stop-color="#B48D4B"/>
<stop offset="0.79" stop-color="#C0A77A"/>
<stop offset="0.83" stop-color="#C9BCA0"/>
<stop offset="0.88" stop-color="#D1CDBE"/>
<stop offset="0.92" stop-color="#D7D8D4"/>
<stop offset="0.96" stop-color="#DAE0E1"/>
<stop offset="1" stop-color="#DBE2E5"/>
</linearGradient>
<linearGradient id="paint5_linear_351_7" x1="2416.54" y1="1757.29" x2="3388.54" y2="-848.8" gradientUnits="userSpaceOnUse">
<stop stop-color="#DBE3E6"/>
<stop offset="0.08" stop-color="#DAE2E4"/>
<stop offset="0.13" stop-color="#D8DDDB"/>
<stop offset="0.17" stop-color="#D4D5CD"/>
<stop offset="0.21" stop-color="#CFCAB9"/>
<stop offset="0.24" stop-color="#C8BB9F"/>
<stop offset="0.27" stop-color="#BFA980"/>
<stop offset="0.29" stop-color="#B4935A"/>
<stop offset="0.32" stop-color="#A97B2F"/>
<stop offset="0.33" stop-color="#A4711E"/>
<stop offset="0.37" stop-color="#C29944"/>
<stop offset="0.41" stop-color="#DBBA64"/>
<stop offset="0.45" stop-color="#ECD27A"/>
<stop offset="0.49" stop-color="#F7E188"/>
<stop offset="0.52" stop-color="#FBE68D"/>
<stop offset="0.56" stop-color="#F8E289"/>
<stop offset="0.59" stop-color="#F0D77F"/>
<stop offset="0.63" stop-color="#E2C46C"/>
<stop offset="0.66" stop-color="#CEA953"/>
<stop offset="0.7" stop-color="#B48632"/>
<stop offset="0.71" stop-color="#AA7825"/>
<stop offset="0.74" stop-color="#B48D4B"/>
<stop offset="0.79" stop-color="#C0A77A"/>
<stop offset="0.83" stop-color="#C9BCA0"/>
<stop offset="0.88" stop-color="#D1CDBE"/>
<stop offset="0.92" stop-color="#D7D8D4"/>
<stop offset="0.96" stop-color="#DAE0E1"/>
<stop offset="1" stop-color="#DBE2E5"/>
</linearGradient>
<linearGradient id="paint6_linear_351_7" x1="1968.61" y1="1527.22" x2="4119.21" y2="1010.7" gradientUnits="userSpaceOnUse">
<stop stop-color="#DBE3E6"/>
<stop offset="0.08" stop-color="#DAE2E4"/>
<stop offset="0.13" stop-color="#D8DDDB"/>
<stop offset="0.17" stop-color="#D4D5CD"/>
<stop offset="0.21" stop-color="#CFCAB9"/>
<stop offset="0.24" stop-color="#C8BB9F"/>
<stop offset="0.27" stop-color="#BFA980"/>
<stop offset="0.29" stop-color="#B4935A"/>
<stop offset="0.32" stop-color="#A97B2F"/>
<stop offset="0.33" stop-color="#A4711E"/>
<stop offset="0.37" stop-color="#C29944"/>
<stop offset="0.41" stop-color="#DBBA64"/>
<stop offset="0.45" stop-color="#ECD27A"/>
<stop offset="0.49" stop-color="#F7E188"/>
<stop offset="0.52" stop-color="#FBE68D"/>
<stop offset="0.56" stop-color="#F8E289"/>
<stop offset="0.59" stop-color="#F0D77F"/>
<stop offset="0.63" stop-color="#E2C46C"/>
<stop offset="0.66" stop-color="#CEA953"/>
<stop offset="0.7" stop-color="#B48632"/>
<stop offset="0.71" stop-color="#AA7825"/>
<stop offset="0.74" stop-color="#B48D4B"/>
<stop offset="0.79" stop-color="#C0A77A"/>
<stop offset="0.83" stop-color="#C9BCA0"/>
<stop offset="0.88" stop-color="#D1CDBE"/>
<stop offset="0.92" stop-color="#D7D8D4"/>
<stop offset="0.96" stop-color="#DAE0E1"/>
<stop offset="1" stop-color="#DBE2E5"/>
</linearGradient>
</defs>
</svg>
