<svg xmlns="http://www.w3.org/2000/svg" viewBox="0 0 910.28 219.19"><title>Recurso 1</title><path d="M0,0H52.53V2.15c-16.73,0-17.9,15.26-17.9,57.59v95.41c0,42.33,1.17,57.59,17.9,57.59v2.15H0v-2.15c16.73,0,17.9-15.26,17.9-57.59V59.74C17.9,17.41,16.73,2.15,0,2.15Z" style="fill:#003073"/><path d="M70,179.86h2C72,190,88.52,217.68,119.06,217c21.21-.43,42.22-14.18,42.22-38.9,0-45.34-88.52-21.92-88.52-82.3,0-20.2,16.15-37.39,47.86-37.39,32.88,0,48.25,15,48.25,15V98.85h-.78C160.5,74.14,143.38,60.6,122.56,60.6,98.05,60.6,84,75.64,84,91.76c0,44.48,93,24.07,93,83.59,0,31.59-27.82,43.84-58,43.84-20.62,0-36.57-4.3-49-13.11Z" style="fill:#003073"/><path d="M298.82,85.1c0-17.41-18.28-24.5-34-24.5-18.48,0-36.38,7.09-36.38,24.93,0,8.16,6,11.82,7.78,9.88,1.94,6.45-4.48,12.46-10.9,12.46-8.36,0-14-8-14-17.19,0-21.27,22.95-32.23,53.5-32.23,22,0,50.58,10.1,50.58,27.08,0,34.59-97.86,3.22-97.86,87.24,0,22.35,12.84,39.33,31.91,39.33,21,0,47.66-23.86,47.66-86.39,0-4.73-.39-9.67-3.3-10.53,0-1.29,2.14-3,5.25-3,14.2,0,16,16.33,16,33.53,0,19.12.2,22.34.2,45.12,0,18.05,9.53,21.92,14.78,21.92v2.15H316.14c-10.31,0-18.48-10.53-18.48-26.65V151.5c-7,37-19.85,67.69-53.89,67.69-25.1,0-43.39-20-43.39-47.71C200.38,95.84,298.82,120.55,298.82,85.1Z" style="fill:#003073"/><path d="M339.68,214.89v-2.15c16.73,0,17.89-15.26,17.89-57.59V59.74c0-42.33-1.16-57.59-17.89-57.59V0h34.63V87.89c11.67-19.34,28-29.44,47.27-29.44,32.49,0,57,25.36,57,66.62,0,57.16-33.07,89.82-78,89.82Zm34.63-7.95a49.49,49.49,0,0,0,23.92,5.8c33.27,0,63.62-36.32,63.62-83.16,0-48.35-25.68-66-48.63-66-20,0-38.91,15-38.91,57.37Z" style="fill:#003073"/><path d="M501.93,138.82c0-44.27,24.9-80.37,66.73-80.37s59.72,27.29,59.53,49c-.2,24.29-12.84,38.9-35.22,38.9-31.32,0-40.85-19.13-59.92-19.13-4.67,0-8.95,3.66-9.53,5.38l-.78-.22c0-8.81,7-17.19,20.43-17.19,20.43,0,35.6,28.58,51.17,28.58,28.79,0,29.57-82.73-26.07-82.73-39.5,0-50,46.84-49.61,77.14.39,40,21.2,73.71,57,73.71,15.37,0,41.05-9.24,50.58-37l2.73,1.29c-10.12,25.57-31.33,43-60.31,43C526.83,219.19,501.93,183.09,501.93,138.82Z" style="fill:#003073"/><path d="M646.47,212.74c16.73,0,17.9-15.26,17.9-57.59V59.74c0-42.33-1.17-57.59-17.9-57.59V0H681.1V155.15c0,42.33,1.17,57.59,17.9,57.59v2.15H646.47Z" style="fill:#003073"/><path d="M710.67,212.74c16.73,0,17.9-15.26,17.9-57.59V59.74c0-42.33-1.17-57.59-17.9-57.59V0H745.3V155.15c0,42.33,1.17,57.59,17.9,57.59v2.15H710.67Z" style="fill:#003073"/><path d="M879.15,85.1c0-17.41-18.29-24.5-34-24.5-18.48,0-36.38,7.09-36.38,24.93,0,8.16,6,11.82,7.78,9.88,2,6.45-4.47,12.46-10.89,12.46-8.37,0-14-8-14-17.19,0-21.27,23-32.23,53.5-32.23,22,0,50.59,10.1,50.59,27.08,0,34.59-97.86,3.22-97.86,87.24,0,22.35,12.84,39.33,31.9,39.33,21,0,47.67-23.86,47.67-86.39,0-4.73-.39-9.67-3.31-10.53,0-1.29,2.14-3,5.25-3,14.21,0,16,16.33,16,33.53,0,19.12.19,22.34.19,45.12,0,18.05,9.53,21.92,14.79,21.92v2.15H896.46c-10.31,0-18.48-10.53-18.48-26.65V151.5c-7,37-19.84,67.69-53.89,67.69-25.1,0-43.38-20-43.38-47.71C780.71,95.84,879.15,120.55,879.15,85.1Z" style="fill:#003073"/></svg>