<svg xmlns="http://www.w3.org/2000/svg" viewBox="0 0 613.46 522.24"><polygon points="79.37 72.22 86.6 97.81 110.01 97.81 91.08 113.62 98.31 139.2 79.37 123.38 60.44 139.2 67.67 113.62 48.74 97.81 72.14 97.81 79.37 72.22" style="fill:#1d1d1b"/><polygon points="427.41 201.18 426 227.74 443.7 236.5 425.14 244.16 423.74 270.71 413.67 248.89 395.12 256.55 407.45 235.4 397.38 213.57 415.07 222.33 427.41 201.18"/><polygon points="23.8 314.88 36.49 340.6 59.03 332.7 44.32 356.49 57.01 382.22 35.23 371.2 20.52 395 21.77 364.39 0 353.38 22.55 345.48 23.8 314.88" style="fill:#1d1d1b"/><polygon points="542.13 416.27 553.14 438.6 572.72 431.75 559.95 452.4 570.96 474.74 552.06 465.18 539.29 485.84 540.37 459.26 521.46 449.69 541.04 442.84 542.13 416.27" style="fill:#1d1d1b"/><polygon points="85.92 435.57 60.45 451.09 50.98 424.32 76.47 408.81 85.92 435.57" style="fill:#1d1d1b"/><polygon points="274.44 281.72 246.58 286.36 243.75 257.08 271.62 252.46 274.44 281.72" style="fill:#1d1d1b"/><polygon points="341.33 153.03 323.95 145.51 327.01 132.58 344.38 140.09 341.33 153.03" style="fill:#1d1d1b"/><polygon points="343.29 519.34 322.61 509.71 328.48 487.98 349.15 497.61 343.29 519.34"/><polygon points="164.27 477.61 142.37 479.39 141.27 456.38 163.17 454.59 164.27 477.61"/><polygon points="219.56 414.41 197.66 416.2 203.79 393.19 225.69 391.4 219.56 414.41"/><polygon points="558.92 279.95 537.87 271.79 542.83 249.69 563.88 257.83 558.92 279.95"/><path d="M170.44,401.34C107,445.4,69.71,367,68.91,312.27a8.17,8.17,0,0,0-3.29-5.17C39.38,291.88,26.53,268.35,24,238.93c-1.92-22.51,4.12-64.48,29.76-71.11,12.73-2.27,19.34,14.51,9,21.37-7.22,4.69-15.87.91-19.7-6.12-23.25,33.69-14.88,96.84,25.56,115.81-.84-157.62,138-213.55,123.43-83.76-.08,1.64.14,3.84,1.15,4.92,13.72,14.62,18.71,32.77,20.46,51.92,6.11,49.1-11.72,85.7-34.79,125.58,58.85,93.25,71.42,8.53,50.74,15.66-4.51,1.05-6.55-3.83-5-7.19,7.79-10.32,21.84,5.12,21.88,14.33,2.42,27-27,40.11-45.51,20.41C188.18,429.48,180,415.22,170.44,401.34Zm12.72-189.75c6.82-26.73-6.93-78.59-42.23-53.11C104.48,193.36,96.74,255,97,303.37c42.21-3.88,72.21-38.85,82.87-77.67,1.05-3.67-.73-5.89-4.87-6.67-7.71-1.94-10.68,10.2-18.07,6.34-9.19-6.33-1-20.34,9.79-18C172,208.16,177.23,210,183.16,211.59ZM167.29,381.33c21.9-47.42,28.41-95.54,20.36-147.07-17.35,38.1-43.46,70.6-86.89,76.84-2.86.46-3.55,1.64-3.24,4.28,1.84,26.72,9.22,104.31,51.54,84.44,3.44-2.87,11.85-7.29,11.39-12.22-4.3-7.71-23.8-19.64-31.89-10.91-7.71,7.71-12.76-7.63-3.73-10.2C141.11,360.82,156.09,367.63,167.29,381.33Z"/><path d="M372.79,421.13c134-58.91,195.34,60.42,109.73,96.91-56.4,19.09-104.58-30.27-123.63-79.34-49.31,24.39-95.33,57.69-150.4,68-51.11,13.18-115.73-29.35-101.65-85.84l2.1.26c8.67,145.19,174.58,50.87,245.14,10-4.68-21-9.29-41.6-13.9-62.23l.86-.55C310.88,470.72,280.4,415.32,281,343c-6.45,16.48-7.9,34.83-17.18,50.07-13.24,19.59-29.38-6.86-30-21.11-3.38-19.85-2.68-39.78-.87-59.73.11-6.84,7.45-5.32,12.17-5.09,19.3-2.87-3.53,67.17,13.05,84.81,14-13.78,23.85-76.47,24.54-97.77.87-11.19,14.19-3.42,20.26-1.51,1.45.64,2.59,3.83,2.53,5.81-.88,36.74-5.91,74.06,2.43,110.26,2.24,5.63,5.93,6.42,8.78,1.06,6.83-13.57,13.69-27.31,18.84-41.63A74.48,74.48,0,0,0,340.74,338c-.37-8.44.86-16.94,1.23-25.42.18-4.18,2.37-6.07,6.3-5.88,6,.74,15.44.23,13.91,9.11C359,351.43,361.31,387,372.79,421.13Zm2.51,9.17c15.45,47.65,59,105.31,114.56,75.79,49.23-30.64,13-90.72-34.56-90.72C427.75,413,401.46,419,375.3,430.3Z"/><path d="M440.56,117.37c-13.24,24.87-25.41,48.55-42.18,71-2.09,2.85-2.08,7.44-2.48,11.29-.49,21.9-31.41,27.34-25.43,9.43,3.06-6.77,10.82-12.19,11.39-19.91-1.56-17.34-10.86-30.83-19.55-45.6-14.07,36.83-26.26,87.4-69.37,98.58-29.83,3.72-28.4-16.46-42.82-21.51-29.92-5-38.52-39.86-32.16-65.47,12.61-34.74,29.25,6.39,4.92,1.31-6.08,22.13.38,55,30,60.14-28.86-66.54,43.27-137.84,59.67-77.12,3.86,35.49-15.36,69.45-49.18,82,3.66,10.09,17,16.82,29,14.18,38-11.65,49.07-56.49,62.39-89.32,7.77-20.48-14.76-37.58-10.11-64-1.18-15.56,25.44-54.61,34.38-25.15,2.05,14.81,2.57,30.78-1.36,45.42-1.84,6.61-.73,12.34,2,18.55A189.83,189.83,0,0,1,395,181.12c16-23.33,30.26-47.38,42.17-73,3.86-22.17.21-45.55,7.7-67.49,3.4-8.85,7.27-23.67,19.53-21.38,14.8,5.11,8.33,39.64,2.61,50-15.91,9.7,12.68,267,39.93,194.72,3.55-7.28,7.95-5.77,11.55-.35,5.31,19-24.43,27.52-36.13,14.66C447.4,234.37,448,170.73,440.56,117.37ZM260.72,217c44.23-10.28,64.63-97.19,29.65-85.42C264.51,147.48,249.2,187.79,260.72,217ZM371.59,102.79c2.68-15.07,8-32.09.64-46.63C365.6,47.29,361.82,63,362,68.05,362.25,80.29,366.41,91.66,371.59,102.79Zm88.15-30.37,1.11.42c2.77-9.26,10.09-38.95,4-46.22C455.43,32.73,461.24,60.94,459.74,72.42Z"/><path d="M405.59,344.77c5.78-15.36,12-81.32,38.74-54.24,18.66,9.14-8.73,147.68,19.6,92,13.89-25.2,3.87-57,23.32-80.23,15.73-20.78,43.31-11.6,44.1,12.4.07,7.81,3.37,44.88-12,28.76-6.83-6.86,6.53-22.66,1.25-37-22.42-38.16-41.11,126.36,1.48,88.67,10.05-8.88,20.28-21.41,19.32-35.42-2.77-27.56.15-74.36,35-78.27,8.93.21,14.76,5.79,15.19,14.79,1.58,25.67-10.27,38.19-26.88,54.85,2.09,10.46-1.95,58.61,18.52,43.09,17.07-16.25,18.55-41,28.36-61.13l1.9.51c-2.68,17.49-11.5,34.25-17,51.22-1.75,4.54-5.2,8.47-8.1,12.52-19,21.46-40.16-3.88-44.39-23.39-21,44.82-56.87,54.69-70.19-.52-3.71,9.28-7.16,16.37-12.62,24.23-14.82,18.71-32.6-7.21-31.26-23.07-1.75-26,3.1-52.79-.9-78.32l-1.76-.51c-1.54,2.31-3.83,4.42-4.51,7-3.87,14.59-7.56,29.24-10.91,44-3.28,11.05-3,23.79-7.63,34.15-4.65,3.23-16.2-2-16.57-7.62-2-25.27,0-50.59.49-75.88-.13-8.43,8.9-6.25,14.34-5.2,4.32,1,6.34,2.92,5.71,8.41C407,315.07,404.92,330.41,405.59,344.77Zm158-6.37,2.2,1c16.12-6,30.4-60.24,10.89-47C566.47,304,568,323.78,563.6,338.4Z"/><path d="M320.88,35.24c-8.41,21.87-12,43.81-14.61,67.23-43.11-2.58-89.66,10.26-125.47,35.66-11.29-19.31-26.31-35.08-43.59-49,45.53,26.61,39.62-5.47,24.3-36.88-12.54,2.82-18.26-7.71-10.43-14.62,8.38-5.28,17.3,3.44,10.77,13.61,42.81,47.17,59.76,26.39,52.75-29.19-.09-1.1-2.53-2.4-4.1-2.91-11.35-3.08-7.79-20.91,4.17-19,5,.71,9,5.35,8.07,10.22-.55,3.41-5.12,7-4.53,10.59,8.16,16.14,28.36,60.72,48.09,32.69,4-5.57,15.89-32.38,9.55-36.75-13.52-9.57,8.37-24.43,12.4-8.72,2.28,9.62-9,7.1-7.88,14.05,3.28,13-.78,34.47,15.55,39.08,14.3.86,18.28-16.63,24.73-26.25Z"/><path d="M539.71,183.27c-4.42,13.25-8.32,24.71-16.1,35.85-19.16,22.23-31.34-16.5-29.72-32.06-.28-11.79.6-23.6.87-35.41.07-3.18,1.65-4.54,4.62-4.59,6.24-.25,13.39.1,12.33,8.24-.92,23.1-5.55,103.46,20.8,37.93,3.32-8.12,4.58-15.54.15-24.41-14.13-25.42,16.82-61.53,19.9-38.81-11,53.17-11.84,24.36,16.51,68,12.85,16.94,1.84,51.48-22.69,47-15.74-3.69-19.58-24.78-11.66-37.1,2.34-4,6.2-5.05,9.24-2.95,7.31,5.47-1.45,12.95-4.91,18C531.84,253.13,580.72,245.05,539.71,183.27Z"/><path d="M505.71,127.08l-2.22,3-.65-.29,1.3-4.35c-5.8,3.23-11.31,7.38-18.4,5.57.76-7.47-.7-15,9.81-11.32-4-2.78-7.51-4.83-7.75-9.21,1.79-6.47,1.81-14.12,5.7-19.63,10,6.78,12.6,16.6,12.19,28.25l2.85-.89c-.17,1.08-.32,2.06-.63,4,7.78-9.13,17.57-16.18,29.36-12.86-.6,4.69-3.34,8.23-5.91,12-5.16,8.46-5.14,8.48-14.05,7,5,4.2,4.88,7.62,1,12.61C510.75,149.32,508.29,131.87,505.71,127.08Z"/><path d="M374.81,268.26c-1,8.76-4.93,16.66-13.85,21.22-25,9.57-22.86-27.73-7.08-36.12C364.27,246.7,375.84,256.37,374.81,268.26Z"/><path d="M407.05,31.39c0,6.36.33,12.2,5.93,15.44L404.7,59.55c-.67-5.73-3.82-10.21-10.29-12.78C402.31,44.41,404.92,38.29,407.05,31.39Z"/><path d="M125.34,120c-2.31,5.6-1.8,10.36,2,13.91l-9.18,7.39c-1.92-3.7-4-7.71-6.15-11.87C117.55,129.32,121.79,125.38,125.34,120Z"/><path d="M320.65,35.05c-9.4-7.23.39-19.5,7.78-10.24,2.73,5.57-2.49,9.61-7.55,10.43Z"/><path d="M134.81,87.68c-8.4,1.86-14.88-.08-10.34-9.63,1.17-1.42,4.56-2,6.58-1.51C136.17,77.73,134.61,83.63,134.81,87.68Z"/></svg>