<svg xmlns="http://www.w3.org/2000/svg" xmlns:xlink="http://www.w3.org/1999/xlink" viewBox="0 0 4009.57 3066.57"><defs><linearGradient id="a" x1="41.14" y1="1568.23" x2="3041.14" y2="1568.23" gradientUnits="userSpaceOnUse"><stop offset="0" stop-color="#fff"/><stop offset="0.19" stop-color="#f8f9fa"/><stop offset="1" stop-color="#dae2e5"/></linearGradient><clipPath id="b" transform="translate(41.14 861.23)"><rect x="-41.14" y="10.29" width="3000" height="1414" style="fill:none"/></clipPath><linearGradient id="c" x1="2869.07" y1="-296.01" x2="3723.68" y2="2432.17" gradientUnits="userSpaceOnUse"><stop offset="0" stop-color="#dbe3e6"/><stop offset="0.08" stop-color="#dae2e4"/><stop offset="0.13" stop-color="#d8dddb"/><stop offset="0.17" stop-color="#d4d5cd"/><stop offset="0.21" stop-color="#cfcab9"/><stop offset="0.24" stop-color="#c8bb9f"/><stop offset="0.27" stop-color="#bfa980"/><stop offset="0.29" stop-color="#b4935a"/><stop offset="0.32" stop-color="#a97b2f"/><stop offset="0.33" stop-color="#a4711e"/><stop offset="0.37" stop-color="#c29944"/><stop offset="0.41" stop-color="#dbba64"/><stop offset="0.45" stop-color="#ecd27a"/><stop offset="0.49" stop-color="#f7e188"/><stop offset="0.52" stop-color="#fbe68d"/><stop offset="0.56" stop-color="#f8e289"/><stop offset="0.59" stop-color="#f0d77f"/><stop offset="0.63" stop-color="#e2c46c"/><stop offset="0.66" stop-color="#cea953"/><stop offset="0.7" stop-color="#b48632"/><stop offset="0.71" stop-color="#aa7825"/><stop offset="0.74" stop-color="#b48d4b"/><stop offset="0.79" stop-color="#c0a77a"/><stop offset="0.83" stop-color="#c9bca0"/><stop offset="0.88" stop-color="#d1cdbe"/><stop offset="0.92" stop-color="#d7d8d4"/><stop offset="0.96" stop-color="#dae0e1"/><stop offset="1" stop-color="#dbe2e5"/></linearGradient><linearGradient id="d" x1="2528.55" y1="1217.2" x2="1307.68" y2="-3.67" xlink:href="#c"/><linearGradient id="e" x1="582.79" y1="1323.07" x2="3630.27" y2="1553.16" xlink:href="#c"/><linearGradient id="f" x1="1504.99" y1="-673.8" x2="2951.24" y2="570.54" xlink:href="#c"/><linearGradient id="g" x1="2375.4" y1="1757.29" x2="3347.4" y2="-848.8" xlink:href="#c"/><linearGradient id="h" x1="1927.47" y1="1527.22" x2="4078.07" y2="1010.7" xlink:href="#c"/></defs><g style="isolation:isolate"><rect x="41.14" y="861.23" width="3000" height="1414" style="fill:url(#a)"/><g style="clip-path:url(#b)"><path d="M3152.3,1424.28a815.43,815.43,0,0,1-816.12-816.12,815.86,815.86,0,1,1,1133.79,752A811,811,0,0,1,3152.3,1424.28Zm0-1624c-445.46,0-807.87,362.41-807.87,807.87S2706.84,1416,3152.3,1416s807.87-362.41,807.87-807.87S3597.76-199.71,3152.3-199.71Z" transform="translate(41.14 861.23)" style="fill:url(#c)"/><path d="M1489.08,852.21a670.24,670.24,0,0,1-262.53-53A673.88,673.88,0,0,1,814.61,177.73a675.26,675.26,0,0,1,411.94-621.47,676.73,676.73,0,0,1,525.07,0,673.93,673.93,0,0,1,411.94,621.47A675.22,675.22,0,0,1,1751.62,799.2,670.33,670.33,0,0,1,1489.08,852.21Zm0-1342.13c-368.15,0-667.65,299.51-667.65,667.65s299.5,667.66,667.65,667.66,667.66-299.51,667.66-667.66S1857.23-489.92,1489.08-489.92Z" transform="translate(41.14 861.23)" style="fill:url(#d)"/><path d="M1458.86,2205.33a813.53,813.53,0,1,1,317.67-64.13A811,811,0,0,1,1458.86,2205.33Zm0-1624C1013.4,581.34,651,943.75,651,1389.21s362.42,807.87,807.88,807.87,807.87-362.4,807.87-807.87S1904.32,581.34,1458.86,581.34Z" transform="translate(41.14 861.23)" style="fill:url(#e)"/><path d="M2235.69,771A811.16,811.16,0,0,1,1918,706.88,813.5,813.5,0,0,1,1658.61,532a813.27,813.27,0,0,1-174.9-259.42,811,811,0,0,1-64.14-317.67,811,811,0,0,1,64.14-317.67,813.27,813.27,0,0,1,174.9-259.42A813.5,813.5,0,0,1,1918-797.1a811.16,811.16,0,0,1,317.67-64.13,811.09,811.09,0,0,1,317.67,64.13,813.44,813.44,0,0,1,259.42,174.9,813.44,813.44,0,0,1,174.9,259.42,810.94,810.94,0,0,1,64.13,317.67,811,811,0,0,1-64.13,317.67A813.44,813.44,0,0,1,2812.78,532a813.44,813.44,0,0,1-259.42,174.9A811.09,811.09,0,0,1,2235.69,771Zm0-1624c-445.46,0-807.87,362.41-807.87,807.87s362.41,807.87,807.87,807.87,807.87-362.41,807.87-807.87S2681.16-853,2235.69-853Z" transform="translate(41.14 861.23)" style="fill:url(#f)"/><path d="M2694.94,1716.67A816.34,816.34,0,0,1,2377.27,148.56a816.33,816.33,0,0,1,635.35,1504A811,811,0,0,1,2694.94,1716.67Zm0-1624c-445.46,0-807.87,362.41-807.87,807.87s362.41,807.88,807.87,807.88S3502.82,1346,3502.82,900.54,3140.4,92.67,2694.94,92.67Z" transform="translate(41.14 861.23)" style="fill:url(#g)"/><path d="M2999.43,2085.89a813.64,813.64,0,1,1,317.67-64.14A811,811,0,0,1,2999.43,2085.89Zm0-1624c-445.46,0-807.87,362.41-807.87,807.87s362.41,807.88,807.87,807.88,807.87-362.42,807.87-807.88S3444.89,461.89,2999.43,461.89Z" transform="translate(41.14 861.23)" style="fill:url(#h)"/><g style="opacity:0.1;mix-blend-mode:multiply"><circle cx="2812.33" cy="1169.95" r="591.65" transform="translate(37.58 3192.52) rotate(-45)"/><circle cx="2812.33" cy="1169.95" r="588.93" transform="translate(37.58 3192.52) rotate(-45)" style="fill:#080808"/><circle cx="2812.33" cy="1169.95" r="586.2" transform="translate(37.58 3192.52) rotate(-45)" style="fill:#101010"/><circle cx="2812.33" cy="1169.95" r="583.47" transform="translate(37.58 3192.52) rotate(-45)" style="fill:#191919"/><circle cx="2812.33" cy="1169.95" r="580.75" transform="translate(37.58 3192.52) rotate(-45)" style="fill:#212121"/><circle cx="2812.33" cy="1169.95" r="578.02" transform="translate(37.58 3192.52) rotate(-45)" style="fill:#292929"/><circle cx="2812.33" cy="1169.95" r="575.29" transform="translate(37.58 3192.52) rotate(-45)" style="fill:#313131"/><circle cx="2812.33" cy="1169.95" r="572.57" transform="translate(37.58 3192.52) rotate(-45)" style="fill:#3a3a3a"/><circle cx="2812.33" cy="1169.95" r="569.84" transform="translate(37.58 3192.52) rotate(-45)" style="fill:#424242"/><circle cx="2812.33" cy="1169.95" r="567.11" transform="translate(37.58 3192.52) rotate(-45)" style="fill:#4a4a4a"/><circle cx="2812.33" cy="1169.95" r="564.39" transform="translate(37.58 3192.52) rotate(-45)" style="fill:#525252"/><circle cx="2812.33" cy="1169.95" r="561.66" transform="translate(37.58 3192.52) rotate(-45)" style="fill:#5a5a5a"/><circle cx="2812.33" cy="1169.95" r="558.93" transform="translate(37.58 3192.52) rotate(-45)" style="fill:#636363"/><circle cx="2812.33" cy="1169.95" r="556.21" transform="translate(37.58 3192.52) rotate(-45)" style="fill:#6b6b6b"/><circle cx="2812.33" cy="1169.95" r="553.48" transform="translate(37.58 3192.52) rotate(-45)" style="fill:#737373"/><circle cx="2812.33" cy="1169.95" r="550.75" transform="translate(37.58 3192.52) rotate(-45)" style="fill:#7b7b7b"/><circle cx="2812.33" cy="1169.95" r="548.03" transform="translate(37.58 3192.52) rotate(-45)" style="fill:#848484"/><circle cx="2812.33" cy="1169.95" r="545.3" transform="translate(37.58 3192.52) rotate(-45)" style="fill:#8c8c8c"/><circle cx="2812.33" cy="1169.95" r="542.58" transform="translate(37.58 3192.52) rotate(-45)" style="fill:#949494"/><circle cx="2812.33" cy="1169.95" r="539.85" transform="translate(37.58 3192.52) rotate(-45)" style="fill:#9c9c9c"/><circle cx="2812.33" cy="1169.95" r="537.12" transform="translate(37.58 3192.52) rotate(-45)" style="fill:#a5a5a5"/><circle cx="2812.33" cy="1169.95" r="534.4" transform="translate(37.58 3192.52) rotate(-45)" style="fill:#adadad"/><circle cx="2812.33" cy="1169.95" r="531.67" transform="translate(37.58 3192.52) rotate(-45)" style="fill:#b5b5b5"/><circle cx="2812.33" cy="1169.95" r="528.94" transform="translate(37.58 3192.52) rotate(-45)" style="fill:#bdbdbd"/><circle cx="2812.33" cy="1169.95" r="526.22" transform="translate(37.58 3192.52) rotate(-45)" style="fill:#c5c5c5"/><circle cx="2812.33" cy="1169.95" r="523.49" transform="translate(37.58 3192.52) rotate(-45)" style="fill:#cecece"/><circle cx="2812.33" cy="1169.95" r="520.76" transform="translate(37.58 3192.52) rotate(-45)" style="fill:#d6d6d6"/><circle cx="2812.33" cy="1169.95" r="518.04" transform="translate(37.58 3192.52) rotate(-45)" style="fill:#dedede"/><circle cx="2812.33" cy="1169.95" r="515.31" transform="translate(37.58 3192.52) rotate(-45)" style="fill:#e6e6e6"/><circle cx="2812.33" cy="1169.95" r="512.58" transform="translate(37.58 3192.52) rotate(-45)" style="fill:#efefef"/><circle cx="2812.33" cy="1169.95" r="509.86" transform="translate(37.58 3192.52) rotate(-45)" style="fill:#f7f7f7"/><circle cx="2812.33" cy="1169.95" r="507.13" transform="translate(37.58 3192.52) rotate(-45)" style="fill:#fff"/></g><g style="opacity:0.1;mix-blend-mode:multiply"><circle cx="1980.09" cy="1087.3" r="674.48"/><circle cx="1980.09" cy="1087.3" r="671.37" style="fill:#080808"/><circle cx="1980.09" cy="1087.3" r="668.26" style="fill:#101010"/><circle cx="1980.09" cy="1087.3" r="665.15" style="fill:#191919"/><circle cx="1980.09" cy="1087.3" r="662.04" style="fill:#212121"/><circle cx="1980.09" cy="1087.3" r="658.93" style="fill:#292929"/><circle cx="1980.09" cy="1087.3" r="655.83" style="fill:#313131"/><circle cx="1980.09" cy="1087.3" r="652.72" style="fill:#3a3a3a"/><circle cx="1980.09" cy="1087.3" r="649.61" style="fill:#424242"/><circle cx="1980.09" cy="1087.3" r="646.5" style="fill:#4a4a4a"/><circle cx="1980.09" cy="1087.3" r="643.39" style="fill:#525252"/><circle cx="1980.09" cy="1087.3" r="640.28" style="fill:#5a5a5a"/><circle cx="1980.09" cy="1087.3" r="637.18" style="fill:#636363"/><circle cx="1980.09" cy="1087.3" r="634.07" style="fill:#6b6b6b"/><circle cx="1980.09" cy="1087.3" r="630.96" style="fill:#737373"/><circle cx="1980.09" cy="1087.3" r="627.85" style="fill:#7b7b7b"/><circle cx="1980.09" cy="1087.3" r="624.74" style="fill:#848484"/><circle cx="1980.09" cy="1087.3" r="621.64" style="fill:#8c8c8c"/><circle cx="1980.09" cy="1087.3" r="618.53" style="fill:#949494"/><circle cx="1980.09" cy="1087.3" r="615.42" style="fill:#9c9c9c"/><circle cx="1980.09" cy="1087.3" r="612.31" style="fill:#a5a5a5"/><circle cx="1980.09" cy="1087.3" r="609.2" style="fill:#adadad"/><circle cx="1980.09" cy="1087.3" r="606.09" style="fill:#b5b5b5"/><circle cx="1980.09" cy="1087.3" r="602.99" style="fill:#bdbdbd"/><circle cx="1980.09" cy="1087.3" r="599.88" style="fill:#c5c5c5"/><circle cx="1980.09" cy="1087.3" r="596.77" style="fill:#cecece"/><circle cx="1980.09" cy="1087.3" r="593.66" style="fill:#d6d6d6"/><circle cx="1980.09" cy="1087.3" r="590.55" style="fill:#dedede"/><circle cx="1980.09" cy="1087.3" r="587.45" style="fill:#e6e6e6"/><circle cx="1980.09" cy="1087.3" r="584.34" style="fill:#efefef"/><circle cx="1980.09" cy="1087.3" r="581.23" style="fill:#f7f7f7"/><circle cx="1980.09" cy="1087.3" r="578.12" style="fill:#fff"/></g><g style="opacity:0.1;mix-blend-mode:multiply"><circle cx="1305.61" cy="1863.83" r="674.47"/><circle cx="1305.61" cy="1863.83" r="671.37" style="fill:#080808"/><circle cx="1305.61" cy="1863.83" r="668.26" style="fill:#101010"/><circle cx="1305.61" cy="1863.83" r="665.15" style="fill:#191919"/><circle cx="1305.61" cy="1863.83" r="662.04" style="fill:#212121"/><circle cx="1305.61" cy="1863.83" r="658.93" style="fill:#292929"/><circle cx="1305.61" cy="1863.83" r="655.83" style="fill:#313131"/><circle cx="1305.61" cy="1863.83" r="652.72" style="fill:#3a3a3a"/><circle cx="1305.61" cy="1863.83" r="649.61" style="fill:#424242"/><circle cx="1305.61" cy="1863.83" r="646.5" style="fill:#4a4a4a"/><circle cx="1305.61" cy="1863.83" r="643.39" style="fill:#525252"/><circle cx="1305.61" cy="1863.83" r="640.28" style="fill:#5a5a5a"/><circle cx="1305.61" cy="1863.83" r="637.18" style="fill:#636363"/><circle cx="1305.61" cy="1863.83" r="634.07" style="fill:#6b6b6b"/><circle cx="1305.61" cy="1863.83" r="630.96" style="fill:#737373"/><circle cx="1305.61" cy="1863.83" r="627.85" style="fill:#7b7b7b"/><circle cx="1305.61" cy="1863.83" r="624.74" style="fill:#848484"/><circle cx="1305.61" cy="1863.83" r="621.64" style="fill:#8c8c8c"/><circle cx="1305.61" cy="1863.83" r="618.53" style="fill:#949494"/><circle cx="1305.61" cy="1863.83" r="615.42" style="fill:#9c9c9c"/><circle cx="1305.61" cy="1863.83" r="612.31" style="fill:#a5a5a5"/><circle cx="1305.61" cy="1863.83" r="609.2" style="fill:#adadad"/><circle cx="1305.61" cy="1863.83" r="606.09" style="fill:#b5b5b5"/><circle cx="1305.61" cy="1863.83" r="602.99" style="fill:#bdbdbd"/><circle cx="1305.61" cy="1863.83" r="599.88" style="fill:#c5c5c5"/><circle cx="1305.61" cy="1863.83" r="596.77" style="fill:#cecece"/><circle cx="1305.61" cy="1863.83" r="593.66" style="fill:#d6d6d6"/><circle cx="1305.61" cy="1863.83" r="590.55" style="fill:#dedede"/><circle cx="1305.61" cy="1863.83" r="587.45" style="fill:#e6e6e6"/><circle cx="1305.61" cy="1863.83" r="584.34" style="fill:#efefef"/><circle cx="1305.61" cy="1863.83" r="581.23" style="fill:#f7f7f7"/><circle cx="1305.61" cy="1863.83" r="578.12" style="fill:#fff"/></g><g style="opacity:0.1;mix-blend-mode:multiply"><circle cx="2523.44" cy="1524.05" r="674.47"/><circle cx="2523.44" cy="1524.05" r="671.37" style="fill:#080808"/><circle cx="2523.44" cy="1524.05" r="668.26" style="fill:#101010"/><circle cx="2523.44" cy="1524.05" r="665.15" style="fill:#191919"/><circle cx="2523.44" cy="1524.05" r="662.04" style="fill:#212121"/><circle cx="2523.44" cy="1524.05" r="658.93" style="fill:#292929"/><circle cx="2523.44" cy="1524.05" r="655.83" style="fill:#313131"/><circle cx="2523.44" cy="1524.05" r="652.72" style="fill:#3a3a3a"/><circle cx="2523.44" cy="1524.05" r="649.61" style="fill:#424242"/><circle cx="2523.44" cy="1524.05" r="646.5" style="fill:#4a4a4a"/><circle cx="2523.44" cy="1524.05" r="643.39" style="fill:#525252"/><circle cx="2523.44" cy="1524.05" r="640.28" style="fill:#5a5a5a"/><circle cx="2523.44" cy="1524.05" r="637.18" style="fill:#636363"/><circle cx="2523.44" cy="1524.05" r="634.07" style="fill:#6b6b6b"/><circle cx="2523.44" cy="1524.05" r="630.96" style="fill:#737373"/><circle cx="2523.44" cy="1524.05" r="627.85" style="fill:#7b7b7b"/><circle cx="2523.44" cy="1524.05" r="624.74" style="fill:#848484"/><circle cx="2523.44" cy="1524.05" r="621.64" style="fill:#8c8c8c"/><circle cx="2523.44" cy="1524.05" r="618.53" style="fill:#949494"/><circle cx="2523.44" cy="1524.05" r="615.42" style="fill:#9c9c9c"/><circle cx="2523.44" cy="1524.05" r="612.31" style="fill:#a5a5a5"/><circle cx="2523.44" cy="1524.05" r="609.2" style="fill:#adadad"/><circle cx="2523.44" cy="1524.05" r="606.09" style="fill:#b5b5b5"/><circle cx="2523.44" cy="1524.05" r="602.99" style="fill:#bdbdbd"/><circle cx="2523.44" cy="1524.05" r="599.88" style="fill:#c5c5c5"/><circle cx="2523.44" cy="1524.05" r="596.77" style="fill:#cecece"/><circle cx="2523.44" cy="1524.05" r="593.66" style="fill:#d6d6d6"/><circle cx="2523.44" cy="1524.05" r="590.55" style="fill:#dedede"/><circle cx="2523.44" cy="1524.05" r="587.45" style="fill:#e6e6e6"/><circle cx="2523.44" cy="1524.05" r="584.34" style="fill:#efefef"/><circle cx="2523.44" cy="1524.05" r="581.23" style="fill:#f7f7f7"/><circle cx="2523.44" cy="1524.05" r="578.12" style="fill:#fff"/></g><g style="opacity:0.1;mix-blend-mode:multiply"><circle cx="2730.99" cy="226.07" r="425.78" transform="translate(681.17 2858.55) rotate(-45)"/><circle cx="2730.99" cy="226.07" r="423.82" transform="translate(681.17 2858.55) rotate(-45)" style="fill:#080808"/><circle cx="2730.99" cy="226.07" r="421.86" transform="translate(681.17 2858.55) rotate(-45)" style="fill:#101010"/><circle cx="2730.99" cy="226.07" r="419.9" transform="translate(681.17 2858.55) rotate(-45)" style="fill:#191919"/><circle cx="2730.99" cy="226.07" r="417.93" transform="translate(681.17 2858.55) rotate(-45)" style="fill:#212121"/><circle cx="2730.99" cy="226.07" r="415.97" transform="translate(681.17 2858.55) rotate(-45)" style="fill:#292929"/><circle cx="2730.99" cy="226.07" r="414.01" transform="translate(681.17 2858.55) rotate(-45)" style="fill:#313131"/><circle cx="2730.99" cy="226.07" r="412.05" transform="translate(681.17 2858.55) rotate(-45)" style="fill:#3a3a3a"/><circle cx="2730.99" cy="226.07" r="410.09" transform="translate(681.17 2858.55) rotate(-45)" style="fill:#424242"/><circle cx="2730.99" cy="226.07" r="408.12" transform="translate(681.17 2858.55) rotate(-45)" style="fill:#4a4a4a"/><circle cx="2730.99" cy="226.07" r="406.16" transform="translate(681.17 2858.55) rotate(-45)" style="fill:#525252"/><circle cx="2730.99" cy="226.07" r="404.2" transform="translate(681.17 2858.55) rotate(-45)" style="fill:#5a5a5a"/><circle cx="2730.99" cy="226.07" r="402.24" transform="translate(681.17 2858.55) rotate(-45)" style="fill:#636363"/><circle cx="2730.99" cy="226.07" r="400.27" transform="translate(681.17 2858.55) rotate(-45)" style="fill:#6b6b6b"/><circle cx="2730.99" cy="226.07" r="398.31" transform="translate(681.17 2858.55) rotate(-45)" style="fill:#737373"/><circle cx="2730.99" cy="226.07" r="396.35" transform="translate(681.17 2858.55) rotate(-45)" style="fill:#7b7b7b"/><circle cx="2730.99" cy="226.07" r="394.39" transform="translate(681.17 2858.55) rotate(-45)" style="fill:#848484"/><circle cx="2730.99" cy="226.07" r="392.43" transform="translate(681.17 2858.55) rotate(-45)" style="fill:#8c8c8c"/><circle cx="2730.99" cy="226.07" r="390.46" transform="translate(681.17 2858.55) rotate(-45)" style="fill:#949494"/><circle cx="2730.99" cy="226.07" r="388.5" transform="translate(681.17 2858.55) rotate(-45)" style="fill:#9c9c9c"/><circle cx="2730.99" cy="226.07" r="386.54" transform="translate(681.17 2858.55) rotate(-45)" style="fill:#a5a5a5"/><circle cx="2730.99" cy="226.07" r="384.58" transform="translate(681.17 2858.55) rotate(-45)" style="fill:#adadad"/><circle cx="2730.99" cy="226.07" r="382.62" transform="translate(681.17 2858.55) rotate(-45)" style="fill:#b5b5b5"/><circle cx="2730.99" cy="226.07" r="380.65" transform="translate(681.17 2858.55) rotate(-45)" style="fill:#bdbdbd"/><circle cx="2730.99" cy="226.07" r="378.69" transform="translate(681.17 2858.55) rotate(-45)" style="fill:#c5c5c5"/><circle cx="2730.99" cy="226.07" r="376.73" transform="translate(681.17 2858.55) rotate(-45)" style="fill:#cecece"/><circle cx="2730.99" cy="226.07" r="374.77" transform="translate(681.17 2858.55) rotate(-45)" style="fill:#d6d6d6"/><circle cx="2730.99" cy="226.07" r="372.8" transform="translate(681.17 2858.54) rotate(-45)" style="fill:#dedede"/><circle cx="2730.99" cy="226.07" r="370.84" transform="translate(681.17 2858.54) rotate(-45)" style="fill:#e6e6e6"/><circle cx="2730.99" cy="226.07" r="368.88" transform="translate(681.17 2858.54) rotate(-45)" style="fill:#efefef"/><circle cx="2772.13" cy="1087.3" r="366.92" style="fill:#f7f7f7"/><circle cx="2772.13" cy="1087.3" r="364.96" style="fill:#fff"/></g><rect y="871.52" width="3000" height="1414" style="fill:none"/></g></g></svg>