<svg width="297" height="310" viewBox="0 0 297 310" fill="none" xmlns="http://www.w3.org/2000/svg">
<g clip-path="url(#clip0_2344_45)">
<path d="M151.35 172.08L145.17 173C144.75 171 144.17 168.59 143.74 166.17C143.613 164.655 143.393 163.148 143.08 161.66C141.77 157.58 139.65 156.77 135.82 158.66C132.38 160.35 128.95 162.05 125.5 163.72C121.29 165.77 117.03 167.14 112.2 165.83C111.1 165.52 109.56 166.43 108.34 167.02C107.28 167.54 106.46 168.54 105.4 169.02C101.4 170.97 99.5 170.22 98.31 165.94C96.5541 160.197 95.1153 154.361 94 148.46C93.55 145.73 94.53 142.67 95.24 139.86C95.83 137.54 97.07 135.4 97.86 133.13C98.65 130.86 97.96 129.2 95.19 129.26C92.42 129.32 89.43 129.12 86.67 129.68C81.1399 130.787 75.3963 129.898 70.46 127.17C67.54 125.657 64.6733 124.053 61.86 122.36C58.78 120.51 58.31 118.56 60.35 115.53C63.77 110.44 67.35 105.47 70.84 100.4C72.72 97.64 72.37 96.05 69.36 95.12C50.06 89.12 38.09 75.29 29.2 58.12C24.73 49.46 20.73 40.54 15.84 32.12C12 25.4 7 19.32 2.56 13C1.75 11.82 0.91 10.69 0 9.43002C2.61 7.32002 4.47 9.12002 5.8 10.54C9.54 14.54 13.65 18.38 16.4 23.01C20.7119 30.3673 24.5207 38.0081 27.8 45.88C34.67 62.05 44.04 76.21 58.8 86.22C62.4435 88.6309 66.3359 90.6425 70.41 92.22C72.7099 93.1485 75.1804 93.5796 77.6589 93.4848C80.1374 93.39 82.5677 92.7715 84.79 91.67C91.79 88.44 99.22 87.54 106.99 87.45C106.11 87.8 105.24 88.18 104.35 88.45C99 90.35 93.57 92.2 88.19 94C81.4963 96.2947 75.8292 100.881 72.19 106.95C70.66 109.35 69.12 111.75 67.66 114.19C65.74 117.39 66.11 118.3 69.66 119.82C85.17 126.42 97.34 125.18 112.06 110.24C113.83 108.46 115.06 106.07 116.89 104.44C119.989 101.726 123.296 99.2582 126.78 97.06C129.17 95.56 131.26 94.17 130.97 91.06C130.68 87.95 129.17 85.25 125.76 84.72C119.29 83.72 112.76 82.93 106.26 82.19C101.26 81.61 96.15 81.7 91.26 80.69C80.62 78.48 74.75 70.69 75.26 59.88C75.61 51.82 75.48 43.88 72.35 36.26C71.9683 35.001 71.8325 33.6803 71.95 32.37C72.02 26.58 73.95 24.94 79.55 26.66C87.09 29 94.59 31.74 102.1 34.4C106.93 36.11 109.28 40.15 110.96 45.3C109.66 45.0153 108.398 44.579 107.2 44C99.6821 39.067 91.5449 35.1497 83 32.35C82.37 32.15 81.76 31.89 81.13 31.73C78.5 31.06 76.92 32.37 77.94 34.73C81.85 44 81.87 53.73 81.8 63.5C81.8 68.79 85.01 73.09 90.34 74.73C96.61 76.65 102.99 78.23 109.34 79.89C110.173 80.1696 111.079 80.1376 111.89 79.8C116.36 76.8 120.63 78.09 125.01 80.03C126.372 80.4405 127.779 80.6856 129.2 80.76C129.309 79.308 129.292 77.8492 129.15 76.4C127.15 65.87 124.64 55.4 123.08 44.83C120.23 25.61 134.49 8.13002 154 6.41002C160.672 5.91735 167.2 4.22349 173.27 1.41002C179.93 -1.76998 183.89 0.500024 185.2 7.86002C187.51 20.91 183.79 32.8 177.98 44.23C177.4 45.39 175.83 46.05 174.71 46.94L173.59 46.3C174.59 42.24 175.75 38.22 176.45 34.11C177.72 26.69 178.93 19.25 179.73 11.77C180.18 7.52002 178.41 6.65002 174.33 7.77002C167.15 9.67002 159.93 11.5 152.65 12.98C130.91 17.4 125.94 35.39 129.65 51.5C129.65 51.7 129.89 51.86 130.5 52.68C131.276 51.1174 131.944 49.5036 132.5 47.85C133.88 42.23 135.09 36.57 136.44 30.94C136.765 29.9716 137.184 29.0371 137.69 28.15L138.69 28.28C138.821 29.4284 138.868 30.5848 138.83 31.74C137.83 42.2 136.7 52.66 135.73 63.13C135.582 65.3213 135.649 67.5218 135.93 69.7C136.152 70.5628 136.514 71.3835 137 72.13C137.925 71.7067 138.774 71.1322 139.51 70.43C141.11 68.22 142.51 65.85 143.98 63.55C145.45 61.25 147.08 60.44 149.82 61.22C150.82 61.5 152.26 60.59 153.26 59.87C153.98 59.34 154.19 58.16 154.81 57.42C157.37 54.42 158.88 54.28 161.33 57.42C163.33 60.03 165.04 60.42 167.86 58.42C176.48 52.14 186.22 51.77 196.16 54.08C200.6 55.08 204.81 57.08 209.16 58.44C214.16 60 219.21 61.38 224.24 62.83C224.46 62.8453 224.68 62.8453 224.9 62.83C235.9 64.32 238.27 69.19 232.52 78.71C228.89 84.9943 224.146 90.5651 218.52 95.15C211.61 100.58 203.65 102.93 195 103.15C193.94 103.15 192.84 102.15 191.76 101.68C192.47 100.68 192.99 99.33 193.94 98.9C197.71 97.18 201.75 96.02 205.45 94.17C209.62 92.09 213.91 89.95 217.45 86.99C221.45 83.65 224.77 79.45 228.18 75.45C228.592 74.9215 228.884 74.3096 229.036 73.6569C229.188 73.0042 229.196 72.3262 229.06 71.67C228.79 70.85 227.06 70.35 225.89 70.03C219.28 68.19 212.17 67.41 206.09 64.48C191.22 57.34 177.43 58.73 164.19 67.81C159.11 71.3953 154.275 75.3174 149.72 79.55C146.59 82.37 146.86 82.64 143.96 79.43C143.406 78.9145 142.818 78.4367 142.2 78C140.39 80.23 140.99 82.28 141.71 84.56C142.26 86.29 142.05 88.25 142.26 90.1C142.35 90.88 142.42 92.02 142.91 92.31C143.286 92.4378 143.689 92.4663 144.08 92.3927C144.471 92.3191 144.836 92.146 145.14 91.89C147.23 89.11 149.67 89.66 152.14 90.89C158.95 94.39 165.85 97.73 172.48 101.54C184.79 108.61 191.27 119.54 192.79 133.54C194.25 146.97 195.1 160.42 192.93 173.86C192.669 175.693 192.133 177.477 191.34 179.15C190.34 181.15 188.34 182.15 186.34 180.74C181.08 176.98 175.7 178.38 170.28 179.95C167.12 180.805 164.02 181.868 161 183.13C159.57 183.77 157.73 185.21 157.57 186.47C157.41 187.73 158.76 189.67 159.99 190.64C163.41 193.34 167.35 195.41 170.66 198.23C179.27 205.56 185.2 214.88 189.24 225.35C190.13 227.67 189.85 230.47 189.97 233.06C190.11 235.98 190.11 238.91 190.14 241.84C190.183 242.464 190.111 243.091 189.93 243.69C188.48 247.31 187.01 250.92 185.47 254.5C183.6 258.81 181.91 263.22 179.68 267.33C177.45 271.44 175.06 271.48 171.96 268.12C163.2 258.587 154.457 249.047 145.73 239.5C139.22 232.34 137.36 223.67 138.65 214.41C139.73 206.62 141.65 198.94 143.02 191.19C143.24 189.93 142.57 188.52 142.31 187.19C141.16 188.01 139.74 188.62 138.93 189.69C138.114 190.986 137.52 192.409 137.17 193.9C133.72 205.15 126.34 212.42 115.09 215.81C108.49 217.81 101.86 219.71 95.3 221.81C92.53 222.69 91.05 222.05 90.14 219.19C86.66 208.19 88.08 198.19 95.5 189.25C97.028 187.252 98.6991 185.367 100.5 183.61C102.071 182.274 103.834 181.181 105.73 180.37C106.34 180.1 107.6 180.72 108.22 181.3C108.48 181.54 108.07 182.92 107.59 183.47C105.27 186.1 102.73 188.54 100.45 191.2C95.4366 196.826 92.6924 204.114 92.75 211.65C92.75 215.36 94.16 216.15 97.82 215.16C102.216 213.836 106.687 212.778 111.21 211.99C120.85 210.59 127.37 205.09 131.84 196.88C133.459 193.773 134.779 190.518 135.78 187.16C137.43 181.98 134.29 177.65 128.83 177.38C126.2 177.25 123.55 177.62 120.94 177.38C118.992 177.263 117.082 176.796 115.3 176C114.43 175.59 114.09 174.06 113.51 173C114.51 172.54 115.57 171.59 116.51 171.69C120.76 172.15 125 172.75 129.18 173.61C133.36 174.47 137.25 175.61 141.24 176.78C142.528 177.064 143.713 177.693 144.67 178.6C147.03 181.39 149.67 181.19 152.67 179.99C158.14 178 163.6 176 169 173.88C169.91 173.51 171.12 172.62 171.21 171.88C171.3 171.14 170.27 170 169.46 169.47C164.78 166.42 160.05 163.47 155.26 160.56C152.2 158.71 150.39 159.81 150.55 163.4C150.65 166.28 151.07 169.18 151.35 172.08ZM144.35 103.21C144.23 104.97 144.15 107.49 143.88 109.99C142.95 118.48 142.1 126.99 140.95 135.44C140.03 142.29 143.06 146.44 148.77 149.84C160 156.6 170.91 163.84 181.92 171C185.09 173.06 187.66 172.21 188.56 168.5C188.874 167.225 188.976 165.908 188.86 164.6C188.05 156.1 186.95 147.6 186.34 139.11C185.2 123.11 176.82 112.37 162.99 105.06C157.51 102.17 152.37 98.6 147.16 95.2C145.16 93.92 144.23 94.49 144.08 96.54C144.039 98.7657 144.112 100.992 144.3 103.21H144.35ZM142.65 217.93C141.83 224.67 144.3 230.22 148.56 235.18C150.48 237.42 152.36 239.71 154.37 241.87C160.47 248.45 166.64 254.98 172.76 261.54C174.99 263.94 176.71 263.78 177.84 260.73C179.84 255.4 181.61 250.01 183.39 244.61C187.18 233.16 184.93 222.81 177.39 213.53C171.264 205.929 164.022 199.3 155.91 193.87C153.59 192.31 152.01 189.66 150.02 187.58C149.4 186.93 148.33 185.89 147.88 186.07C147.437 186.287 147.048 186.6 146.74 186.985C146.432 187.371 146.214 187.82 146.1 188.3C144.84 198.16 143.74 208.05 142.6 217.93H142.65ZM100.86 152C101.63 154.7 102.22 157.46 103.24 160.06C103.6 160.95 105.1 162.06 105.91 161.98C109.681 161.533 113.399 160.716 117.01 159.54C123.39 157.24 129.57 154.42 135.86 151.89C137.86 151.09 138.29 149.84 137.39 148.01C135.105 143.223 134.486 137.81 135.63 132.63C136.34 128.86 136.8 125.04 137.75 121.34C138.5 118.42 137.3 117.05 134.87 116.04C132.307 114.999 129.458 114.904 126.831 115.77C124.204 116.637 121.971 118.409 120.53 120.77C117.38 125.65 114.42 130.64 111.24 135.5C110.12 137.23 108.91 139.22 107.24 140.19C102.58 142.89 101.34 147 100.86 152Z" fill="white"/>
<path d="M203 148.22C204.033 148.898 205.012 149.653 205.93 150.48C207.469 152.05 208.902 153.72 210.22 155.48C216.49 164.01 225.56 167.9 235.29 170.67C236.38 170.98 237.69 170.54 238.9 170.45L239.21 169.37C238.201 168.55 237.096 167.855 235.92 167.3C225.377 163.898 216.326 156.97 210.29 147.68C203.92 138.01 198.48 127.74 192.66 117.68C192.388 116.971 192.184 116.238 192.05 115.49C193.139 115.623 194.214 115.857 195.26 116.19C196.142 116.635 196.951 117.212 197.66 117.9C210.66 129.67 226.25 135.81 243.13 139.34C254.2 141.65 264.56 145.67 273.26 153.14C282.99 161.51 289.75 172.14 295.26 183.51C296.03 185.08 297.33 187.3 295.26 189.12C294.91 189.05 294.61 189.12 294.51 188.95C287.51 180.39 277.68 180.03 267.88 179.56C261.1 179.24 254.3 179.13 247.5 178.9C232.24 178.39 220.04 171.56 210.15 160.33C207.15 156.87 204.64 152.89 201.91 149.15L203 148.22ZM283.09 173.92L283.75 172.8C282.029 170.063 280.159 167.423 278.15 164.89C269.79 155.34 259.02 149.79 246.9 146.6C235.16 143.52 223.35 140.65 212.56 134.81C211.883 134.442 211.138 134.218 210.37 134.15C208.26 133.98 207.11 135.26 208.37 136.89C212.82 142.55 216.72 149.17 222.37 153.22C233.92 161.43 247.14 166.14 261.72 165.66C262.72 165.66 263.72 165.74 265.58 165.83C264.675 166.58 263.817 167.385 263.01 168.24C262.443 169.069 261.926 169.93 261.46 170.82C262.354 171.446 263.339 171.931 264.38 172.26C268.47 172.92 272.58 173.47 276.71 173.88C278.81 174.09 280.94 173.92 283.06 173.92H283.09Z" fill="white"/>
<path d="M209.09 309.19C207.48 304.53 208.35 300.59 209.18 296.62C210.18 291.71 211.64 286.8 211.92 281.84C212.15 277.9 211.03 273.84 210.19 269.92C210.01 269.05 208.55 268.4 207.6 267.76C206.32 266.9 204.43 266.45 203.74 265.27C200.44 259.63 197.44 253.82 194.36 248.05C193.95 247.29 193.66 246.46 193.2 245.4C194.78 245.145 196.398 245.257 197.928 245.729C199.458 246.201 200.858 247.019 202.02 248.12C204.732 250.796 207.167 253.737 209.29 256.9C211.48 260.03 213.19 263.48 215.18 266.74C215.78 267.581 216.449 268.37 217.18 269.1L218.39 268.74C217.94 264.85 218.04 260.79 216.9 257.11C215.411 252.428 213.399 247.93 210.9 243.7C207.28 237.46 203.03 231.58 199.22 225.45C198.7 224.62 199.15 223.19 199.16 222.04C200.1 222.24 201.34 222.12 201.94 222.69C212.07 232.18 219.76 243.37 222.6 257.06C225.04 268.85 222.46 280.33 217.6 291.27C215.2 296.65 212.81 302.05 210.4 307.43C210.008 308.049 209.57 308.637 209.09 309.19Z" fill="white"/>
<path d="M185 207.5C185.882 207.827 186.741 208.215 187.57 208.66C192.57 211.66 197.5 215.01 203.5 215.11C209.872 215.283 216.148 213.523 221.5 210.06C223.56 208.72 222.61 207.14 221.69 205.83C217.497 199.794 212.037 194.746 205.69 191.04C202.94 189.46 200.08 188.04 197.43 186.33C196.63 185.81 196.36 184.48 195.84 183.53C196.84 183.04 197.96 181.98 198.84 182.17C202.01 182.88 205.53 183.34 208.1 185.08C216.624 190.725 223.767 198.217 229 207C231.27 210.87 231 211.82 227.06 214C219.29 218.26 210.88 219.91 202.12 220C201.359 220.027 200.606 219.836 199.95 219.45C195.123 216.23 190.323 212.967 185.55 209.66C185.11 209.35 184.9 208.66 184.55 208.19L185 207.5Z" fill="white"/>
<path d="M71.13 67C69.291 65.5755 67.5441 64.0357 65.9 62.39C63.5886 59.9021 61.488 57.2262 59.62 54.39C50.38 39.74 36.82 29.68 23.21 19.64C22.51 19.13 21.77 18.64 21.06 18.13C20.7284 17.7252 20.4307 17.2938 20.17 16.84C21.4792 16.9449 22.7753 17.176 24.04 17.53C41.17 24.82 55.04 35.88 64.45 52.22C66.45 55.63 68.74 58.83 70.74 62.22C71.3525 63.53 71.8251 64.9009 72.15 66.31L71.13 67Z" fill="white"/>
<path d="M78 87.65C75.11 86.25 71.84 85.31 69.39 83.35C64.27 79.28 59 75.16 54.88 70.18C47.88 61.76 41.67 52.7 35.24 43.83C34.1635 42.183 33.3094 40.4009 32.7 38.53C32.45 37.87 32.85 36.96 32.95 36.17C33.76 36.35 34.82 36.27 35.32 36.76C37.9992 39.1845 40.4835 41.8159 42.75 44.63C47.37 50.89 51.91 57.23 56.01 63.83C61.112 72.1884 67.9957 79.318 76.17 84.71C77.02 85.27 77.81 85.95 78.63 86.57L78 87.65Z" fill="white"/>
</g>
<defs>
<clipPath id="clip0_2344_45">
<rect width="296.39" height="309.19" fill="white"/>
</clipPath>
</defs>
</svg>
