<svg width="250" height="250" viewBox="0 0 250 250" fill="none" xmlns="http://www.w3.org/2000/svg">
<path d="M183.359 150.125C180.847 148.876 164.52 141.386 162.009 140.137C159.497 138.889 156.985 138.889 154.474 141.386C151.962 143.883 146.938 151.374 144.427 153.87C143.17 156.367 140.659 156.367 138.147 155.118C129.355 151.374 120.565 146.38 113.029 140.137C106.75 133.895 100.471 126.405 95.4471 118.914C94.1912 116.417 95.4471 113.92 96.7029 112.672C97.9588 111.423 99.2147 108.926 101.726 107.678C102.982 106.43 104.238 103.933 104.238 102.684C105.494 101.436 105.494 98.9388 104.238 97.6904C102.982 96.4419 96.7029 81.4607 94.1912 75.2185C92.9353 66.4794 90.4234 66.4794 87.9118 66.4794C86.6558 66.4794 84.1441 66.4794 81.6323 66.4794C79.1205 66.4794 75.3529 68.9763 74.097 70.2247C66.5618 77.7153 62.7941 86.4544 62.7941 96.4419C64.05 107.678 67.8176 118.914 75.3529 128.901C89.1677 148.876 106.75 165.106 128.1 175.093C134.379 177.591 139.403 180.088 145.683 181.336C151.962 183.833 158.241 183.833 165.777 182.584C174.568 181.336 182.103 175.093 187.127 167.603C189.638 162.609 189.638 157.616 188.383 152.622C188.383 152.622 185.87 151.374 183.359 150.125ZM214.756 36.5169C165.777 -12.1723 86.6559 -12.1723 37.6765 36.5169C-2.51177 76.4669 -10.0471 137.641 17.5824 186.33L0 250L66.5618 232.522C85.3999 242.509 105.494 247.503 125.588 247.503C194.662 247.503 249.921 192.572 249.921 123.908C251.177 91.4482 237.362 60.2372 214.756 36.5169ZM180.847 211.299C164.52 221.286 145.683 227.528 125.588 227.528C106.75 227.528 89.1677 222.534 72.8412 213.795L69.0735 211.299L30.1412 221.286L40.1882 183.833L37.6765 180.087C7.53529 130.15 22.6059 67.7278 71.5853 36.5169C120.565 5.30586 183.359 21.5355 213.5 68.9763C243.642 117.666 229.827 181.336 180.847 211.299Z" fill="white"/>
<path fill-rule="evenodd" clip-rule="evenodd" d="M180.847 211.299C164.52 221.286 145.683 227.528 125.588 227.528C106.75 227.528 89.1677 222.534 72.8412 213.795L69.0735 211.299L30.1412 221.286L40.1882 183.833L37.6765 180.087C7.53529 130.15 22.6059 67.7278 71.5853 36.5169C120.565 5.30586 183.359 21.5355 213.5 68.9763C243.642 117.666 229.827 181.336 180.847 211.299ZM162.009 140.137C164.52 141.386 180.847 148.876 183.359 150.125C185.87 151.374 188.383 152.622 188.383 152.622C189.638 157.616 189.638 162.609 187.127 167.603C182.103 175.093 174.568 181.336 165.777 182.584C158.241 183.833 151.962 183.833 145.683 181.336C139.403 180.088 134.379 177.591 128.1 175.093C106.75 165.106 89.1677 148.876 75.3529 128.901C67.8176 118.914 64.05 107.678 62.7941 96.4419C62.7941 86.4544 66.5618 77.7153 74.097 70.2247C75.3529 68.9763 79.1205 66.4794 81.6323 66.4794H87.9118C90.4234 66.4794 92.9353 66.4794 94.1912 75.2185C96.7029 81.4607 102.982 96.4419 104.238 97.6904C105.494 98.9388 105.494 101.436 104.238 102.684C104.238 103.933 102.982 106.43 101.726 107.678C99.2147 108.926 97.9588 111.423 96.7029 112.672C95.4471 113.92 94.1912 116.417 95.4471 118.914C100.471 126.405 106.75 133.895 113.029 140.137C120.565 146.38 129.355 151.374 138.147 155.118C140.659 156.367 143.17 156.367 144.427 153.87C146.938 151.374 151.962 143.883 154.474 141.386C156.985 138.889 159.497 138.889 162.009 140.137Z" fill="#25D366"/>
</svg>
